SplineFontDB: 3.2
FontName: Nathan
FullName: Nathan
FamilyName: Nathan
Weight: Book
Copyright: Copyright (c) 2009 by Peter Wiegel,  Open Font under Terms of following Free Software Licenses:\nGPL (General Public License) with font-exception and OFL (Open Font License
Version: 1.001 2009
ItalicAngle: 0
UnderlinePosition: 0
UnderlineWidth: 0
Ascent: 1638
Descent: 410
InvalidEm: 0
sfntRevision: 0x00010042
LayerCount: 2
Layer: 0 1 "Back" 1
Layer: 1 1 "Fore" 0
XUID: [1021 578 1802256418 32356]
StyleMap: 0x0040
FSType: 0
OS2Version: 3
OS2_WeightWidthSlopeOnly: 0
OS2_UseTypoMetrics: 0
CreationTime: 1253031403
ModificationTime: 1698235559
PfmFamily: 17
TTFWeight: 400
TTFWidth: 5
LineGap: 54
VLineGap: 0
Panose: 2 11 6 3 5 3 2 2 2 4
OS2TypoAscent: 1362
OS2TypoAOffset: 0
OS2TypoDescent: -262
OS2TypoDOffset: 0
OS2TypoLinegap: 106
OS2WinAscent: 1783
OS2WinAOffset: 0
OS2WinDescent: 371
OS2WinDOffset: 0
HheadAscent: 1783
HheadAOffset: 0
HheadDescent: -371
HheadDOffset: 0
OS2SubXSize: 0
OS2SubYSize: 0
OS2SubXOff: 0
OS2SubYOff: 0
OS2SupXSize: 0
OS2SupYSize: 0
OS2SupXOff: 0
OS2SupYOff: 0
OS2StrikeYSize: 102
OS2StrikeYPos: 512
OS2CapHeight: 1415
OS2XHeight: 882
OS2Vendor: 'WGL '
OS2CodePages: 00000005.00000000
OS2UnicodeRanges: 8000022f.4000000a.00000000.00000000
Lookup: 258 0 0 "'kern' Horizontal Kerning in Latin lookup 0" { "'kern' Horizontal Kerning in Latin lookup 0 subtable"  } ['kern' ('latn' <'dflt' > ) ]
DEI: 91125
TtTable: prep
PUSHW_1
 0
CALL
EndTTInstrs
TtTable: fpgm
PUSHW_1
 0
FDEF
MPPEM
PUSHW_1
 8
LT
IF
PUSHB_2
 1
 1
INSTCTRL
EIF
PUSHW_1
 511
SCANCTRL
PUSHW_1
 68
SCVTCI
PUSHW_2
 8
 3
SDS
SDB
ENDF
PUSHW_1
 1
FDEF
DUP
DUP
RCVT
ROUND[Black]
WCVTP
PUSHB_1
 1
ADD
ENDF
PUSHW_1
 2
FDEF
PUSHW_1
 1
LOOPCALL
POP
ENDF
PUSHW_1
 3
FDEF
DUP
GC[cur]
PUSHB_1
 3
CINDEX
GC[cur]
GT
IF
SWAP
EIF
DUP
ROLL
DUP
ROLL
MD[grid]
ABS
ROLL
DUP
GC[cur]
DUP
ROUND[Grey]
SUB
ABS
PUSHB_1
 4
CINDEX
GC[cur]
DUP
ROUND[Grey]
SUB
ABS
GT
IF
SWAP
NEG
ROLL
EIF
MDAP[rnd]
DUP
PUSHB_1
 0
GTEQ
IF
ROUND[Black]
DUP

StartChar: .notdef
Encoding: 65536 -1 0
Width: 491
GlyphClass: 1
Flags: W
LayerCount: 2
Fore
SplineSet
53 1130 m 1,0,-1
 443 1130 l 1,1,-1
 443 630 l 1,2,-1
 53 630 l 1,3,-1
 53 1130 l 1,0,-1
101 673 m 1,4,-1
 390 673 l 1,5,-1
 390 1082 l 1,6,-1
 101 1082 l 1,7,-1
 101 673 l 1,4,-1
EndSplineSet
EndChar

StartChar: question
Encoding: 63 63 4
Width: 880
GlyphClass: 1
Flags: W
LayerCount: 2
Fore
SplineSet
134 1097 m 0,0,1
 118 1069 118 1069 95 1069 c 0,2,3
 73 1069 73 1069 56 1085.5 c 128,-1,4
 39 1102 39 1102 39 1120 c 0,5,6
 39 1131 39 1131 47 1149 c 0,7,8
 111 1257 111 1257 207.5 1309.5 c 128,-1,9
 304 1362 304 1362 422 1362 c 0,10,11
 518 1362 518 1362 597 1331.5 c 128,-1,12
 676 1301 676 1301 732.5 1245.5 c 128,-1,13
 789 1190 789 1190 820.5 1113 c 128,-1,14
 852 1036 852 1036 852 942 c 0,15,16
 852 805 852 805 787.5 709 c 128,-1,17
 723 613 723 613 597 558 c 0,18,19
 496 514 496 514 449.5 448.5 c 128,-1,20
 403 383 403 383 403 288 c 0,21,22
 403 278 403 278 403.5 267.5 c 128,-1,23
 404 257 404 257 404 247 c 0,24,25
 404 201 404 201 350 201 c 0,26,27
 333 201 333 201 323 207 c 128,-1,28
 313 213 313 213 308 224.5 c 128,-1,29
 303 236 303 236 302 252.5 c 128,-1,30
 301 269 301 269 301 289 c 0,31,32
 301 414 301 414 362.5 504 c 128,-1,33
 424 594 424 594 556 651 c 0,34,35
 658 693 658 693 704.5 767 c 128,-1,36
 751 841 751 841 751 956 c 0,37,38
 749 1026 749 1026 724 1082.5 c 128,-1,39
 699 1139 699 1139 655.5 1179 c 128,-1,40
 612 1219 612 1219 552.5 1240 c 128,-1,41
 493 1261 493 1261 422 1261 c 0,42,43
 328 1261 328 1261 256.5 1221 c 128,-1,44
 185 1181 185 1181 134 1097 c 0,0,1
358 151 m 256,45,46
 449 151 449 151 449 67 c 0,47,48
 449 -16 449 -16 358 -16 c 256,49,50
 267 -16 267 -16 267 67 c 0,51,52
 267 151 267 151 358 151 c 256,45,46
EndSplineSet
EndChar

StartChar: zero
Encoding: 48 48 5
Width: 861
GlyphClass: 1
Flags: W
LayerCount: 2
Fore
SplineSet
430 1391 m 0,0,1
 481 1391 481 1391 530.5 1358 c 128,-1,2
 580 1325 580 1325 624 1267 c 128,-1,3
 668 1209 668 1209 705 1131.5 c 128,-1,4
 742 1054 742 1054 769 965.5 c 128,-1,5
 796 877 796 877 811 781 c 128,-1,6
 826 685 826 685 826 592 c 0,7,8
 826 451 826 451 796.5 335.5 c 128,-1,9
 767 220 767 220 714.5 138 c 128,-1,10
 662 56 662 56 589 11 c 128,-1,11
 516 -34 516 -34 430 -34 c 0,12,13
 343 -34 343 -34 270 11 c 128,-1,14
 197 56 197 56 145 138.5 c 128,-1,15
 93 221 93 221 64 336.5 c 128,-1,16
 35 452 35 452 35 592 c 0,17,18
 35 690 35 690 50.5 787.5 c 128,-1,19
 66 885 66 885 93 974 c 128,-1,20
 120 1063 120 1063 157.5 1139 c 128,-1,21
 195 1215 195 1215 239 1271 c 128,-1,22
 283 1327 283 1327 331.5 1359 c 128,-1,23
 380 1391 380 1391 430 1391 c 0,0,1
619 1079 m 0,24,25
 598 1124 598 1124 574 1163 c 128,-1,26
 550 1202 550 1202 525.5 1230 c 128,-1,27
 501 1258 501 1258 476.5 1274 c 128,-1,28
 452 1290 452 1290 430 1290 c 0,29,30
 398 1290 398 1290 364 1261.5 c 128,-1,31
 330 1233 330 1233 297 1183 c 128,-1,32
 264 1133 264 1133 235 1065.5 c 128,-1,33
 206 998 206 998 184 920.5 c 128,-1,34
 162 843 162 843 149 759 c 128,-1,35
 136 675 136 675 136 592 c 0,36,37
 136 477 136 477 157.5 380.5 c 128,-1,38
 179 284 179 284 218 214.5 c 128,-1,39
 257 145 257 145 311 106 c 128,-1,40
 365 67 365 67 430 67 c 0,41,42
 494 67 494 67 548 105.5 c 128,-1,43
 602 144 602 144 641 213.5 c 128,-1,44
 680 283 680 283 702 379.5 c 128,-1,45
 724 476 724 476 724 592 c 0,46,47
 724 725 724 725 695.5 850.5 c 128,-1,48
 667 976 667 976 619 1079 c 0,24,25
EndSplineSet
EndChar

StartChar: nine
Encoding: 57 57 6
Width: 739
GlyphClass: 1
Flags: W
LayerCount: 2
Fore
SplineSet
377 11 m 0,0,1
 357 0 357 0 345 0 c 0,2,3
 336 0 336 0 327 5.5 c 128,-1,4
 318 11 318 11 311 19 c 128,-1,5
 304 27 304 27 299.5 37 c 128,-1,6
 295 47 295 47 295 56 c 0,7,8
 295 79 295 79 320 95 c 0,9,10
 358 120 358 120 392.5 165 c 128,-1,11
 427 210 427 210 457 268.5 c 128,-1,12
 487 327 487 327 511.5 396 c 128,-1,13
 536 465 536 465 554 538 c 1,14,15
 506 506 506 506 450 488.5 c 128,-1,16
 394 471 394 471 342 471 c 0,17,18
 277 471 277 471 220 494.5 c 128,-1,19
 163 518 163 518 120 569 c 128,-1,20
 77 620 77 620 52 700 c 128,-1,21
 27 780 27 780 27 893 c 0,22,23
 28 1001 28 1001 53 1088 c 128,-1,24
 78 1175 78 1175 122 1236 c 128,-1,25
 166 1297 166 1297 226.5 1329.5 c 128,-1,26
 287 1362 287 1362 359 1362 c 0,27,28
 437 1362 437 1362 499 1327 c 128,-1,29
 561 1292 561 1292 604 1225.5 c 128,-1,30
 647 1159 647 1159 670 1063 c 128,-1,31
 693 967 693 967 693 846 c 0,32,33
 693 772 693 772 683 690.5 c 128,-1,34
 673 609 673 609 654 527 c 128,-1,35
 635 445 635 445 607 366 c 128,-1,36
 579 287 579 287 544 219 c 128,-1,37
 509 151 509 151 467 97 c 128,-1,38
 425 43 425 43 377 11 c 0,0,1
585 731 m 1,39,40
 591 792 591 792 591 849 c 0,41,42
 591 1047 591 1047 529.5 1154 c 128,-1,43
 468 1261 468 1261 359 1261 c 0,44,45
 308 1261 308 1261 265.5 1234 c 128,-1,46
 223 1207 223 1207 192.5 1158 c 128,-1,47
 162 1109 162 1109 145 1039.5 c 128,-1,48
 128 970 128 970 128 886 c 0,49,50
 128 738 128 738 182.5 655.5 c 128,-1,51
 237 573 237 573 344 573 c 0,52,53
 390 573 390 573 430.5 587 c 128,-1,54
 471 601 471 601 502 623.5 c 128,-1,55
 533 646 533 646 554.5 674 c 128,-1,56
 576 702 576 702 585 731 c 1,39,40
EndSplineSet
EndChar

StartChar: eight
Encoding: 56 56 7
Width: 801
GlyphClass: 1
Flags: W
LayerCount: 2
Fore
SplineSet
401 1362 m 0,0,1
 452 1362 452 1362 496.5 1337.5 c 128,-1,2
 541 1313 541 1313 574.5 1271 c 128,-1,3
 608 1229 608 1229 627 1174 c 128,-1,4
 646 1119 646 1119 646 1058 c 0,5,6
 646 986 646 986 622.5 925 c 128,-1,7
 599 864 599 864 551 816 c 1,8,9
 604 787 604 787 644.5 744 c 128,-1,10
 685 701 685 701 713 648 c 128,-1,11
 741 595 741 595 755 535 c 128,-1,12
 769 475 769 475 769 412 c 0,13,14
 769 322 769 322 740.5 242 c 128,-1,15
 712 162 712 162 662.5 102 c 128,-1,16
 613 42 613 42 545.5 6.5 c 128,-1,17
 478 -29 478 -29 401 -29 c 0,18,19
 323 -29 323 -29 255.5 6.5 c 128,-1,20
 188 42 188 42 138.5 102.5 c 128,-1,21
 89 163 89 163 61 243 c 128,-1,22
 33 323 33 323 33 412 c 0,23,24
 33 475 33 475 47 535 c 128,-1,25
 61 595 61 595 88.5 647.5 c 128,-1,26
 116 700 116 700 157 743.5 c 128,-1,27
 198 787 198 787 251 816 c 1,28,29
 203 864 203 864 179.5 925 c 128,-1,30
 156 986 156 986 156 1058 c 0,31,32
 156 1118 156 1118 174.5 1173 c 128,-1,33
 193 1228 193 1228 226 1270 c 128,-1,34
 259 1312 259 1312 303.5 1337 c 128,-1,35
 348 1362 348 1362 401 1362 c 0,0,1
586 657 m 0,36,37
 506 753 506 753 401 753 c 0,38,39
 345 753 345 753 296.5 725 c 128,-1,40
 248 697 248 697 212 650 c 128,-1,41
 176 603 176 603 155 541 c 128,-1,42
 134 479 134 479 134 412 c 0,43,44
 134 343 134 343 155 281 c 128,-1,45
 176 219 176 219 212.5 172.5 c 128,-1,46
 249 126 249 126 297.5 98.5 c 128,-1,47
 346 71 346 71 401 71 c 0,48,49
 455 71 455 71 503.5 98 c 128,-1,50
 552 125 552 125 588.5 171.5 c 128,-1,51
 625 218 625 218 646 280 c 128,-1,52
 667 342 667 342 667 412 c 0,53,54
 667 556 667 556 586 657 c 0,36,37
498 1206 m 0,55,56
 455 1261 455 1261 401 1261 c 0,57,58
 372 1261 372 1261 346 1245 c 128,-1,59
 320 1229 320 1229 300.5 1201 c 128,-1,60
 281 1173 281 1173 269.5 1136.5 c 128,-1,61
 258 1100 258 1100 258 1058 c 0,62,63
 258 1014 258 1014 269.5 977 c 128,-1,64
 281 940 281 940 301 912.5 c 128,-1,65
 321 885 321 885 346.5 869.5 c 128,-1,66
 372 854 372 854 401 854 c 0,67,68
 429 854 429 854 455 870 c 128,-1,69
 481 886 481 886 501 914 c 128,-1,70
 521 942 521 942 532.5 979 c 128,-1,71
 544 1016 544 1016 544 1058 c 0,72,73
 544 1145 544 1145 498 1206 c 0,55,56
EndSplineSet
EndChar

StartChar: seven
Encoding: 55 55 8
Width: 842
GlyphClass: 1
Flags: W
LayerCount: 2
Fore
SplineSet
240 1327 m 1,0,-1
 765 1327 l 2,1,2
 816 1327 816 1327 816 1276 c 2,3,-1
 816 1273 l 2,4,5
 816 1204 816 1204 805 1152 c 128,-1,6
 794 1100 794 1100 770 1065 c 0,7,8
 751 1037 751 1037 728.5 1011 c 128,-1,9
 706 985 706 985 683.5 961 c 128,-1,10
 661 937 661 937 641 916.5 c 128,-1,11
 621 896 621 896 608 879 c 0,12,13
 569 829 569 829 546 792.5 c 128,-1,14
 523 756 523 756 511 717.5 c 128,-1,15
 499 679 499 679 495.5 632 c 128,-1,16
 492 585 492 585 492 515 c 2,17,-1
 491 53 l 2,18,19
 491 2 491 2 440 2 c 0,20,21
 390 2 390 2 390 53 c 2,22,-1
 390 515 l 2,23,24
 390 590 390 590 396 651 c 128,-1,25
 402 712 402 712 422.5 769 c 128,-1,26
 443 826 443 826 483.5 883.5 c 128,-1,27
 524 941 524 941 593 1010 c 0,28,29
 614 1031 614 1031 633.5 1052 c 128,-1,30
 653 1073 653 1073 669 1098 c 128,-1,31
 685 1123 685 1123 696.5 1154 c 128,-1,32
 708 1185 708 1185 713 1226 c 1,33,-1
 238 1226 l 1,34,-1
 130 1071 l 2,35,36
 112 1045 112 1045 91 1045 c 0,37,38
 66 1045 66 1045 51 1061 c 128,-1,39
 36 1077 36 1077 36 1093 c 0,40,41
 36 1105 36 1105 42 1120 c 2,42,-1
 145 1333 l 2,43,44
 153 1349 153 1349 167.5 1356.5 c 128,-1,45
 182 1364 182 1364 195 1364 c 0,46,47
 217 1364 217 1364 234 1337 c 2,48,-1
 240 1327 l 1,0,-1
EndSplineSet
EndChar

StartChar: six
Encoding: 54 54 9
Width: 738
GlyphClass: 1
Flags: W
LayerCount: 2
Fore
SplineSet
362 1353 m 0,0,1
 378 1364 378 1364 393 1364 c 0,2,3
 410 1364 410 1364 426 1347 c 128,-1,4
 442 1330 442 1330 442 1308 c 0,5,6
 442 1285 442 1285 418 1269 c 0,7,8
 379 1243 379 1243 344.5 1198 c 128,-1,9
 310 1153 310 1153 280 1095 c 128,-1,10
 250 1037 250 1037 226 968 c 128,-1,11
 202 899 202 899 185 826 c 1,12,13
 231 856 231 856 285.5 874 c 128,-1,14
 340 892 340 892 395 892 c 0,15,16
 459 892 459 892 516.5 868 c 128,-1,17
 574 844 574 844 617 793 c 128,-1,18
 660 742 660 742 685.5 662.5 c 128,-1,19
 711 583 711 583 711 472 c 0,20,21
 711 365 711 365 686 278.5 c 128,-1,22
 661 192 661 192 617 130.5 c 128,-1,23
 573 69 573 69 512 35.5 c 128,-1,24
 451 2 451 2 379 2 c 0,25,26
 301 2 301 2 239 37 c 128,-1,27
 177 72 177 72 134 138 c 128,-1,28
 91 204 91 204 68.5 299.5 c 128,-1,29
 46 395 46 395 46 517 c 0,30,31
 46 592 46 592 56 674.5 c 128,-1,32
 66 757 66 757 85 839 c 128,-1,33
 104 921 104 921 131.5 999.5 c 128,-1,34
 159 1078 159 1078 194 1146 c 128,-1,35
 229 1214 229 1214 271.5 1267.5 c 128,-1,36
 314 1321 314 1321 362 1353 c 0,0,1
153 633 m 1,37,38
 147 573 147 573 147 518 c 0,39,40
 147 317 147 317 207 210 c 128,-1,41
 267 103 267 103 379 103 c 0,42,43
 430 103 430 103 472.5 130 c 128,-1,44
 515 157 515 157 545.5 206 c 128,-1,45
 576 255 576 255 593 324.5 c 128,-1,46
 610 394 610 394 610 478 c 0,47,48
 610 629 610 629 555.5 710 c 128,-1,49
 501 791 501 791 398 791 c 0,50,51
 349 791 349 791 308 777.5 c 128,-1,52
 267 764 267 764 235.5 741.5 c 128,-1,53
 204 719 204 719 183 690.5 c 128,-1,54
 162 662 162 662 153 633 c 1,37,38
EndSplineSet
EndChar

StartChar: four
Encoding: 52 52 10
Width: 736
GlyphClass: 1
Flags: W
LayerCount: 2
Fore
SplineSet
268 1281 m 0,0,1
 251 1301 251 1301 251 1316 c 0,2,3
 251 1324 251 1324 256 1333.5 c 128,-1,4
 261 1343 261 1343 269 1351 c 128,-1,5
 277 1359 277 1359 286 1364 c 128,-1,6
 295 1369 295 1369 304 1369 c 0,7,8
 324 1369 324 1369 346 1347.5 c 128,-1,9
 368 1326 368 1326 387 1296.5 c 128,-1,10
 406 1267 406 1267 420.5 1236.5 c 128,-1,11
 435 1206 435 1206 440 1188 c 0,12,13
 450 1154 450 1154 450 1113 c 0,14,15
 450 1054 450 1054 427 1001 c 128,-1,16
 404 948 404 948 369.5 896.5 c 128,-1,17
 335 845 335 845 294.5 791.5 c 128,-1,18
 254 738 254 738 218.5 678.5 c 128,-1,19
 183 619 183 619 158.5 550 c 128,-1,20
 134 481 134 481 132 398 c 1,21,-1
 405 398 l 1,22,-1
 405 838 l 2,23,24
 405 889 405 889 455 889 c 0,25,26
 506 889 506 889 506 838 c 2,27,-1
 506 398 l 1,28,-1
 665 398 l 2,29,30
 716 398 716 398 716 347 c 0,31,32
 716 297 716 297 665 297 c 2,33,-1
 506 297 l 1,34,-1
 506 103 l 1,35,-1
 550 103 l 2,36,37
 601 103 601 103 601 53 c 0,38,39
 601 2 601 2 550 2 c 2,40,-1
 362 2 l 2,41,42
 311 2 311 2 311 53 c 0,43,44
 311 103 311 103 362 103 c 2,45,-1
 405 103 l 1,46,-1
 405 297 l 1,47,-1
 81 297 l 2,48,49
 62 297 62 297 52 303 c 128,-1,50
 42 309 42 309 37 320.5 c 128,-1,51
 32 332 32 332 31 348.5 c 128,-1,52
 30 365 30 365 30 387 c 0,53,54
 30 478 30 478 53.5 554 c 128,-1,55
 77 630 77 630 112.5 694.5 c 128,-1,56
 148 759 148 759 189 814.5 c 128,-1,57
 230 870 230 870 265.5 920.5 c 128,-1,58
 301 971 301 971 324.5 1018.5 c 128,-1,59
 348 1066 348 1066 348 1114 c 0,60,61
 348 1156 348 1156 327.5 1197 c 128,-1,62
 307 1238 307 1238 268 1281 c 0,0,1
EndSplineSet
EndChar

StartChar: five
Encoding: 53 53 11
Width: 795
GlyphClass: 1
Flags: W
LayerCount: 2
Fore
SplineSet
552 1226 m 1,0,-1
 166 1226 l 1,1,-1
 150 896 l 1,2,3
 254 918 254 918 341 918 c 0,4,5
 462 918 462 918 539 879 c 128,-1,6
 616 840 616 840 660.5 775 c 128,-1,7
 705 710 705 710 721.5 626.5 c 128,-1,8
 738 543 738 543 738 453 c 0,9,10
 738 221 738 221 652 98.5 c 128,-1,11
 566 -24 566 -24 409 -32 c 1,12,-1
 395 -32 l 2,13,14
 315 -32 315 -32 249.5 0.5 c 128,-1,15
 184 33 184 33 137 91 c 128,-1,16
 90 149 90 149 64 229.5 c 128,-1,17
 38 310 38 310 38 406 c 0,18,19
 38 443 38 443 42 486.5 c 128,-1,20
 46 530 46 530 56.5 567 c 128,-1,21
 67 604 67 604 86 628.5 c 128,-1,22
 105 653 105 653 136 653 c 0,23,24
 153 653 153 653 169 645 c 128,-1,25
 185 637 185 637 197 623.5 c 128,-1,26
 209 610 209 610 216.5 591.5 c 128,-1,27
 224 573 224 573 224 552 c 0,28,29
 224 467 224 467 141 450 c 1,30,31
 140 435 140 435 139.5 424 c 128,-1,32
 139 413 139 413 139 406 c 0,33,34
 139 331 139 331 157.5 268.5 c 128,-1,35
 176 206 176 206 210 161.5 c 128,-1,36
 244 117 244 117 291 92.5 c 128,-1,37
 338 68 338 68 395 68 c 2,38,-1
 405 68 l 1,39,40
 520 73 520 73 578.5 170.5 c 128,-1,41
 637 268 637 268 637 453 c 0,42,43
 637 526 637 526 626.5 592 c 128,-1,44
 616 658 616 658 584 708 c 128,-1,45
 552 758 552 758 494 787.5 c 128,-1,46
 436 817 436 817 341 817 c 0,47,48
 245 817 245 817 110 783 c 0,49,50
 104 780 104 780 99 780 c 0,51,52
 70 780 70 780 57.5 793 c 128,-1,53
 45 806 45 806 45 834 c 2,54,-1
 68 1276 l 2,55,56
 68 1327 68 1327 118 1327 c 2,57,-1
 550 1327 l 1,58,-1
 555 1335 l 2,59,60
 570 1364 570 1364 595 1364 c 0,61,62
 609 1364 609 1364 624 1354.5 c 128,-1,63
 639 1345 639 1345 645 1332 c 2,64,-1
 739 1118 l 2,65,66
 745 1103 745 1103 745 1092 c 0,67,68
 745 1076 745 1076 729 1061 c 128,-1,69
 713 1046 713 1046 687 1046 c 0,70,71
 662 1046 662 1046 649 1074 c 1,72,-1
 552 1226 l 1,0,-1
EndSplineSet
EndChar

StartChar: three
Encoding: 51 51 12
Width: 802
GlyphClass: 1
Flags: W
LayerCount: 2
Fore
SplineSet
247 552 m 0,0,1
 247 467 247 467 164 450 c 1,2,3
 163 442 163 442 163 431 c 128,-1,4
 163 420 163 420 163 406 c 0,5,6
 163 329 163 329 181.5 267 c 128,-1,7
 200 205 200 205 233.5 160.5 c 128,-1,8
 267 116 267 116 314 92 c 128,-1,9
 361 68 361 68 418 68 c 2,10,-1
 424 68 l 2,11,12
 544 71 544 71 602 174.5 c 128,-1,13
 660 278 660 278 660 471 c 2,14,-1
 660 497 l 2,15,16
 658 551 658 551 652.5 605.5 c 128,-1,17
 647 660 647 660 622 704.5 c 128,-1,18
 597 749 597 749 544.5 777 c 128,-1,19
 492 805 492 805 397 805 c 0,20,21
 388 805 388 805 379 804.5 c 128,-1,22
 370 804 370 804 361 804 c 0,23,24
 338 804 338 804 324.5 816 c 128,-1,25
 311 828 311 828 311 852 c 0,26,27
 311 873 311 873 325 890 c 2,28,-1
 608 1226 l 1,29,-1
 239 1226 l 1,30,-1
 143 1074 l 2,31,32
 125 1046 125 1046 102 1046 c 0,33,34
 78 1046 78 1046 62.5 1061 c 128,-1,35
 47 1076 47 1076 47 1093 c 0,36,37
 47 1106 47 1106 52 1118 c 2,38,-1
 146 1332 l 2,39,40
 152 1346 152 1346 167.5 1355 c 128,-1,41
 183 1364 183 1364 197 1364 c 0,42,43
 220 1364 220 1364 237 1335 c 2,44,-1
 242 1327 l 1,45,-1
 716 1327 l 2,46,47
 767 1327 767 1327 767 1276 c 0,48,49
 767 1255 767 1255 752 1240 c 2,50,-1
 468 902 l 1,51,52
 625 883 625 883 697 774 c 0,53,54
 717 744 717 744 729 710 c 128,-1,55
 741 676 741 676 747.5 640.5 c 128,-1,56
 754 605 754 605 756.5 569 c 128,-1,57
 759 533 759 533 761 499 c 2,58,-1
 761 471 l 2,59,60
 761 226 761 226 674.5 99.5 c 128,-1,61
 588 -27 588 -27 426 -32 c 1,62,-1
 418 -32 l 2,63,64
 338 -32 338 -32 272.5 0.5 c 128,-1,65
 207 33 207 33 160 91 c 128,-1,66
 113 149 113 149 87 229.5 c 128,-1,67
 61 310 61 310 61 406 c 0,68,69
 61 443 61 443 64.5 486.5 c 128,-1,70
 68 530 68 530 78.5 567 c 128,-1,71
 89 604 89 604 108 629 c 128,-1,72
 127 654 127 654 157 654 c 0,73,74
 176 654 176 654 192.5 646 c 128,-1,75
 209 638 209 638 221 624 c 128,-1,76
 233 610 233 610 240 591.5 c 128,-1,77
 247 573 247 573 247 552 c 0,0,1
EndSplineSet
EndChar

StartChar: two
Encoding: 50 50 13
Width: 805
GlyphClass: 1
Flags: W
LayerCount: 2
Fore
SplineSet
561 2 m 1,0,-1
 87 2 l 2,1,2
 36 2 36 2 36 53 c 2,3,-1
 36 59 l 1,4,5
 43 186 43 186 71.5 283.5 c 128,-1,6
 100 381 100 381 146.5 455.5 c 128,-1,7
 193 530 193 530 256.5 584.5 c 128,-1,8
 320 639 320 639 397 680 c 0,9,10
 472 719 472 719 522.5 755 c 128,-1,11
 573 791 573 791 604 831 c 128,-1,12
 635 871 635 871 648.5 919 c 128,-1,13
 662 967 662 967 662 1030 c 0,14,15
 662 1142 662 1142 598 1201.5 c 128,-1,16
 534 1261 534 1261 406 1261 c 0,17,18
 354 1261 354 1261 307 1238.5 c 128,-1,19
 260 1216 260 1216 224.5 1178.5 c 128,-1,20
 189 1141 189 1141 168 1092 c 128,-1,21
 147 1043 147 1043 147 989 c 0,22,23
 147 968 147 968 148 965 c 0,24,25
 191 957 191 957 219.5 928.5 c 128,-1,26
 248 900 248 900 248 858 c 0,27,28
 248 838 248 838 241.5 820.5 c 128,-1,29
 235 803 235 803 224.5 790.5 c 128,-1,30
 214 778 214 778 200.5 770.5 c 128,-1,31
 187 763 187 763 173 763 c 0,32,33
 143 763 143 763 119.5 782.5 c 128,-1,34
 96 802 96 802 79.5 833.5 c 128,-1,35
 63 865 63 865 54 906 c 128,-1,36
 45 947 45 947 45 989 c 0,37,38
 45 1062 45 1062 73.5 1129.5 c 128,-1,39
 102 1197 102 1197 151.5 1248.5 c 128,-1,40
 201 1300 201 1300 266.5 1331 c 128,-1,41
 332 1362 332 1362 406 1362 c 0,42,43
 490 1362 490 1362 556.5 1339 c 128,-1,44
 623 1316 623 1316 668.5 1273 c 128,-1,45
 714 1230 714 1230 738 1169.5 c 128,-1,46
 762 1109 762 1109 762 1034 c 0,47,48
 762 957 762 957 746 895.5 c 128,-1,49
 730 834 730 834 693 781.5 c 128,-1,50
 656 729 656 729 595 683 c 128,-1,51
 534 637 534 637 444 590 c 0,52,53
 370 551 370 551 316.5 504 c 128,-1,54
 263 457 263 457 227 398 c 128,-1,55
 191 339 191 339 170.5 266 c 128,-1,56
 150 193 150 193 141 103 c 1,57,-1
 564 103 l 1,58,-1
 660 256 l 2,59,60
 676 283 676 283 701 283 c 0,61,62
 727 283 727 283 742 267 c 128,-1,63
 757 251 757 251 757 236 c 0,64,65
 757 224 757 224 751 211 c 2,66,-1
 657 -2 l 2,67,68
 647 -20 647 -20 632 -27 c 128,-1,69
 617 -34 617 -34 605 -34 c 0,70,71
 580 -34 580 -34 566 -5 c 1,72,-1
 561 2 l 1,0,-1
EndSplineSet
EndChar

StartChar: one
Encoding: 49 49 14
Width: 561
GlyphClass: 1
Flags: W
LayerCount: 2
Fore
SplineSet
38 908 m 0,0,1
 28 924 28 924 28 939 c 0,2,3
 28 956 28 956 45.5 972 c 128,-1,4
 63 988 63 988 84 988 c 0,5,6
 95 988 95 988 104 980.5 c 128,-1,7
 113 973 113 973 121.5 964 c 128,-1,8
 130 955 130 955 137 947.5 c 128,-1,9
 144 940 144 940 152 940 c 0,10,11
 168 940 168 940 186.5 959 c 128,-1,12
 205 978 205 978 224.5 1008.5 c 128,-1,13
 244 1039 244 1039 263.5 1077 c 128,-1,14
 283 1115 283 1115 300.5 1153.5 c 128,-1,15
 318 1192 318 1192 333 1226.5 c 128,-1,16
 348 1261 348 1261 358 1284 c 0,17,18
 361 1290 361 1290 365.5 1303 c 128,-1,19
 370 1316 370 1316 377.5 1329.5 c 128,-1,20
 385 1343 385 1343 395 1353.5 c 128,-1,21
 405 1364 405 1364 419 1364 c 0,22,23
 445 1364 445 1364 460 1347.5 c 128,-1,24
 475 1331 475 1331 475 1311 c 2,25,-1
 476 103 l 1,26,-1
 551 103 l 2,27,28
 602 103 602 103 602 53 c 0,29,30
 602 2 602 2 551 2 c 2,31,-1
 299 2 l 2,32,33
 249 2 249 2 249 53 c 0,34,35
 249 103 249 103 299 103 c 2,36,-1
 374 103 l 1,37,-1
 374 1073 l 1,38,39
 349 1023 349 1023 322 979.5 c 128,-1,40
 295 936 295 936 266.5 903.5 c 128,-1,41
 238 871 238 871 207.5 852.5 c 128,-1,42
 177 834 177 834 145 834 c 0,43,44
 85 834 85 834 38 908 c 0,0,1
EndSplineSet
EndChar

StartChar: X
Encoding: 88 88 15
Width: 1260
GlyphClass: 1
Flags: W
LayerCount: 2
Fore
SplineSet
943 2 m 2,0,1
 892 2 892 2 892 53 c 0,2,3
 892 103 892 103 943 103 c 2,4,-1
 975 103 l 1,5,-1
 651 711 l 1,6,-1
 288 103 l 1,7,-1
 316 103 l 2,8,9
 367 103 367 103 367 53 c 0,10,11
 367 2 367 2 316 2 c 2,12,-1
 82 2 l 2,13,14
 31 2 31 2 31 53 c 0,15,16
 31 103 31 103 82 103 c 2,17,-1
 170 103 l 1,18,-1
 596 815 l 1,19,-1
 358 1261 l 1,20,-1
 290 1261 l 2,21,22
 239 1261 239 1261 239 1311 c 0,23,24
 239 1362 239 1362 290 1362 c 2,25,-1
 487 1362 l 2,26,27
 538 1362 538 1362 538 1311 c 0,28,29
 538 1261 538 1261 487 1261 c 2,30,-1
 473 1261 l 1,31,-1
 656 917 l 1,32,-1
 862 1261 l 1,33,-1
 853 1261 l 2,34,35
 802 1261 802 1261 802 1311 c 0,36,37
 802 1362 802 1362 853 1362 c 2,38,-1
 1050 1362 l 2,39,40
 1101 1362 1101 1362 1101 1311 c 0,41,42
 1101 1261 1101 1261 1050 1261 c 2,43,-1
 980 1261 l 1,44,-1
 712 812 l 1,45,-1
 1090 103 l 1,46,-1
 1177 103 l 2,47,48
 1227 103 1227 103 1227 53 c 0,49,50
 1227 2 1227 2 1177 2 c 2,51,-1
 943 2 l 2,0,1
EndSplineSet
EndChar

StartChar: x
Encoding: 120 120 16
Width: 809
GlyphClass: 1
Flags: W
LayerCount: 2
Fore
SplineSet
313 781 m 1,0,-1
 404 612 l 1,1,-1
 496 781 l 1,2,3
 452 786 452 786 452 831 c 0,4,5
 452 882 452 882 503 882 c 2,6,-1
 660 882 l 2,7,8
 711 882 711 882 711 831 c 0,9,10
 711 781 711 781 660 781 c 2,11,-1
 611 781 l 1,12,-1
 462 506 l 1,13,-1
 682 103 l 1,14,-1
 722 103 l 2,15,16
 773 103 773 103 773 53 c 0,17,18
 773 2 773 2 722 2 c 2,19,-1
 556 2 l 2,20,21
 505 2 505 2 505 53 c 0,22,23
 505 103 505 103 556 103 c 2,24,-1
 566 103 l 1,25,-1
 404 401 l 1,26,-1
 243 103 l 1,27,-1
 253 103 l 2,28,29
 304 103 304 103 304 53 c 0,30,31
 304 2 304 2 253 2 c 2,32,-1
 87 2 l 2,33,34
 36 2 36 2 36 53 c 0,35,36
 36 103 36 103 87 103 c 2,37,-1
 128 103 l 1,38,-1
 347 506 l 1,39,-1
 198 781 l 1,40,-1
 149 781 l 2,41,42
 98 781 98 781 98 831 c 0,43,44
 98 882 98 882 149 882 c 2,45,-1
 306 882 l 2,46,47
 357 882 357 882 357 831 c 0,48,49
 357 786 357 786 313 781 c 1,0,-1
EndSplineSet
EndChar

StartChar: q
Encoding: 113 113 17
Width: 793
GlyphClass: 1
Flags: W
LayerCount: 2
Fore
SplineSet
686 -160 m 2,0,1
 737 -160 737 -160 737 -211 c 256,2,3
 737 -262 737 -262 686 -262 c 2,4,-1
 467 -262 l 2,5,6
 417 -262 417 -262 417 -211 c 256,7,8
 417 -160 417 -160 467 -160 c 2,9,-1
 529 -160 l 1,10,-1
 529 86 l 1,11,12
 448 -13 448 -13 336 -13 c 0,13,14
 270 -13 270 -13 214 23.5 c 128,-1,15
 158 60 158 60 117 123 c 128,-1,16
 76 186 76 186 52.5 269.5 c 128,-1,17
 29 353 29 353 29 448 c 0,18,19
 29 537 29 537 56 620.5 c 128,-1,20
 83 704 83 704 126.5 768.5 c 128,-1,21
 170 833 170 833 225 871.5 c 128,-1,22
 280 910 280 910 336 910 c 0,23,24
 442 910 442 910 529 785 c 1,25,-1
 529 831 l 2,26,27
 529 882 529 882 580 882 c 2,28,-1
 708 882 l 2,29,30
 758 882 758 882 758 831 c 0,31,32
 758 781 758 781 708 781 c 2,33,-1
 630 781 l 1,34,-1
 630 -160 l 1,35,-1
 686 -160 l 2,0,1
336 808 m 0,36,37
 303 808 303 808 266.5 776.5 c 128,-1,38
 230 745 230 745 199.5 694 c 128,-1,39
 169 643 169 643 149.5 578.5 c 128,-1,40
 130 514 130 514 130 448 c 0,41,42
 130 376 130 376 146.5 310.5 c 128,-1,43
 163 245 163 245 191 195.5 c 128,-1,44
 219 146 219 146 256.5 116.5 c 128,-1,45
 294 87 294 87 336 87 c 256,46,47
 378 87 378 87 413 113.5 c 128,-1,48
 448 140 448 140 474 186.5 c 128,-1,49
 500 233 500 233 514.5 296 c 128,-1,50
 529 359 529 359 529 431 c 0,51,52
 529 500 529 500 512 567.5 c 128,-1,53
 495 635 495 635 468 688.5 c 128,-1,54
 441 742 441 742 406.5 775 c 128,-1,55
 372 808 372 808 336 808 c 0,36,37
EndSplineSet
EndChar

StartChar: p
Encoding: 112 112 18
Width: 793
GlyphClass: 1
Flags: W
LayerCount: 2
Fore
SplineSet
107 -262 m 2,0,1
 57 -262 57 -262 57 -211 c 256,2,3
 57 -160 57 -160 107 -160 c 2,4,-1
 163 -160 l 1,5,-1
 163 781 l 1,6,-1
 86 781 l 2,7,8
 35 781 35 781 35 831 c 0,9,10
 35 882 35 882 86 882 c 2,11,-1
 214 882 l 2,12,13
 265 882 265 882 265 831 c 2,14,-1
 265 785 l 1,15,16
 349 910 349 910 458 910 c 0,17,18
 513 910 513 910 567.5 871.5 c 128,-1,19
 622 833 622 833 665.5 768.5 c 128,-1,20
 709 704 709 704 736.5 621 c 128,-1,21
 764 538 764 538 764 448 c 0,22,23
 764 350 764 350 740 266 c 128,-1,24
 716 182 716 182 674.5 120 c 128,-1,25
 633 58 633 58 577 22.5 c 128,-1,26
 521 -13 521 -13 458 -13 c 0,27,28
 343 -13 343 -13 265 86 c 1,29,-1
 265 -160 l 1,30,-1
 326 -160 l 2,31,32
 377 -160 377 -160 377 -211 c 256,33,34
 377 -262 377 -262 326 -262 c 2,35,-1
 211 -262 l 1,36,-1
 107 -262 l 2,0,1
593 697 m 0,37,38
 524 808 524 808 458 808 c 0,39,40
 422 808 422 808 387 775 c 128,-1,41
 352 742 352 742 325 688.5 c 128,-1,42
 298 635 298 635 281.5 567.5 c 128,-1,43
 265 500 265 500 265 431 c 0,44,45
 265 359 265 359 279.5 296 c 128,-1,46
 294 233 294 233 319.5 186.5 c 128,-1,47
 345 140 345 140 380.5 113.5 c 128,-1,48
 416 87 416 87 458 87 c 256,49,50
 500 87 500 87 537 116 c 128,-1,51
 574 145 574 145 602 194.5 c 128,-1,52
 630 244 630 244 646.5 309.5 c 128,-1,53
 663 375 663 375 663 448 c 0,54,55
 663 585 663 585 593 697 c 0,37,38
EndSplineSet
EndChar

StartChar: U
Encoding: 85 85 19
Width: 1120
GlyphClass: 1
Flags: W
LayerCount: 2
Fore
SplineSet
783 1260 m 2,0,1
 732 1260 732 1260 732 1311 c 256,2,3
 732 1362 732 1362 783 1362 c 2,4,-1
 917 1362 l 2,5,6
 968 1362 968 1362 968 1311 c 2,7,-1
 968 103 l 1,8,-1
 1033 103 l 2,9,10
 1084 103 1084 103 1084 53 c 0,11,12
 1084 2 1084 2 1033 2 c 2,13,-1
 917 2 l 2,14,15
 867 2 867 2 867 53 c 2,16,-1
 867 182 l 1,17,18
 832 135 832 135 795.5 103 c 128,-1,19
 759 71 759 71 718.5 50.5 c 128,-1,20
 678 30 678 30 631.5 21 c 128,-1,21
 585 12 585 12 531 12 c 0,22,23
 422 12 422 12 331.5 49.5 c 128,-1,24
 241 87 241 87 176.5 165.5 c 128,-1,25
 112 244 112 244 76 364.5 c 128,-1,26
 40 485 40 485 40 650 c 0,27,28
 40 752 40 752 51 837.5 c 128,-1,29
 62 923 62 923 85 997.5 c 128,-1,30
 108 1072 108 1072 144 1136.5 c 128,-1,31
 180 1201 180 1201 230 1261 c 1,32,-1
 180 1261 l 2,33,34
 129 1261 129 1261 129 1311 c 0,35,36
 129 1362 129 1362 180 1362 c 2,37,-1
 355 1362 l 2,38,39
 406 1362 406 1362 406 1311 c 0,40,41
 406 1297 406 1297 401.5 1288.5 c 128,-1,42
 397 1280 397 1280 387 1272 c 0,43,44
 260 1168 260 1168 200.5 1021 c 128,-1,45
 141 874 141 874 141 676 c 0,46,47
 141 391 141 391 235 252 c 128,-1,48
 329 113 329 113 529 113 c 0,49,50
 589 113 589 113 638.5 128.5 c 128,-1,51
 688 144 688 144 729.5 179.5 c 128,-1,52
 771 215 771 215 805 273.5 c 128,-1,53
 839 332 839 332 867 418 c 1,54,-1
 867 1260 l 1,55,-1
 783 1260 l 2,0,1
EndSplineSet
EndChar

StartChar: J
Encoding: 74 74 20
Width: 761
GlyphClass: 1
Flags: W
LayerCount: 2
Fore
SplineSet
477 1261 m 2,0,1
 426 1261 426 1261 426 1311 c 0,2,3
 426 1362 426 1362 477 1362 c 2,4,-1
 679 1362 l 2,5,6
 730 1362 730 1362 730 1311 c 0,7,8
 730 1261 730 1261 679 1261 c 2,9,-1
 629 1261 l 1,10,-1
 629 348 l 2,11,12
 629 173 629 173 546.5 82 c 128,-1,13
 464 -9 464 -9 312 -9 c 0,14,15
 253 -9 253 -9 201 8 c 128,-1,16
 149 25 149 25 109.5 57 c 128,-1,17
 70 89 70 89 47 136 c 128,-1,18
 24 183 24 183 24 242 c 0,19,20
 24 291 24 291 35.5 329.5 c 128,-1,21
 47 368 47 368 65.5 394 c 128,-1,22
 84 420 84 420 106 433.5 c 128,-1,23
 128 447 128 447 149 447 c 0,24,25
 180 447 180 447 205.5 417 c 128,-1,26
 231 387 231 387 231 330 c 0,27,28
 231 279 231 279 204.5 248 c 128,-1,29
 178 217 178 217 141 217 c 0,30,31
 139 217 139 217 135.5 217.5 c 128,-1,32
 132 218 132 218 127 219 c 1,33,-1
 127 218 l 1,34,35
 141 157 141 157 189 124 c 128,-1,36
 237 91 237 91 309 91 c 0,37,38
 414 91 414 91 470.5 151.5 c 128,-1,39
 527 212 527 212 527 348 c 2,40,-1
 527 1261 l 1,41,-1
 477 1261 l 2,0,1
EndSplineSet
EndChar

StartChar: i
Encoding: 105 105 21
Width: 361
GlyphClass: 1
Flags: W
LayerCount: 2
Fore
SplineSet
239 1314 m 2,0,1
 251 1339 251 1339 272 1339 c 0,2,3
 292 1339 292 1339 306 1326 c 128,-1,4
 320 1313 320 1313 320 1300 c 0,5,6
 320 1289 320 1289 314 1277 c 2,7,-1
 216 1080 l 2,8,9
 203 1055 203 1055 182 1055 c 256,10,11
 161 1055 161 1055 147.5 1068.5 c 128,-1,12
 134 1082 134 1082 134 1095 c 0,13,14
 134 1106 134 1106 140 1118 c 2,15,-1
 239 1314 l 2,0,1
69 781 m 2,16,17
 18 781 18 781 18 831 c 0,18,19
 18 882 18 882 69 882 c 2,20,-1
 174 882 l 2,21,22
 225 882 225 882 225 831 c 2,23,-1
 225 103 l 1,24,-1
 265 103 l 2,25,26
 316 103 316 103 316 53 c 0,27,28
 316 2 316 2 265 2 c 2,29,-1
 98 2 l 2,30,31
 48 2 48 2 48 53 c 0,32,33
 48 103 48 103 98 103 c 2,34,-1
 123 103 l 1,35,-1
 123 781 l 1,36,-1
 69 781 l 2,16,17
EndSplineSet
EndChar

StartChar: R
Encoding: 82 82 22
Width: 1092
GlyphClass: 1
Flags: W
LayerCount: 2
Fore
SplineSet
89 2 m 2,0,1
 38 2 38 2 38 53 c 0,2,3
 38 103 38 103 89 103 c 2,4,-1
 159 103 l 1,5,-1
 159 1261 l 1,6,-1
 92 1261 l 2,7,8
 42 1261 42 1261 42 1311 c 0,9,10
 42 1362 42 1362 92 1362 c 2,11,-1
 570 1362 l 2,12,13
 654 1359 654 1359 723 1338 c 128,-1,14
 792 1317 792 1317 846 1282.5 c 128,-1,15
 900 1248 900 1248 939.5 1202 c 128,-1,16
 979 1156 979 1156 1005 1104 c 128,-1,17
 1031 1052 1031 1052 1043.5 996 c 128,-1,18
 1056 940 1056 940 1056 885 c 2,19,-1
 1056 872 l 1,20,21
 1045 456 1045 456 752 358 c 1,22,-1
 874 103 l 1,23,-1
 949 103 l 2,24,25
 1000 103 1000 103 1000 53 c 0,26,27
 1000 2 1000 2 949 2 c 2,28,-1
 842 2 l 2,29,30
 806 2 806 2 794 35 c 2,31,-1
 651 334 l 1,32,33
 623 329 623 329 595.5 327.5 c 128,-1,34
 568 326 568 326 542 326 c 0,35,36
 454 326 454 326 381.5 348.5 c 128,-1,37
 309 371 309 371 261 411 c 1,38,-1
 261 103 l 1,39,-1
 321 103 l 2,40,41
 371 103 371 103 371 53 c 0,42,43
 371 2 371 2 321 2 c 2,44,-1
 210 2 l 1,45,-1
 89 2 l 2,0,1
553 1261 m 1,46,-1
 263 1261 l 1,47,-1
 261 563 l 1,48,49
 298 497 298 497 369 462.5 c 128,-1,50
 440 428 440 428 543 428 c 0,51,52
 750 428 750 428 849.5 536 c 128,-1,53
 949 644 949 644 955 874 c 1,54,-1
 955 885 l 2,55,56
 955 964 955 964 928 1031.5 c 128,-1,57
 901 1099 901 1099 850.5 1149 c 128,-1,58
 800 1199 800 1199 728.5 1228.5 c 128,-1,59
 657 1258 657 1258 568 1261 c 2,60,-1
 553 1261 l 1,46,-1
EndSplineSet
EndChar

StartChar: M
Encoding: 77 77 23
Width: 1419
GlyphClass: 1
Flags: W
LayerCount: 2
Fore
SplineSet
383 1261 m 2,0,1
 333 1261 333 1261 333 1311 c 0,2,3
 333 1362 333 1362 383 1362 c 2,4,-1
 488 1362 l 2,5,6
 530 1362 530 1362 538 1321 c 2,7,-1
 735 640 l 1,8,-1
 929 1323 l 2,9,10
 933 1340 933 1340 946 1351 c 128,-1,11
 959 1362 959 1362 979 1362 c 2,12,-1
 1083 1362 l 2,13,14
 1133 1362 1133 1362 1133 1311 c 0,15,16
 1133 1261 1133 1261 1083 1261 c 2,17,-1
 1042 1261 l 1,18,-1
 1296 103 l 1,19,-1
 1335 103 l 2,20,21
 1386 103 1386 103 1386 53 c 0,22,23
 1386 2 1386 2 1335 2 c 2,24,-1
 1113 2 l 2,25,26
 1062 2 1062 2 1062 53 c 0,27,28
 1062 103 1062 103 1113 103 c 2,29,-1
 1192 103 l 1,30,-1
 972 1104 l 1,31,-1
 784 442 l 2,32,33
 773 404 773 404 728 404 c 0,34,35
 698 404 698 404 687 442 c 2,36,-1
 493 1112 l 1,37,-1
 255 103 l 1,38,-1
 287 103 l 2,39,40
 338 103 338 103 338 53 c 0,41,42
 338 2 338 2 287 2 c 2,43,-1
 82 2 l 2,44,45
 31 2 31 2 31 53 c 0,46,47
 31 103 31 103 82 103 c 2,48,-1
 151 103 l 1,49,-1
 424 1261 l 1,50,-1
 383 1261 l 2,0,1
EndSplineSet
EndChar

StartChar: B
Encoding: 66 66 24
Width: 1028
GlyphClass: 1
Flags: W
LayerCount: 2
Fore
SplineSet
257 1261 m 1,0,-1
 257 841 l 1,1,-1
 454 841 l 1,2,3
 599 854 599 854 668 900 c 128,-1,4
 737 946 737 946 737 1037 c 0,5,6
 737 1156 737 1156 677.5 1208.5 c 128,-1,7
 618 1261 618 1261 491 1261 c 2,8,-1
 257 1261 l 1,0,-1
257 739 m 1,9,-1
 257 103 l 1,10,-1
 633 103 l 2,11,12
 766 103 766 103 829 158.5 c 128,-1,13
 892 214 892 214 892 329 c 0,14,15
 892 433 892 433 863.5 508.5 c 128,-1,16
 835 584 835 584 779.5 633.5 c 128,-1,17
 724 683 724 683 643 709 c 128,-1,18
 562 735 562 735 457 740 c 0,19,20
 456 739 456 739 454 739 c 2,21,-1
 257 739 l 1,9,-1
156 103 m 1,22,-1
 156 1261 l 1,23,-1
 97 1261 l 2,24,25
 46 1261 46 1261 46 1311 c 0,26,27
 46 1362 46 1362 97 1362 c 2,28,-1
 491 1362 l 2,29,30
 661 1362 661 1362 749.5 1280 c 128,-1,31
 838 1198 838 1198 838 1034 c 0,32,33
 838 956 838 956 802 894.5 c 128,-1,34
 766 833 766 833 694 800 c 1,35,36
 835 747 835 747 914.5 629 c 128,-1,37
 994 511 994 511 994 329 c 0,38,39
 994 170 994 170 901 86 c 128,-1,40
 808 2 808 2 633 2 c 2,41,-1
 89 2 l 2,42,43
 38 2 38 2 38 53 c 0,44,45
 38 103 38 103 89 103 c 2,46,-1
 156 103 l 1,22,-1
EndSplineSet
EndChar

StartChar: D
Encoding: 68 68 25
Width: 1022
GlyphClass: 1
Flags: W
LayerCount: 2
Fore
SplineSet
98 1261 m 0,0,1
 95 1260 95 1260 87 1260 c 0,2,3
 42 1260 42 1260 42 1315 c 0,4,5
 42 1334 42 1334 54 1344.5 c 128,-1,6
 66 1355 66 1355 84.5 1360.5 c 128,-1,7
 103 1366 103 1366 125.5 1367.5 c 128,-1,8
 148 1369 148 1369 168 1369 c 2,9,-1
 198 1369 l 1,10,-1
 238 1369 l 2,11,12
 421 1369 421 1369 561 1320 c 128,-1,13
 701 1271 701 1271 795.5 1175 c 128,-1,14
 890 1079 890 1079 938.5 937.5 c 128,-1,15
 987 796 987 796 987 612 c 0,16,17
 987 452 987 452 945.5 336.5 c 128,-1,18
 904 221 904 221 829.5 147 c 128,-1,19
 755 73 755 73 651 37.5 c 128,-1,20
 547 2 547 2 422 2 c 2,21,-1
 91 2 l 2,22,23
 40 2 40 2 40 53 c 0,24,25
 40 103 40 103 91 103 c 2,26,-1
 147 103 l 1,27,-1
 147 1265 l 1,28,29
 131 1264 131 1264 118.5 1263 c 128,-1,30
 106 1262 106 1262 98 1261 c 0,0,1
691 1134 m 0,31,32
 534 1264 534 1264 249 1268 c 1,33,-1
 249 103 l 1,34,-1
 422 103 l 2,35,36
 655 103 655 103 770.5 228 c 128,-1,37
 886 353 886 353 886 612 c 0,38,39
 886 970 886 970 691 1134 c 0,31,32
EndSplineSet
EndChar

StartChar: C
Encoding: 67 67 26
Width: 984
GlyphClass: 1
Flags: W
LayerCount: 2
Fore
SplineSet
710 1339 m 1,0,1
 712 1359 712 1359 725.5 1372.5 c 128,-1,2
 739 1386 739 1386 765 1386 c 0,3,4
 798 1386 798 1386 810 1347 c 2,5,-1
 872 1095 l 2,6,7
 873 1090 873 1090 873.5 1086.5 c 128,-1,8
 874 1083 874 1083 874 1079 c 0,9,10
 874 1059 874 1059 859 1045 c 128,-1,11
 844 1031 844 1031 815 1031 c 0,12,13
 798 1031 798 1031 788.5 1040.5 c 128,-1,14
 779 1050 779 1050 774 1069 c 0,15,16
 741 1181 741 1181 679.5 1236 c 128,-1,17
 618 1291 618 1291 530 1296 c 1,18,-1
 510 1296 l 1,19,20
 435 1291 435 1291 367 1241.5 c 128,-1,21
 299 1192 299 1192 247.5 1111.5 c 128,-1,22
 196 1031 196 1031 166 926.5 c 128,-1,23
 136 822 136 822 136 708 c 0,24,25
 136 558 136 558 165.5 439.5 c 128,-1,26
 195 321 195 321 248 239 c 128,-1,27
 301 157 301 157 373 113.5 c 128,-1,28
 445 70 445 70 531 70 c 0,29,30
 604 70 604 70 662 94.5 c 128,-1,31
 720 119 720 119 761 166.5 c 128,-1,32
 802 214 802 214 824.5 282.5 c 128,-1,33
 847 351 847 351 849 439 c 0,34,35
 851 489 851 489 900 489 c 0,36,37
 926 489 926 489 938 475 c 128,-1,38
 950 461 950 461 950 437 c 0,39,40
 948 331 948 331 918.5 245 c 128,-1,41
 889 159 889 159 834.5 98 c 128,-1,42
 780 37 780 37 703 3.5 c 128,-1,43
 626 -30 626 -30 529 -30 c 0,44,45
 421 -30 421 -30 330.5 22 c 128,-1,46
 240 74 240 74 174 170 c 128,-1,47
 108 266 108 266 71.5 402.5 c 128,-1,48
 35 539 35 539 35 709 c 0,49,50
 35 807 35 807 53.5 895.5 c 128,-1,51
 72 984 72 984 104.5 1059.5 c 128,-1,52
 137 1135 137 1135 181.5 1196 c 128,-1,53
 226 1257 226 1257 278 1300.5 c 128,-1,54
 330 1344 330 1344 388 1369 c 128,-1,55
 446 1394 446 1394 505 1397 c 2,56,-1
 534 1397 l 1,57,58
 635 1390 635 1390 710 1339 c 1,0,1
EndSplineSet
EndChar

StartChar: T
Encoding: 84 84 27
Width: 879
GlyphClass: 1
Flags: W
LayerCount: 2
Fore
SplineSet
648 1261 m 1,0,-1
 648 103 l 1,1,-1
 724 103 l 2,2,3
 775 103 775 103 775 53 c 0,4,5
 775 2 775 2 724 2 c 2,6,-1
 470 2 l 2,7,8
 420 2 420 2 420 53 c 0,9,10
 420 103 420 103 470 103 c 2,11,-1
 547 103 l 1,12,-1
 547 1261 l 1,13,-1
 238 1261 l 1,14,-1
 132 1118 l 2,15,16
 114 1094 114 1094 94 1094 c 0,17,18
 75 1094 75 1094 57 1110.5 c 128,-1,19
 39 1127 39 1127 39 1146 c 0,20,21
 40 1154 40 1154 42.5 1162.5 c 128,-1,22
 45 1171 45 1171 51 1179 c 2,23,-1
 170 1338 l 2,24,25
 171 1341 171 1341 175 1345 c 2,26,-1
 188 1363 l 2,27,28
 205 1386 205 1386 226 1386 c 0,29,30
 236 1386 236 1386 250 1379.5 c 128,-1,31
 264 1373 264 1373 271 1362 c 1,32,-1
 924 1362 l 1,33,34
 933 1375 933 1375 945 1380.5 c 128,-1,35
 957 1386 957 1386 967 1386 c 0,36,37
 988 1386 988 1386 1006 1363 c 2,38,-1
 1020 1345 l 2,39,40
 1021 1344 1021 1344 1022 1342.5 c 128,-1,41
 1023 1341 1023 1341 1025 1338 c 2,42,-1
 1144 1179 l 2,43,44
 1150 1171 1150 1171 1152.5 1162.5 c 128,-1,45
 1155 1154 1155 1154 1156 1146 c 0,46,47
 1156 1137 1156 1137 1151 1128 c 128,-1,48
 1146 1119 1146 1119 1137.5 1111.5 c 128,-1,49
 1129 1104 1129 1104 1119 1099 c 128,-1,50
 1109 1094 1109 1094 1100 1094 c 0,51,52
 1080 1094 1080 1094 1062 1118 c 2,53,-1
 956 1261 l 1,54,-1
 648 1261 l 1,0,-1
EndSplineSet
EndChar

StartChar: S
Encoding: 83 83 28
Width: 1055
GlyphClass: 1
Flags: W
LayerCount: 2
Fore
SplineSet
730 1298 m 2,0,1
 726 1307 726 1307 726 1318 c 0,2,3
 726 1335 726 1335 741 1349 c 128,-1,4
 756 1363 756 1363 785 1363 c 0,5,6
 816 1363 816 1363 827 1325 c 2,7,-1
 897 1081 l 2,8,9
 900 1069 900 1069 900 1061 c 0,10,11
 900 1042 900 1042 885 1028 c 128,-1,12
 870 1014 870 1014 842 1014 c 0,13,14
 825 1014 825 1014 815.5 1023.5 c 128,-1,15
 806 1033 806 1033 800 1053 c 0,16,17
 771 1149 771 1149 682 1206 c 128,-1,18
 593 1263 593 1263 444 1263 c 0,19,20
 391 1263 391 1263 346 1247.5 c 128,-1,21
 301 1232 301 1232 268 1203.5 c 128,-1,22
 235 1175 235 1175 216.5 1134 c 128,-1,23
 198 1093 198 1093 198 1042 c 0,24,25
 198 1000 198 1000 228 962.5 c 128,-1,26
 258 925 258 925 311 891.5 c 128,-1,27
 364 858 364 858 437.5 827.5 c 128,-1,28
 511 797 511 797 598 770 c 0,29,30
 800 703 800 703 904.5 594.5 c 128,-1,31
 1009 486 1009 486 1009 342 c 0,32,33
 1009 256 1009 256 979.5 189 c 128,-1,34
 950 122 950 122 897.5 76.5 c 128,-1,35
 845 31 845 31 772.5 7 c 128,-1,36
 700 -17 700 -17 615 -17 c 0,37,38
 498 -15 498 -15 404.5 19.5 c 128,-1,39
 311 54 311 54 226 122 c 1,40,-1
 230 111 l 2,41,42
 233 99 233 99 233 90 c 0,43,44
 233 72 233 72 218 57.5 c 128,-1,45
 203 43 203 43 175 43 c 0,46,47
 145 43 145 43 133 80 c 2,48,-1
 45 353 l 2,49,50
 42 363 42 363 42 372 c 0,51,52
 42 392 42 392 59 407 c 128,-1,53
 76 422 76 422 97 422 c 0,54,55
 121 422 121 422 137 394 c 0,56,57
 176 325 176 325 225 267.5 c 128,-1,58
 274 210 274 210 334.5 169 c 128,-1,59
 395 128 395 128 469 105.5 c 128,-1,60
 543 83 543 83 632 83 c 0,61,62
 692 83 692 83 742 100 c 128,-1,63
 792 117 792 117 829 150 c 128,-1,64
 866 183 866 183 886.5 230.5 c 128,-1,65
 907 278 907 278 907 340 c 0,66,67
 907 449 907 449 821.5 533 c 128,-1,68
 736 617 736 617 566 674 c 0,69,70
 460 708 460 708 373.5 746 c 128,-1,71
 287 784 287 784 225.5 828 c 128,-1,72
 164 872 164 872 130.5 924.5 c 128,-1,73
 97 977 97 977 97 1041 c 0,74,75
 97 1113 97 1113 123.5 1172.5 c 128,-1,76
 150 1232 150 1232 196.5 1274.5 c 128,-1,77
 243 1317 243 1317 306 1340.5 c 128,-1,78
 369 1364 369 1364 442 1364 c 0,79,80
 529 1364 529 1364 602.5 1345 c 128,-1,81
 676 1326 676 1326 731 1294 c 1,82,-1
 730 1298 l 2,0,1
EndSplineSet
EndChar

StartChar: d
Encoding: 100 100 29
Width: 712
GlyphClass: 1
Flags: W
LayerCount: 2
Fore
SplineSet
422 1261 m 2,0,1
 371 1261 371 1261 371 1311 c 0,2,3
 371 1362 371 1362 422 1362 c 2,4,-1
 536 1362 l 2,5,6
 587 1362 587 1362 587 1311 c 2,7,-1
 587 103 l 1,8,-1
 629 103 l 2,9,10
 679 103 679 103 679 53 c 0,11,12
 679 2 679 2 629 2 c 2,13,-1
 536 2 l 2,14,15
 511 2 511 2 496 22 c 1,16,17
 477 3 477 3 437 -6 c 128,-1,18
 397 -15 397 -15 352 -16 c 2,19,-1
 349 -16 l 2,20,21
 199 -16 199 -16 113 95.5 c 128,-1,22
 27 207 27 207 24 422 c 2,23,-1
 24 437 l 2,24,25
 24 482 24 482 30 532.5 c 128,-1,26
 36 583 36 583 50.5 632 c 128,-1,27
 65 681 65 681 89 726 c 128,-1,28
 113 771 113 771 149.5 805 c 128,-1,29
 186 839 186 839 236 860 c 128,-1,30
 286 881 286 881 351 882 c 2,31,-1
 355 882 l 2,32,33
 419 882 419 882 486 848 c 1,34,-1
 486 1261 l 1,35,-1
 422 1261 l 2,0,1
486 174 m 1,36,-1
 486 715 l 2,37,38
 486 724 486 724 472.5 735.5 c 128,-1,39
 459 747 459 747 439 757 c 128,-1,40
 419 767 419 767 396 774 c 128,-1,41
 373 781 373 781 355 781 c 2,42,-1
 352 781 l 2,43,44
 287 780 287 780 243 747.5 c 128,-1,45
 199 715 199 715 173 665 c 128,-1,46
 147 615 147 615 136 554.5 c 128,-1,47
 125 494 125 494 125 437 c 2,48,-1
 125 424 l 2,49,50
 128 258 128 258 183.5 171 c 128,-1,51
 239 84 239 84 348 84 c 2,52,-1
 351 84 l 2,53,54
 381 85 381 85 401.5 89.5 c 128,-1,55
 422 94 422 94 437 104 c 128,-1,56
 452 114 452 114 463 131 c 128,-1,57
 474 148 474 148 486 174 c 1,36,-1
EndSplineSet
EndChar

StartChar: k
Encoding: 107 107 30
Width: 810
GlyphClass: 1
Flags: W
LayerCount: 2
Fore
SplineSet
102 1261 m 2,0,1
 51 1261 51 1261 51 1311 c 0,2,3
 51 1362 51 1362 102 1362 c 2,4,-1
 212 1362 l 2,5,6
 263 1362 263 1362 263 1311 c 2,7,-1
 263 643 l 1,8,-1
 391 782 l 1,9,10
 351 789 351 789 351 831 c 0,11,12
 351 882 351 882 402 882 c 2,13,-1
 671 882 l 2,14,15
 722 882 722 882 722 831 c 0,16,17
 722 781 722 781 671 781 c 2,18,-1
 527 781 l 1,19,-1
 418 661 l 1,20,-1
 639 103 l 1,21,-1
 743 103 l 2,22,23
 793 103 793 103 793 53 c 0,24,25
 793 2 793 2 743 2 c 2,26,-1
 465 2 l 2,27,28
 415 2 415 2 415 53 c 0,29,30
 415 103 415 103 465 103 c 2,31,-1
 529 103 l 1,32,-1
 341 578 l 1,33,-1
 263 493 l 1,34,-1
 263 103 l 1,35,-1
 299 103 l 2,36,37
 350 103 350 103 350 53 c 0,38,39
 350 2 350 2 299 2 c 2,40,-1
 86 2 l 2,41,42
 35 2 35 2 35 53 c 0,43,44
 35 103 35 103 86 103 c 2,45,-1
 162 103 l 1,46,-1
 162 1261 l 1,47,-1
 102 1261 l 2,0,1
EndSplineSet
EndChar

StartChar: O
Encoding: 79 79 31
Width: 1099
GlyphClass: 1
Flags: W
LayerCount: 2
Fore
SplineSet
575 1396 m 0,0,1
 678 1396 678 1396 767.5 1342.5 c 128,-1,2
 857 1289 857 1289 923 1197.5 c 128,-1,3
 989 1106 989 1106 1027 983.5 c 128,-1,4
 1065 861 1065 861 1065 722 c 0,5,6
 1065 620 1065 620 1045.5 525.5 c 128,-1,7
 1026 431 1026 431 990 348 c 128,-1,8
 954 265 954 265 904.5 196.5 c 128,-1,9
 855 128 855 128 795 79 c 128,-1,10
 735 30 735 30 666.5 3 c 128,-1,11
 598 -24 598 -24 525 -24 c 2,12,-1
 510 -24 l 1,13,14
 407 -19 407 -19 320 36 c 128,-1,15
 233 91 233 91 169.5 182 c 128,-1,16
 106 273 106 273 70.5 393.5 c 128,-1,17
 35 514 35 514 35 649 c 0,18,19
 35 807 35 807 76.5 938.5 c 128,-1,20
 118 1070 118 1070 199 1182 c 0,21,22
 356 1396 356 1396 575 1396 c 0,0,1
586 1294 m 1,23,-1
 575 1294 l 2,24,25
 514 1294 514 1294 458 1269.5 c 128,-1,26
 402 1245 402 1245 353 1201 c 128,-1,27
 304 1157 304 1157 264 1096 c 128,-1,28
 224 1035 224 1035 195.5 963.5 c 128,-1,29
 167 892 167 892 151.5 812 c 128,-1,30
 136 732 136 732 136 649 c 0,31,32
 136 533 136 533 165 430 c 128,-1,33
 194 327 194 327 245 249 c 128,-1,34
 296 171 296 171 365 125 c 128,-1,35
 434 79 434 79 514 77 c 2,36,-1
 525 77 l 2,37,38
 610 77 610 77 687 126 c 128,-1,39
 764 175 764 175 824 258.5 c 128,-1,40
 884 342 884 342 921 452.5 c 128,-1,41
 958 563 958 563 963 687 c 1,42,-1
 963 722 l 2,43,44
 963 836 963 836 934 938.5 c 128,-1,45
 905 1041 905 1041 854.5 1118.5 c 128,-1,46
 804 1196 804 1196 735 1243 c 128,-1,47
 666 1290 666 1290 586 1294 c 1,23,-1
EndSplineSet
EndChar

StartChar: y
Encoding: 121 121 32
Width: 887
GlyphClass: 1
Flags: W
LayerCount: 2
Fore
SplineSet
637 781 m 2,0,1
 586 781 586 781 586 831 c 0,2,3
 586 882 586 882 637 882 c 2,4,-1
 816 882 l 2,5,6
 867 882 867 882 867 831 c 0,7,8
 867 781 867 781 816 781 c 2,9,-1
 744 781 l 1,10,-1
 538 60 l 1,11,-1
 538 53 l 2,12,13
 538 32 538 32 526 20 c 1,14,-1
 498 -77 l 2,15,16
 457 -218 457 -218 387 -294.5 c 128,-1,17
 317 -371 317 -371 220 -371 c 0,18,19
 182 -371 182 -371 150 -356.5 c 128,-1,20
 118 -342 118 -342 94 -317 c 128,-1,21
 70 -292 70 -292 55.5 -260 c 128,-1,22
 41 -228 41 -228 39 -192 c 0,23,24
 39 -141 39 -141 48.5 -119.5 c 128,-1,25
 58 -98 58 -98 85 -98 c 0,26,27
 114 -98 114 -98 128.5 -111 c 128,-1,28
 143 -124 143 -124 143 -144 c 0,29,30
 143 -152 143 -152 141.5 -161 c 128,-1,31
 140 -170 140 -170 140 -186 c 0,32,33
 142 -218 142 -218 160 -239.5 c 128,-1,34
 178 -261 178 -261 208 -269 c 1,35,-1
 226 -269 l 1,36,37
 340 -260 340 -260 401 -49 c 2,38,-1
 416 2 l 1,39,40
 398 4 398 4 388 12.5 c 128,-1,41
 378 21 378 21 373 37 c 2,42,-1
 128 781 l 1,43,-1
 90 781 l 2,44,45
 39 781 39 781 39 831 c 0,46,47
 39 882 39 882 90 882 c 2,48,-1
 269 882 l 2,49,50
 319 882 319 882 319 831 c 0,51,52
 319 781 319 781 269 781 c 2,53,-1
 235 781 l 1,54,-1
 451 124 l 1,55,-1
 638 781 l 1,56,-1
 637 781 l 2,0,1
EndSplineSet
EndChar

StartChar: colon
Encoding: 58 58 33
Width: 301
GlyphClass: 1
Flags: W
LayerCount: 2
Fore
SplineSet
114 29 m 2,0,1
 100 9 100 9 82 9 c 0,2,3
 65 9 65 9 50.5 22.5 c 128,-1,4
 36 36 36 36 36 51 c 0,5,6
 36 63 36 63 44 76 c 2,7,-1
 187 287 l 2,8,9
 202 308 202 308 218 308 c 0,10,11
 226 308 226 308 234.5 304 c 128,-1,12
 243 300 243 300 249.5 293.5 c 128,-1,13
 256 287 256 287 260.5 279.5 c 128,-1,14
 265 272 265 272 265 265 c 0,15,16
 265 252 265 252 256 239 c 2,17,-1
 114 29 l 2,0,1
114 267 m 2,18,19
 107 258 107 258 98.5 251.5 c 128,-1,20
 90 245 90 245 81 245 c 0,21,22
 74 245 74 245 66 249 c 128,-1,23
 58 253 58 253 51 259 c 128,-1,24
 44 265 44 265 39.5 272.5 c 128,-1,25
 35 280 35 280 35 287 c 0,26,27
 35 299 35 299 44 314 c 2,28,-1
 187 524 l 2,29,30
 199 545 199 545 218 545 c 0,31,32
 235 545 235 545 250 531.5 c 128,-1,33
 265 518 265 518 265 503 c 0,34,35
 265 490 265 490 256 477 c 2,36,-1
 114 267 l 2,18,19
EndSplineSet
EndChar

StartChar: comma
Encoding: 44 44 34
Width: 258
GlyphClass: 1
Flags: W
LayerCount: 2
Fore
SplineSet
113 -101 m 0,0,1
 98 -113 98 -113 84 -113 c 0,2,3
 69 -113 69 -113 55 -99 c 128,-1,4
 41 -85 41 -85 41 -68 c 0,5,6
 41 -59 41 -59 49.5 -47 c 128,-1,7
 58 -35 58 -35 70 -22.5 c 128,-1,8
 82 -10 82 -10 93.5 2.5 c 128,-1,9
 105 15 105 15 111 24 c 1,10,11
 82 35 82 35 67 61.5 c 128,-1,12
 52 88 52 88 52 117 c 0,13,14
 52 136 52 136 59 154 c 128,-1,15
 66 172 66 172 78 185.5 c 128,-1,16
 90 199 90 199 106.5 207 c 128,-1,17
 123 215 123 215 142 215 c 0,18,19
 160 215 160 215 176 207.5 c 128,-1,20
 192 200 192 200 204 186.5 c 128,-1,21
 216 173 216 173 223.5 155.5 c 128,-1,22
 231 138 231 138 231 117 c 0,23,24
 231 86 231 86 221 56 c 128,-1,25
 211 26 211 26 194.5 -2 c 128,-1,26
 178 -30 178 -30 156.5 -55 c 128,-1,27
 135 -80 135 -80 113 -101 c 0,0,1
EndSplineSet
EndChar

StartChar: Thorn
Encoding: 222 222 35
Width: 793
GlyphClass: 1
Flags: W
LayerCount: 2
Fore
SplineSet
131 1252 m 2,0,1
 80 1252 80 1252 80 1302 c 0,2,3
 80 1353 80 1353 131 1353 c 2,4,-1
 215 1353 l 2,5,6
 266 1353 266 1353 266 1302 c 2,7,-1
 265 1037 l 1,8,9
 349 1162 349 1162 458 1162 c 0,10,11
 513 1162 513 1162 567.5 1123.5 c 128,-1,12
 622 1085 622 1085 665.5 1020.5 c 128,-1,13
 709 956 709 956 736.5 873 c 128,-1,14
 764 790 764 790 764 700 c 0,15,16
 764 602 764 602 740 518 c 128,-1,17
 716 434 716 434 674.5 372 c 128,-1,18
 633 310 633 310 577 274.5 c 128,-1,19
 521 239 521 239 458 239 c 0,20,21
 343 239 343 239 265 338 c 1,22,-1
 265 92 l 1,23,-1
 326 92 l 2,24,25
 377 92 377 92 377 41 c 256,26,27
 377 -10 377 -10 326 -10 c 2,28,-1
 107 -10 l 2,29,30
 57 -10 57 -10 57 41 c 256,31,32
 57 92 57 92 107 92 c 2,33,-1
 163 92 l 1,34,-1
 163 1252 l 1,35,-1
 131 1252 l 2,0,1
593 949 m 0,36,37
 524 1060 524 1060 458 1060 c 0,38,39
 422 1060 422 1060 387 1027 c 128,-1,40
 352 994 352 994 325 940.5 c 128,-1,41
 298 887 298 887 281.5 819.5 c 128,-1,42
 265 752 265 752 265 683 c 0,43,44
 265 611 265 611 279.5 548 c 128,-1,45
 294 485 294 485 319.5 438.5 c 128,-1,46
 345 392 345 392 380.5 365.5 c 128,-1,47
 416 339 416 339 458 339 c 256,48,49
 500 339 500 339 537 368 c 128,-1,50
 574 397 574 397 602 446.5 c 128,-1,51
 630 496 630 496 646.5 561.5 c 128,-1,52
 663 627 663 627 663 700 c 0,53,54
 663 837 663 837 593 949 c 0,36,37
EndSplineSet
EndChar

StartChar: I
Encoding: 73 73 36
Width: 360
GlyphClass: 1
Flags: W
LayerCount: 2
Fore
SplineSet
81 1261 m 2,0,1
 30 1261 30 1261 30 1311 c 0,2,3
 30 1362 30 1362 81 1362 c 2,4,-1
 279 1362 l 2,5,6
 330 1362 330 1362 330 1311 c 0,7,8
 330 1261 330 1261 279 1261 c 2,9,-1
 231 1261 l 1,10,-1
 231 103 l 1,11,-1
 279 103 l 2,12,13
 330 103 330 103 330 53 c 0,14,15
 330 2 330 2 279 2 c 2,16,-1
 81 2 l 2,17,18
 30 2 30 2 30 53 c 0,19,20
 30 103 30 103 81 103 c 2,21,-1
 129 103 l 1,22,-1
 129 1261 l 1,23,-1
 81 1261 l 2,0,1
EndSplineSet
EndChar

StartChar: K
Encoding: 75 75 37
Width: 1099
GlyphClass: 1
Flags: W
LayerCount: 2
Fore
SplineSet
89 1261 m 2,0,1
 38 1261 38 1261 38 1311 c 0,2,3
 38 1362 38 1362 89 1362 c 2,4,-1
 287 1362 l 2,5,6
 338 1362 338 1362 338 1311 c 0,7,8
 338 1261 338 1261 287 1261 c 2,9,-1
 239 1261 l 1,10,-1
 239 719 l 1,11,-1
 388 912 l 2,12,13
 388 913 388 913 389.5 914.5 c 128,-1,14
 391 916 391 916 392 918 c 2,15,-1
 658 1261 l 1,16,-1
 628 1261 l 2,17,18
 577 1261 577 1261 577 1311 c 0,19,20
 577 1362 577 1362 628 1362 c 2,21,-1
 894 1362 l 2,22,23
 945 1362 945 1362 945 1311 c 0,24,25
 945 1261 945 1261 894 1261 c 2,26,-1
 786 1261 l 1,27,-1
 490 879 l 1,28,-1
 902 103 l 1,29,-1
 1018 103 l 2,30,31
 1069 103 1069 103 1069 53 c 0,32,33
 1069 2 1069 2 1018 2 c 2,34,-1
 725 2 l 2,35,36
 674 2 674 2 674 53 c 0,37,38
 674 103 674 103 725 103 c 2,39,-1
 787 103 l 1,40,-1
 422 791 l 1,41,-1
 239 554 l 1,42,-1
 239 103 l 1,43,-1
 287 103 l 2,44,45
 338 103 338 103 338 53 c 0,46,47
 338 2 338 2 287 2 c 2,48,-1
 89 2 l 2,49,50
 38 2 38 2 38 53 c 0,51,52
 38 103 38 103 89 103 c 2,53,-1
 137 103 l 1,54,-1
 137 1261 l 1,55,-1
 89 1261 l 2,0,1
EndSplineSet
EndChar

StartChar: Ha
Encoding: 65540 -1 38
Width: 968
GlyphClass: 1
Flags: W
LayerCount: 2
Fore
SplineSet
729 507 m 1,0,1
 709 604 709 604 644 663 c 128,-1,2
 579 722 579 722 473 735 c 0,3,4
 425 741 425 741 383 748 c 128,-1,5
 341 755 341 755 306 766 c 1,6,-1
 306 103 l 1,7,-1
 354 103 l 2,8,9
 405 103 405 103 405 53 c 0,10,11
 405 2 405 2 354 2 c 2,12,-1
 155 2 l 2,13,14
 105 2 105 2 105 53 c 0,15,16
 105 103 105 103 155 103 c 2,17,-1
 204 103 l 1,18,-1
 204 805 l 1,19,20
 181 816 181 816 154 834 c 128,-1,21
 127 852 127 852 103.5 873.5 c 128,-1,22
 80 895 80 895 64 918 c 128,-1,23
 48 941 48 941 48 962 c 0,24,25
 48 971 48 971 53 980 c 128,-1,26
 58 989 58 989 66 996.5 c 128,-1,27
 74 1004 74 1004 83.5 1008.5 c 128,-1,28
 93 1013 93 1013 103 1013 c 0,29,30
 114 1013 114 1013 126 1002.5 c 128,-1,31
 138 992 138 992 151 977.5 c 128,-1,32
 164 963 164 963 177 948 c 128,-1,33
 190 933 190 933 204 923 c 1,34,-1
 204 1261 l 1,35,-1
 155 1261 l 2,36,37
 105 1261 105 1261 105 1311 c 0,38,39
 105 1362 105 1362 155 1362 c 2,40,-1
 354 1362 l 2,41,42
 405 1362 405 1362 405 1311 c 0,43,44
 405 1261 405 1261 354 1261 c 2,45,-1
 306 1261 l 1,46,-1
 306 872 l 1,47,48
 339 861 339 861 383.5 851.5 c 128,-1,49
 428 842 428 842 485 835 c 0,50,51
 633 817 633 817 729 721 c 1,52,-1
 729 1261 l 1,53,-1
 681 1261 l 2,54,55
 630 1261 630 1261 630 1311 c 0,56,57
 630 1362 630 1362 681 1362 c 2,58,-1
 879 1362 l 2,59,60
 930 1362 930 1362 930 1311 c 0,61,62
 930 1261 930 1261 879 1261 c 2,63,-1
 831 1261 l 1,64,-1
 831 103 l 1,65,-1
 879 103 l 2,66,67
 930 103 930 103 930 53 c 0,68,69
 930 2 930 2 879 2 c 2,70,-1
 681 2 l 2,71,72
 630 2 630 2 630 53 c 0,73,74
 630 103 630 103 681 103 c 2,75,-1
 729 103 l 1,76,-1
 729 507 l 1,0,1
EndSplineSet
EndChar

StartChar: yen
Encoding: 165 165 39
Width: 1075
GlyphClass: 1
Flags: W
LayerCount: 2
Fore
SplineSet
70 781 m 2,0,1
 19 781 19 781 19 831 c 0,2,3
 19 882 19 882 70 882 c 2,4,-1
 408 882 l 2,5,6
 458 882 458 882 458 831 c 0,7,8
 458 781 458 781 408 781 c 2,9,-1
 309 781 l 1,10,-1
 522 158 l 1,11,-1
 891 633 l 2,12,13
 917 664 917 664 928.5 701.5 c 128,-1,14
 940 739 940 739 940 790 c 0,15,16
 940 837 940 837 928.5 877 c 128,-1,17
 917 917 917 917 896 946.5 c 128,-1,18
 875 976 875 976 845 993 c 128,-1,19
 815 1010 815 1010 779 1012 c 2,20,-1
 772 1012 l 2,21,22
 743 1011 743 1011 716 994 c 128,-1,23
 689 977 689 977 668 951 c 128,-1,24
 647 925 647 925 634.5 894 c 128,-1,25
 622 863 622 863 622 834 c 2,26,-1
 622 833 l 2,27,28
 622 788 622 788 633 762 c 128,-1,29
 644 736 644 736 658 736 c 2,30,-1
 660 736 l 2,31,32
 663 737 663 737 672 737 c 0,33,34
 692 737 692 737 704 723.5 c 128,-1,35
 716 710 716 710 716 684 c 0,36,37
 716 635 716 635 663 635 c 2,38,-1
 662 635 l 2,39,40
 659 635 659 635 656.5 634.5 c 128,-1,41
 654 634 654 634 652 634 c 0,42,43
 592 634 592 634 560.5 683.5 c 128,-1,44
 529 733 529 733 521 829 c 1,45,-1
 521 852 l 2,46,47
 523 899 523 899 545 945 c 128,-1,48
 567 991 567 991 601.5 1028 c 128,-1,49
 636 1065 636 1065 679.5 1088 c 128,-1,50
 723 1111 723 1111 768 1113 c 2,51,-1
 785 1113 l 2,52,53
 846 1110 846 1110 894 1082.5 c 128,-1,54
 942 1055 942 1055 975 1010 c 128,-1,55
 1008 965 1008 965 1025 907.5 c 128,-1,56
 1042 850 1042 850 1042 787 c 0,57,58
 1041 718 1041 718 1023 666.5 c 128,-1,59
 1005 615 1005 615 971 571 c 2,60,-1
 544 22 l 2,61,62
 534 10 534 10 522 6 c 128,-1,63
 510 2 510 2 499 2 c 0,64,65
 468 2 468 2 456 36 c 2,66,-1
 203 781 l 1,67,-1
 70 781 l 2,0,1
EndSplineSet
EndChar

StartChar: P
Encoding: 80 80 40
Width: 1083
GlyphClass: 1
Flags: W
LayerCount: 2
Fore
SplineSet
88 2 m 2,0,1
 37 2 37 2 37 53 c 0,2,3
 37 103 37 103 88 103 c 2,4,-1
 158 103 l 1,5,-1
 158 1261 l 1,6,-1
 91 1261 l 2,7,8
 41 1261 41 1261 41 1311 c 0,9,10
 41 1362 41 1362 91 1362 c 2,11,-1
 566 1362 l 2,12,13
 694 1359 694 1359 786.5 1311.5 c 128,-1,14
 879 1264 879 1264 938.5 1190 c 128,-1,15
 998 1116 998 1116 1026.5 1025 c 128,-1,16
 1055 934 1055 934 1055 844 c 2,17,-1
 1055 830 l 1,18,19
 1049 538 1049 538 921 387.5 c 128,-1,20
 793 237 793 237 540 237 c 0,21,22
 372 237 372 237 260 328 c 1,23,-1
 260 103 l 1,24,-1
 320 103 l 2,25,26
 370 103 370 103 370 53 c 0,27,28
 370 2 370 2 320 2 c 2,29,-1
 209 2 l 1,30,-1
 88 2 l 2,0,1
552 1261 m 1,31,-1
 259 1261 l 1,32,-1
 260 489 l 1,33,34
 335 339 335 339 544 339 c 0,35,36
 751 339 751 339 849.5 459 c 128,-1,37
 948 579 948 579 954 833 c 1,38,-1
 954 844 l 2,39,40
 954 931 954 931 927 1006 c 128,-1,41
 900 1081 900 1081 849.5 1137 c 128,-1,42
 799 1193 799 1193 727 1226 c 128,-1,43
 655 1259 655 1259 565 1261 c 2,44,-1
 552 1261 l 1,31,-1
EndSplineSet
EndChar

StartChar: dieresis
Encoding: 168 168 41
Width: 407
GlyphClass: 1
Flags: W
LayerCount: 2
Fore
SplineSet
138 1332 m 0,0,1
 152 1364 152 1364 178 1364 c 0,2,3
 202 1364 202 1364 219 1349 c 128,-1,4
 236 1334 236 1334 236 1316 c 0,5,6
 236 1300 236 1300 214 1257.5 c 128,-1,7
 192 1215 192 1215 142 1129 c 0,8,9
 77 1019 77 1019 54 1019 c 0,10,11
 43 1019 43 1019 43 1040 c 0,12,13
 43 1053 43 1053 49.5 1078 c 128,-1,14
 56 1103 56 1103 65.5 1133.5 c 128,-1,15
 75 1164 75 1164 87 1197 c 128,-1,16
 99 1230 99 1230 109.5 1258 c 128,-1,17
 120 1286 120 1286 128 1306 c 128,-1,18
 136 1326 136 1326 138 1332 c 0,0,1
271 1332 m 0,19,20
 285 1364 285 1364 310 1364 c 256,21,22
 335 1364 335 1364 352 1348.5 c 128,-1,23
 369 1333 369 1333 369 1317 c 0,24,25
 369 1309 369 1309 363.5 1295 c 128,-1,26
 358 1281 358 1281 346.5 1259 c 128,-1,27
 335 1237 335 1237 317 1205.5 c 128,-1,28
 299 1174 299 1174 274 1129 c 0,29,30
 212 1019 212 1019 187 1019 c 0,31,32
 175 1019 175 1019 175 1042 c 0,33,34
 175 1056 175 1056 181.5 1081.5 c 128,-1,35
 188 1107 188 1107 197.5 1137.5 c 128,-1,36
 207 1168 207 1168 219 1200 c 128,-1,37
 231 1232 231 1232 241.5 1259.5 c 128,-1,38
 252 1287 252 1287 260 1306.5 c 128,-1,39
 268 1326 268 1326 271 1332 c 0,19,20
EndSplineSet
EndChar

StartChar: f
Encoding: 102 102 42
Width: 465
GlyphClass: 1
Flags: W
LayerCount: 2
Fore
SplineSet
661 1317 m 1,0,1
 663 1337 663 1337 677 1350 c 128,-1,2
 691 1363 691 1363 717 1363 c 0,3,4
 751 1363 751 1363 760 1322 c 2,5,-1
 801 1123 l 2,6,7
 802 1118 802 1118 802.5 1114.5 c 128,-1,8
 803 1111 803 1111 803 1107 c 0,9,10
 803 1088 803 1088 789.5 1075 c 128,-1,11
 776 1062 776 1062 749 1062 c 0,12,13
 720 1062 720 1062 706 1091 c 0,14,15
 682 1139 682 1139 660 1171.5 c 128,-1,16
 638 1204 638 1204 615.5 1224 c 128,-1,17
 593 1244 593 1244 568 1253 c 128,-1,18
 543 1262 543 1262 514 1262 c 0,19,20
 451 1262 451 1262 402.5 1241.5 c 128,-1,21
 354 1221 354 1221 320.5 1185.5 c 128,-1,22
 287 1150 287 1150 269.5 1102.5 c 128,-1,23
 252 1055 252 1055 252 1000 c 2,24,-1
 252 898 l 1,25,-1
 337 897 l 2,26,27
 387 895 387 895 387 846 c 0,28,29
 387 794 387 794 336 796 c 2,30,-1
 252 797 l 1,31,-1
 252 103 l 1,32,-1
 309 103 l 2,33,34
 359 103 359 103 359 53 c 0,35,36
 359 2 359 2 309 2 c 2,37,-1
 101 2 l 2,38,39
 50 2 50 2 50 53 c 0,40,41
 50 103 50 103 101 103 c 2,42,-1
 150 103 l 1,43,-1
 150 798 l 1,44,-1
 80 799 l 2,45,46
 30 799 30 799 30 849 c 256,47,48
 30 899 30 899 81 899 c 2,49,-1
 150 899 l 1,50,-1
 150 1000 l 2,51,52
 150 1072 150 1072 172 1134 c 128,-1,53
 194 1196 194 1196 236.5 1243 c 128,-1,54
 279 1290 279 1290 340.5 1321 c 128,-1,55
 402 1352 402 1352 482 1362 c 0,56,57
 490 1363 490 1363 497.5 1363.5 c 128,-1,58
 505 1364 505 1364 513 1364 c 0,59,60
 593 1364 593 1364 661 1317 c 1,0,1
EndSplineSet
EndChar

StartChar: V
Encoding: 86 86 43
Width: 999
GlyphClass: 1
Flags: W
LayerCount: 2
Fore
SplineSet
266 1261 m 1,0,-1
 590 208 l 1,1,-1
 989 1261 l 1,2,-1
 911 1261 l 2,3,4
 861 1261 861 1261 861 1311 c 0,5,6
 861 1362 861 1362 911 1362 c 2,7,-1
 1166 1362 l 2,8,9
 1217 1362 1217 1362 1217 1311 c 0,10,11
 1217 1261 1217 1261 1166 1261 c 2,12,-1
 1097 1261 l 1,13,-1
 632 35 l 2,14,15
 625 18 625 18 611.5 9.5 c 128,-1,16
 598 1 598 1 581 1 c 0,17,18
 549 1 549 1 537 38 c 2,19,-1
 160 1261 l 1,20,-1
 75 1261 l 2,21,22
 24 1261 24 1261 24 1311 c 0,23,24
 24 1362 24 1362 75 1362 c 2,25,-1
 318 1362 l 2,26,27
 369 1362 369 1362 369 1311 c 0,28,29
 369 1261 369 1261 318 1261 c 2,30,-1
 266 1261 l 1,0,-1
EndSplineSet
EndChar

StartChar: G
Encoding: 71 71 44
Width: 1033
GlyphClass: 1
Flags: W
LayerCount: 2
Fore
SplineSet
806 1362 m 1,0,1
 806 1364 806 1364 805.5 1366 c 128,-1,2
 805 1368 805 1368 805 1370 c 0,3,4
 805 1390 805 1390 820.5 1404 c 128,-1,5
 836 1418 836 1418 862 1418 c 0,6,7
 892 1418 892 1418 904 1381 c 2,8,-1
 977 1158 l 2,9,10
 981 1149 981 1149 981 1135 c 0,11,12
 981 1118 981 1118 965.5 1104.5 c 128,-1,13
 950 1091 950 1091 923 1091 c 0,14,15
 908 1091 908 1091 899 1099.5 c 128,-1,16
 890 1108 890 1108 882 1125 c 0,17,18
 841 1218 841 1218 776 1261.5 c 128,-1,19
 711 1305 711 1305 612 1305 c 0,20,21
 508 1305 508 1305 420.5 1258 c 128,-1,22
 333 1211 333 1211 270 1127.5 c 128,-1,23
 207 1044 207 1044 172 929 c 128,-1,24
 137 814 137 814 137 678 c 0,25,26
 137 533 137 533 176.5 420 c 128,-1,27
 216 307 216 307 278 229 c 128,-1,28
 340 151 340 151 416 110.5 c 128,-1,29
 492 70 492 70 566 70 c 2,30,-1
 574 70 l 1,31,32
 700 78 700 78 777.5 133.5 c 128,-1,33
 855 189 855 189 881 289 c 0,34,35
 892 332 892 332 893 391.5 c 128,-1,36
 894 451 894 451 894 524 c 0,37,38
 894 550 894 550 894 572.5 c 128,-1,39
 894 595 894 595 892 606 c 1,40,-1
 723 606 l 2,41,42
 672 606 672 606 672 656 c 0,43,44
 672 707 672 707 723 707 c 2,45,-1
 943 707 l 2,46,47
 993 707 993 707 993 656 c 0,48,49
 993 621 993 621 993.5 595 c 128,-1,50
 994 569 994 569 994.5 546.5 c 128,-1,51
 995 524 995 524 995.5 503 c 128,-1,52
 996 482 996 482 996 459 c 0,53,54
 996 382 996 382 987.5 321 c 128,-1,55
 979 260 979 260 960 210.5 c 128,-1,56
 941 161 941 161 910.5 122.5 c 128,-1,57
 880 84 880 84 836 52 c 0,58,59
 736 -21 736 -21 579 -30 c 1,60,-1
 567 -30 l 2,61,62
 475 -30 475 -30 381 16 c 128,-1,63
 287 62 287 62 210 150.5 c 128,-1,64
 133 239 133 239 84.5 368.5 c 128,-1,65
 36 498 36 498 36 665 c 0,66,67
 36 828 36 828 79 964.5 c 128,-1,68
 122 1101 122 1101 198.5 1199 c 128,-1,69
 275 1297 275 1297 380.5 1351.5 c 128,-1,70
 486 1406 486 1406 612 1406 c 0,71,72
 721 1406 721 1406 806 1362 c 1,0,1
EndSplineSet
EndChar

StartChar: o
Encoding: 111 111 45
Width: 746
GlyphClass: 1
Flags: W
LayerCount: 2
Fore
SplineSet
386 916 m 2,0,-1
 393 916 l 2,1,2
 460 914 460 914 518 877.5 c 128,-1,3
 576 841 576 841 619 779 c 128,-1,4
 662 717 662 717 686.5 634 c 128,-1,5
 711 551 711 551 711 457 c 2,6,-1
 711 436 l 2,7,8
 708 337 708 337 679 250 c 128,-1,9
 650 163 650 163 602 98.5 c 128,-1,10
 554 34 554 34 491.5 -3.5 c 128,-1,11
 429 -41 429 -41 360 -41 c 256,12,13
 291 -41 291 -41 231.5 -5 c 128,-1,14
 172 31 172 31 128.5 93.5 c 128,-1,15
 85 156 85 156 60 239.5 c 128,-1,16
 35 323 35 323 35 418 c 2,17,-1
 35 439 l 2,18,19
 38 537 38 537 67 624 c 128,-1,20
 96 711 96 711 143.5 776 c 128,-1,21
 191 841 191 841 253.5 878.5 c 128,-1,22
 316 916 316 916 386 916 c 2,0,-1
391 815 m 2,23,-1
 386 815 l 2,24,25
 334 815 334 815 288.5 781.5 c 128,-1,26
 243 748 243 748 209 692.5 c 128,-1,27
 175 637 175 637 155.5 565.5 c 128,-1,28
 136 494 136 494 136 418 c 0,29,30
 136 346 136 346 153.5 281.5 c 128,-1,31
 171 217 171 217 201 168 c 128,-1,32
 231 119 231 119 271 90 c 128,-1,33
 311 61 311 61 356 60 c 2,34,-1
 360 60 l 2,35,36
 409 60 409 60 453.5 90.5 c 128,-1,37
 498 121 498 121 532 173 c 128,-1,38
 566 225 566 225 587 293.5 c 128,-1,39
 608 362 608 362 610 439 c 2,40,-1
 610 457 l 2,41,42
 610 528 610 528 593 591.5 c 128,-1,43
 576 655 576 655 547 704 c 128,-1,44
 518 753 518 753 477.5 782.5 c 128,-1,45
 437 812 437 812 391 815 c 2,23,-1
EndSplineSet
EndChar

StartChar: v
Encoding: 118 118 46
Width: 979
GlyphClass: 1
Flags: W
LayerCount: 2
Fore
SplineSet
75 781 m 2,0,1
 24 781 24 781 24 831 c 0,2,3
 24 882 24 882 75 882 c 2,4,-1
 309 882 l 2,5,6
 359 882 359 882 359 831 c 0,7,8
 359 781 359 781 309 781 c 2,9,-1
 264 781 l 1,10,-1
 481 192 l 1,11,-1
 725 781 l 1,12,-1
 695 781 l 2,13,14
 644 781 644 781 644 831 c 0,15,16
 644 882 644 882 695 882 c 2,17,-1
 906 882 l 2,18,19
 956 882 956 882 956 831 c 0,20,21
 956 781 956 781 906 781 c 2,22,-1
 834 781 l 1,23,-1
 526 36 l 2,24,25
 518 16 518 16 504.5 8.5 c 128,-1,26
 491 1 491 1 472 1 c 0,27,28
 442 1 442 1 430 35 c 2,29,-1
 156 781 l 1,30,-1
 75 781 l 2,0,1
EndSplineSet
EndChar

StartChar: L
Encoding: 76 76 47
Width: 903
GlyphClass: 1
Flags: W
LayerCount: 2
Fore
SplineSet
307 1362 m 2,0,1
 358 1362 358 1362 358 1311 c 0,2,3
 358 1261 358 1261 307 1261 c 2,4,-1
 234 1261 l 1,5,-1
 234 103 l 1,6,-1
 654 103 l 1,7,-1
 777 259 l 2,8,9
 793 283 793 283 816 283 c 256,10,11
 839 283 839 283 855.5 267 c 128,-1,12
 872 251 872 251 872 235 c 0,13,14
 872 225 872 225 864 207 c 2,15,-1
 746 -6 l 2,16,17
 735 -22 735 -22 721.5 -28.5 c 128,-1,18
 708 -35 708 -35 697 -35 c 256,19,20
 686 -35 686 -35 677.5 -28.5 c 128,-1,21
 669 -22 669 -22 660 -10 c 2,22,-1
 651 2 l 1,23,-1
 86 2 l 2,24,25
 35 2 35 2 35 53 c 0,26,27
 35 103 35 103 86 103 c 2,28,-1
 132 103 l 1,29,-1
 132 1261 l 1,30,-1
 87 1261 l 2,31,32
 37 1261 37 1261 37 1311 c 0,33,34
 37 1362 37 1362 87 1362 c 2,35,-1
 183 1362 l 1,36,-1
 307 1362 l 2,0,1
EndSplineSet
EndChar

StartChar: F
Encoding: 70 70 48
Width: 704
GlyphClass: 1
Flags: W
LayerCount: 2
Fore
SplineSet
683 1261 m 1,0,-1
 251 1261 l 1,1,-1
 251 882 l 1,2,-1
 304 882 l 1,3,4
 299 897 299 897 299 904 c 0,5,6
 299 914 299 914 304.5 923.5 c 128,-1,7
 310 933 310 933 317.5 940 c 128,-1,8
 325 947 325 947 334 951 c 128,-1,9
 343 955 343 955 351 955 c 0,10,11
 369 955 369 955 387 937 c 2,12,-1
 453 870 l 2,13,14
 454 865 454 865 459 864 c 2,15,-1
 554 768 l 2,16,17
 563 759 563 759 566.5 750 c 128,-1,18
 570 741 570 741 571 732 c 0,19,20
 571 723 571 723 566 714 c 128,-1,21
 561 705 561 705 553 697 c 128,-1,22
 545 689 545 689 535.5 684 c 128,-1,23
 526 679 526 679 517 679 c 0,24,25
 499 679 499 679 481 697 c 2,26,-1
 399 781 l 1,27,-1
 251 781 l 1,28,-1
 251 103 l 1,29,-1
 335 103 l 2,30,31
 386 103 386 103 386 53 c 0,32,33
 386 2 386 2 335 2 c 2,34,-1
 85 2 l 2,35,36
 34 2 34 2 34 53 c 0,37,38
 34 103 34 103 85 103 c 2,39,-1
 149 103 l 1,40,-1
 149 1261 l 1,41,-1
 87 1261 l 2,42,43
 36 1261 36 1261 36 1311 c 0,44,45
 36 1362 36 1362 87 1362 c 2,46,-1
 667 1362 l 1,47,-1
 674 1380 l 2,48,49
 681 1397 681 1397 690.5 1406 c 128,-1,50
 700 1415 700 1415 715 1415 c 0,51,52
 727 1415 727 1415 740 1408.5 c 128,-1,53
 753 1402 753 1402 761 1393 c 2,54,-1
 921 1184 l 2,55,56
 934 1168 934 1168 934 1150 c 0,57,58
 934 1142 934 1142 929.5 1133.5 c 128,-1,59
 925 1125 925 1125 917.5 1117.5 c 128,-1,60
 910 1110 910 1110 900.5 1105.5 c 128,-1,61
 891 1101 891 1101 881 1101 c 0,62,63
 863 1101 863 1101 848 1116 c 1,64,-1
 847 1115 l 1,65,-1
 683 1261 l 1,0,-1
EndSplineSet
EndChar

StartChar: E
Encoding: 69 69 49
Width: 1050
GlyphClass: 1
Flags: W
LayerCount: 2
Fore
SplineSet
683 1261 m 1,0,-1
 251 1261 l 1,1,-1
 251 882 l 1,2,-1
 304 882 l 1,3,4
 299 897 299 897 299 904 c 0,5,6
 299 914 299 914 304.5 923.5 c 128,-1,7
 310 933 310 933 317.5 940 c 128,-1,8
 325 947 325 947 334 951 c 128,-1,9
 343 955 343 955 351 955 c 0,10,11
 369 955 369 955 387 937 c 2,12,-1
 453 870 l 2,13,14
 454 865 454 865 459 864 c 2,15,-1
 554 768 l 2,16,17
 563 759 563 759 566.5 750 c 128,-1,18
 570 741 570 741 571 732 c 0,19,20
 571 723 571 723 566 714 c 128,-1,21
 561 705 561 705 553 697 c 128,-1,22
 545 689 545 689 535.5 684 c 128,-1,23
 526 679 526 679 517 679 c 0,24,25
 499 679 499 679 481 697 c 2,26,-1
 399 781 l 1,27,-1
 251 781 l 1,28,-1
 251 103 l 1,29,-1
 763 103 l 1,30,-1
 914 266 l 2,31,32
 929 283 929 283 950 283 c 0,33,34
 973 283 973 283 988.5 265.5 c 128,-1,35
 1004 248 1004 248 1004 233 c 0,36,37
 1004 220 1004 220 994 204 c 2,38,-1
 855 -9 l 1,39,40
 841 -23 841 -23 831.5 -29 c 128,-1,41
 822 -35 822 -35 810 -35 c 0,42,43
 790 -36 790 -36 773 -13 c 2,44,-1
 761 2 l 1,45,-1
 85 2 l 2,46,47
 34 2 34 2 34 53 c 0,48,49
 34 103 34 103 85 103 c 2,50,-1
 149 103 l 1,51,-1
 149 1261 l 1,52,-1
 87 1261 l 2,53,54
 36 1261 36 1261 36 1311 c 0,55,56
 36 1362 36 1362 87 1362 c 2,57,-1
 667 1362 l 1,58,-1
 674 1380 l 2,59,60
 681 1397 681 1397 690.5 1406 c 128,-1,61
 700 1415 700 1415 715 1415 c 0,62,63
 727 1415 727 1415 740 1408.5 c 128,-1,64
 753 1402 753 1402 761 1393 c 2,65,-1
 921 1184 l 2,66,67
 934 1168 934 1168 934 1150 c 0,68,69
 934 1142 934 1142 929.5 1133.5 c 128,-1,70
 925 1125 925 1125 917.5 1117.5 c 128,-1,71
 910 1110 910 1110 900.5 1105.5 c 128,-1,72
 891 1101 891 1101 881 1101 c 0,73,74
 863 1101 863 1101 848 1116 c 1,75,-1
 847 1115 l 1,76,-1
 683 1261 l 1,0,-1
EndSplineSet
EndChar

StartChar: b
Encoding: 98 98 50
Width: 669
GlyphClass: 1
Flags: W
LayerCount: 2
Fore
SplineSet
87 1261 m 2,0,1
 36 1261 36 1261 36 1311 c 0,2,3
 36 1362 36 1362 87 1362 c 2,4,-1
 179 1362 l 2,5,6
 229 1362 229 1362 229 1311 c 2,7,-1
 229 878 l 1,8,9
 287 928 287 928 358 928 c 0,10,11
 425 928 425 928 476 899 c 128,-1,12
 527 870 527 870 561.5 820 c 128,-1,13
 596 770 596 770 614 702 c 128,-1,14
 632 634 632 634 632 555 c 0,15,16
 632 422 632 422 609 318.5 c 128,-1,17
 586 215 586 215 544 144 c 128,-1,18
 502 73 502 73 443.5 36 c 128,-1,19
 385 -1 385 -1 315 -1 c 0,20,21
 287 -1 287 -1 264 6.5 c 128,-1,22
 241 14 241 14 222 26 c 1,23,24
 207 2 207 2 179 2 c 2,25,-1
 101 2 l 2,26,27
 50 2 50 2 50 53 c 0,28,29
 50 103 50 103 101 103 c 2,30,-1
 128 103 l 1,31,-1
 128 1261 l 1,32,-1
 87 1261 l 2,0,1
229 711 m 1,33,-1
 229 238 l 1,34,35
 233 178 233 178 252 139.5 c 128,-1,36
 271 101 271 101 317 99 c 0,37,38
 360 99 360 99 399 128 c 128,-1,39
 438 157 438 157 467 213.5 c 128,-1,40
 496 270 496 270 513 353.5 c 128,-1,41
 530 437 530 437 530 547 c 0,42,43
 530 675 530 675 491.5 744 c 128,-1,44
 453 813 453 813 369 826 c 1,45,-1
 359 826 l 2,46,47
 323 826 323 826 291 797 c 128,-1,48
 259 768 259 768 229 711 c 1,33,-1
EndSplineSet
EndChar

StartChar: s
Encoding: 115 115 51
Width: 605
GlyphClass: 1
Flags: W
LayerCount: 2
Fore
SplineSet
402 884 m 1,0,1
 413 920 413 920 455 920 c 0,2,3
 487 920 487 920 498 881 c 2,4,-1
 550 685 l 2,5,6
 551 680 551 680 551.5 675.5 c 128,-1,7
 552 671 552 671 552 667 c 0,8,9
 552 648 552 648 537.5 634.5 c 128,-1,10
 523 621 523 621 495 621 c 0,11,12
 463 621 463 621 452 659 c 0,13,14
 432 728 432 728 398.5 764 c 128,-1,15
 365 800 365 800 314 800 c 0,16,17
 288 800 288 800 266.5 792.5 c 128,-1,18
 245 785 245 785 230 772.5 c 128,-1,19
 215 760 215 760 206.5 744 c 128,-1,20
 198 728 198 728 198 711 c 0,21,22
 198 684 198 684 205 663 c 128,-1,23
 212 642 212 642 228.5 625 c 128,-1,24
 245 608 245 608 271.5 593.5 c 128,-1,25
 298 579 298 579 337 565 c 0,26,27
 446 526 446 526 507.5 439 c 128,-1,28
 569 352 569 352 569 229 c 0,29,30
 569 179 569 179 553 137.5 c 128,-1,31
 537 96 537 96 509.5 65.5 c 128,-1,32
 482 35 482 35 444 18 c 128,-1,33
 406 1 406 1 362 1 c 0,34,35
 322 1 322 1 282 15 c 128,-1,36
 242 29 242 29 207 52 c 1,37,38
 207 2 207 2 149 2 c 0,39,40
 121 2 121 2 109 36 c 2,41,-1
 41 223 l 2,42,43
 37 232 37 232 37 243 c 0,44,45
 37 253 37 253 42 262 c 128,-1,46
 47 271 47 271 54.5 278.5 c 128,-1,47
 62 286 62 286 71.5 290.5 c 128,-1,48
 81 295 81 295 90 295 c 0,49,50
 112 295 112 295 129 272 c 0,51,52
 189 191 189 191 244 149 c 128,-1,53
 299 107 299 107 357 103 c 1,54,-1
 372 103 l 2,55,56
 398 104 398 104 416 116.5 c 128,-1,57
 434 129 434 129 445.5 148.5 c 128,-1,58
 457 168 457 168 462 193.5 c 128,-1,59
 467 219 467 219 467 247 c 0,60,61
 462 334 462 334 418 389.5 c 128,-1,62
 374 445 374 445 302 470 c 0,63,64
 199 506 199 506 148 562.5 c 128,-1,65
 97 619 97 619 97 709 c 0,66,67
 97 746 97 746 112.5 781 c 128,-1,68
 128 816 128 816 157 842.5 c 128,-1,69
 186 869 186 869 226.5 885 c 128,-1,70
 267 901 267 901 317 901 c 0,71,72
 339 901 339 901 360.5 897 c 128,-1,73
 382 893 382 893 402 884 c 1,0,1
EndSplineSet
EndChar

StartChar: n
Encoding: 110 110 52
Width: 785
GlyphClass: 1
Flags: W
LayerCount: 2
Fore
SplineSet
87 768 m 2,0,1
 36 768 36 768 36 818 c 0,2,3
 36 869 36 869 87 869 c 2,4,-1
 195 869 l 2,5,6
 245 869 245 869 245 818 c 2,7,-1
 245 812 l 1,8,9
 296 847 296 847 347.5 864.5 c 128,-1,10
 399 882 399 882 450 882 c 0,11,12
 513 882 513 882 564.5 861 c 128,-1,13
 616 840 616 840 652 799.5 c 128,-1,14
 688 759 688 759 707.5 699.5 c 128,-1,15
 727 640 727 640 727 563 c 0,16,17
 727 460 727 460 695.5 341 c 128,-1,18
 664 222 664 222 601 90 c 1,19,-1
 648 90 l 2,20,21
 699 90 699 90 699 40 c 256,22,23
 699 -10 699 -10 648 -10 c 2,24,-1
 518 -10 l 2,25,26
 493 -10 493 -10 478.5 5.5 c 128,-1,27
 464 21 464 21 464 35 c 0,28,29
 464 48 464 48 473 63 c 0,30,31
 551 209 551 209 588.5 335 c 128,-1,32
 626 461 626 461 626 563 c 0,33,34
 626 605 626 605 618.5 644.5 c 128,-1,35
 611 684 611 684 591.5 714.5 c 128,-1,36
 572 745 572 745 539.5 763 c 128,-1,37
 507 781 507 781 456 781 c 0,38,39
 398 781 398 781 343 753.5 c 128,-1,40
 288 726 288 726 245 674 c 1,41,-1
 245 90 l 1,42,-1
 295 90 l 2,43,44
 346 90 346 90 346 40 c 256,45,46
 346 -10 346 -10 295 -10 c 2,47,-1
 119 -10 l 2,48,49
 68 -10 68 -10 68 40 c 256,50,51
 68 90 68 90 119 90 c 2,52,-1
 144 90 l 1,53,-1
 144 768 l 1,54,-1
 87 768 l 2,0,1
EndSplineSet
EndChar

StartChar: exclam
Encoding: 33 33 53
Width: 181
GlyphClass: 1
Flags: W
LayerCount: 2
Fore
SplineSet
33 68 m 2,0,1
 33 118 33 118 84 118 c 0,2,3
 134 118 134 118 134 68 c 2,4,-1
 134 53 l 2,5,6
 134 2 134 2 84 2 c 0,7,8
 33 2 33 2 33 53 c 2,9,-1
 33 68 l 2,0,1
91 1350 m 1,10,11
 99 1354 99 1354 108 1354 c 0,12,13
 149 1352 149 1352 149 1311 c 2,14,-1
 135 358 l 2,15,16
 133 316 133 316 93 316 c 0,17,18
 51 316 51 316 51 357 c 2,19,-1
 33 1311 l 2,20,21
 31 1353 31 1353 74 1354 c 0,22,23
 83 1354 83 1354 91 1350 c 1,10,11
EndSplineSet
EndChar

StartChar: r
Encoding: 114 114 54
Width: 567
GlyphClass: 1
Flags: W
LayerCount: 2
Fore
SplineSet
86 781 m 2,0,1
 35 781 35 781 35 831 c 0,2,3
 35 882 35 882 86 882 c 2,4,-1
 191 882 l 2,5,6
 242 882 242 882 242 831 c 2,7,-1
 242 103 l 1,8,-1
 282 103 l 2,9,10
 333 103 333 103 333 53 c 0,11,12
 333 2 333 2 282 2 c 2,13,-1
 115 2 l 2,14,15
 65 2 65 2 65 53 c 0,16,17
 65 103 65 103 115 103 c 2,18,-1
 140 103 l 1,19,-1
 140 781 l 1,20,-1
 86 781 l 2,0,1
354 608 m 0,21,22
 377 593 377 593 377 573 c 256,23,24
 377 553 377 553 362.5 540 c 128,-1,25
 348 527 348 527 336 527 c 0,26,27
 315 527 315 527 298.5 542 c 128,-1,28
 282 557 282 557 270.5 581.5 c 128,-1,29
 259 606 259 606 253.5 637.5 c 128,-1,30
 248 669 248 669 248 701 c 0,31,32
 248 738 248 738 258.5 772.5 c 128,-1,33
 269 807 269 807 289 834 c 128,-1,34
 309 861 309 861 338 877 c 128,-1,35
 367 893 367 893 404 893 c 0,36,37
 437 893 437 893 462.5 881.5 c 128,-1,38
 488 870 488 870 504.5 851.5 c 128,-1,39
 521 833 521 833 529.5 809.5 c 128,-1,40
 538 786 538 786 538 763 c 0,41,42
 538 720 538 720 516.5 692.5 c 128,-1,43
 495 665 495 665 460 665 c 0,44,45
 441 665 441 665 425 674 c 128,-1,46
 409 683 409 683 397.5 697 c 128,-1,47
 386 711 386 711 379.5 729.5 c 128,-1,48
 373 748 373 748 373 768 c 0,49,50
 373 773 373 773 373 778 c 128,-1,51
 373 783 373 783 374 788 c 1,52,53
 348 776 348 776 340.5 751 c 128,-1,54
 333 726 333 726 333 696 c 0,55,56
 333 684 333 684 334.5 668.5 c 128,-1,57
 336 653 336 653 339 639.5 c 128,-1,58
 342 626 342 626 345.5 617 c 128,-1,59
 349 608 349 608 354 608 c 0,21,22
EndSplineSet
EndChar

StartChar: e
Encoding: 101 101 55
Width: 695
GlyphClass: 1
Flags: W
LayerCount: 2
Fore
SplineSet
231 733 m 1,0,-1
 481 739 l 1,1,2
 463 773 463 773 438 789.5 c 128,-1,3
 413 806 413 806 375 806 c 0,4,5
 292 806 292 806 231 733 c 1,0,-1
557 639 m 2,6,-1
 174 631 l 1,7,8
 164 610 164 610 158 585 c 128,-1,9
 152 560 152 560 148.5 534 c 128,-1,10
 145 508 145 508 143.5 482.5 c 128,-1,11
 142 457 142 457 142 436 c 0,12,13
 142 375 142 375 155 325 c 128,-1,14
 168 275 168 275 189.5 236 c 128,-1,15
 211 197 211 197 238 168.5 c 128,-1,16
 265 140 265 140 292.5 121 c 128,-1,17
 320 102 320 102 345.5 93 c 128,-1,18
 371 84 371 84 389 84 c 0,19,20
 428 84 428 84 469 112 c 128,-1,21
 510 140 510 140 552 200 c 0,22,23
 568 224 568 224 590 224 c 0,24,25
 600 224 600 224 610 219 c 128,-1,26
 620 214 620 214 628 206.5 c 128,-1,27
 636 199 636 199 641 190 c 128,-1,28
 646 181 646 181 646 173 c 0,29,30
 646 156 646 156 633 136 c 128,-1,31
 620 116 620 116 601.5 96 c 128,-1,32
 583 76 583 76 563.5 59 c 128,-1,33
 544 42 544 42 531 33 c 0,34,35
 463 -16 463 -16 389 -16 c 0,36,37
 314 -16 314 -16 248 29 c 128,-1,38
 182 74 182 74 118 162 c 0,39,40
 80 215 80 215 61 281 c 128,-1,41
 42 347 42 347 42 435 c 0,42,43
 42 514 42 514 61.5 597.5 c 128,-1,44
 81 681 81 681 121.5 750 c 128,-1,45
 162 819 162 819 223.5 863 c 128,-1,46
 285 907 285 907 370 907 c 256,47,48
 455 907 455 907 512.5 860.5 c 128,-1,49
 570 814 570 814 605 706 c 1,50,-1
 604 706 l 1,51,52
 607 697 607 697 607 688 c 0,53,54
 607 641 607 641 557 639 c 2,6,-1
EndSplineSet
EndChar

StartChar: g
Encoding: 103 103 56
Width: 660
GlyphClass: 1
Flags: W
LayerCount: 2
Fore
SplineSet
480 852 m 1,0,1
 494 884 494 884 521 884 c 0,2,3
 547 884 547 884 562.5 869 c 128,-1,4
 578 854 578 854 578 837 c 0,5,6
 578 829 578 829 574.5 817 c 128,-1,7
 571 805 571 805 565.5 791.5 c 128,-1,8
 560 778 560 778 554.5 764 c 128,-1,9
 549 750 549 750 545 737 c 0,10,11
 532 697 532 697 526.5 655.5 c 128,-1,12
 521 614 521 614 521 572 c 0,13,14
 521 500 521 500 537 425 c 128,-1,15
 553 350 553 350 583 263 c 0,16,17
 600 214 600 214 610 159.5 c 128,-1,18
 620 105 620 105 620 50 c 0,19,20
 620 -9 620 -9 603.5 -64 c 128,-1,21
 587 -119 587 -119 558.5 -162.5 c 128,-1,22
 530 -206 530 -206 491 -232 c 128,-1,23
 452 -258 452 -258 407 -258 c 0,24,25
 373 -258 373 -258 347.5 -244.5 c 128,-1,26
 322 -231 322 -231 304.5 -208.5 c 128,-1,27
 287 -186 287 -186 278.5 -158.5 c 128,-1,28
 270 -131 270 -131 270 -102 c 0,29,30
 270 -54 270 -54 294 -1 c 1,31,-1
 291 0 l 1,32,33
 236 10 236 10 188.5 45 c 128,-1,34
 141 80 141 80 105.5 135 c 128,-1,35
 70 190 70 190 50 263.5 c 128,-1,36
 30 337 30 337 30 424 c 0,37,38
 30 473 30 473 36.5 527 c 128,-1,39
 43 581 43 581 57.5 633.5 c 128,-1,40
 72 686 72 686 94.5 733.5 c 128,-1,41
 117 781 117 781 149 817.5 c 128,-1,42
 181 854 181 854 222.5 875.5 c 128,-1,43
 264 897 264 897 316 897 c 0,44,45
 405 897 405 897 476 848 c 1,46,-1
 477 847 l 1,47,-1
 480 852 l 1,0,1
421 539 m 0,48,49
 420 547 420 547 420 554.5 c 128,-1,50
 420 562 420 562 420 570 c 0,51,52
 420 660 420 660 442 745 c 1,53,54
 434 755 434 755 420 764 c 128,-1,55
 406 773 406 773 388.5 780 c 128,-1,56
 371 787 371 787 353 791 c 128,-1,57
 335 795 335 795 319 795 c 0,58,59
 285 795 285 795 257.5 778 c 128,-1,60
 230 761 230 761 209 732 c 128,-1,61
 188 703 188 703 173.5 665.5 c 128,-1,62
 159 628 159 628 149.5 587 c 128,-1,63
 140 546 140 546 135.5 504 c 128,-1,64
 131 462 131 462 131 425 c 0,65,66
 131 351 131 351 147.5 290 c 128,-1,67
 164 229 164 229 192 186 c 128,-1,68
 220 143 220 143 257 119.5 c 128,-1,69
 294 96 294 96 335 96 c 0,70,71
 365 96 365 96 390 110 c 128,-1,72
 415 124 415 124 433 149 c 128,-1,73
 451 174 451 174 460.5 208 c 128,-1,74
 470 242 470 242 470 281 c 1,75,76
 448 347 448 347 435.5 411.5 c 128,-1,77
 423 476 423 476 421 539 c 0,48,49
516 1 m 0,78,79
 519 26 519 26 519 57 c 0,80,81
 519 66 519 66 519 74.5 c 128,-1,82
 519 83 519 83 518 93 c 1,83,84
 499 67 499 67 471.5 42.5 c 128,-1,85
 444 18 444 18 418 11 c 1,86,87
 371 -51 371 -51 371 -102 c 0,88,89
 371 -120 371 -120 378.5 -138 c 128,-1,90
 386 -156 386 -156 405 -156 c 256,91,92
 424 -156 424 -156 442.5 -141.5 c 128,-1,93
 461 -127 461 -127 476 -104 c 128,-1,94
 491 -81 491 -81 501.5 -53.5 c 128,-1,95
 512 -26 512 -26 516 1 c 0,78,79
EndSplineSet
EndChar

StartChar: j
Encoding: 106 106 57
Width: 400
GlyphClass: 1
Flags: W
LayerCount: 2
Fore
SplineSet
277 1314 m 2,0,1
 289 1339 289 1339 310 1339 c 0,2,3
 330 1339 330 1339 344 1326 c 128,-1,4
 358 1313 358 1313 358 1300 c 0,5,6
 358 1289 358 1289 352 1277 c 2,7,-1
 254 1080 l 2,8,9
 241 1055 241 1055 220 1055 c 256,10,11
 199 1055 199 1055 185.5 1068.5 c 128,-1,12
 172 1082 172 1082 172 1095 c 0,13,14
 172 1106 172 1106 178 1118 c 2,15,-1
 277 1314 l 2,0,1
116 781 m 2,16,17
 66 781 66 781 66 831 c 0,18,19
 66 882 66 882 116 882 c 2,20,-1
 226 882 l 2,21,22
 277 882 277 882 277 831 c 2,23,-1
 277 22 l 2,24,25
 277 -173 277 -173 215.5 -260.5 c 128,-1,26
 154 -348 154 -348 35 -348 c 0,27,28
 -9 -348 -9 -348 -47 -334.5 c 128,-1,29
 -85 -321 -85 -321 -113.5 -295.5 c 128,-1,30
 -142 -270 -142 -270 -158.5 -233.5 c 128,-1,31
 -175 -197 -175 -197 -175 -152 c 0,32,33
 -174 -136 -174 -136 -171.5 -119 c 128,-1,34
 -169 -102 -169 -102 -163 -88 c 128,-1,35
 -157 -74 -157 -74 -147.5 -65 c 128,-1,36
 -138 -56 -138 -56 -123 -56 c 0,37,38
 -95 -56 -95 -56 -80 -69.5 c 128,-1,39
 -65 -83 -65 -83 -65 -102 c 0,40,41
 -65 -107 -65 -107 -66.5 -112 c 128,-1,42
 -68 -117 -68 -117 -69.5 -123 c 128,-1,43
 -71 -129 -71 -129 -72.5 -138 c 128,-1,44
 -74 -147 -74 -147 -74 -161 c 0,45,46
 -74 -205 -74 -205 -41.5 -225.5 c 128,-1,47
 -9 -246 -9 -246 36 -246 c 0,48,49
 77 -246 77 -246 104 -229 c 128,-1,50
 131 -212 131 -212 147 -179 c 128,-1,51
 163 -146 163 -146 169.5 -97 c 128,-1,52
 176 -48 176 -48 176 15 c 2,53,-1
 176 781 l 1,54,-1
 116 781 l 2,16,17
EndSplineSet
EndChar

StartChar: t
Encoding: 116 116 58
Width: 368
GlyphClass: 1
Flags: W
LayerCount: 2
Fore
SplineSet
98 1142 m 0,0,1
 96 1146 96 1146 96 1153 c 0,2,3
 96 1173 96 1173 108 1187.5 c 128,-1,4
 120 1202 120 1202 152 1202 c 0,5,6
 189 1202 189 1202 197 1161 c 0,7,8
 203 1131 203 1131 207 1104 c 128,-1,9
 211 1077 211 1077 213 1046 c 128,-1,10
 215 1015 215 1015 216 976 c 128,-1,11
 217 937 217 937 217 882 c 1,12,-1
 247 882 l 2,13,14
 298 882 298 882 298 831 c 0,15,16
 298 781 298 781 247 781 c 2,17,-1
 215 781 l 1,18,-1
 204 211 l 2,19,20
 204 175 204 175 205 154 c 128,-1,21
 206 133 206 133 214 121.5 c 128,-1,22
 222 110 222 110 241 106.5 c 128,-1,23
 260 103 260 103 296 103 c 0,24,25
 347 103 347 103 347 53 c 0,26,27
 347 2 347 2 296 2 c 0,28,29
 252 2 252 2 216 9.5 c 128,-1,30
 180 17 180 17 155 39 c 128,-1,31
 130 61 130 61 116.5 99.5 c 128,-1,32
 103 138 103 138 103 200 c 2,33,-1
 114 781 l 1,34,-1
 76 781 l 2,35,36
 25 781 25 781 25 831 c 0,37,38
 25 882 25 882 76 882 c 2,39,-1
 116 882 l 1,40,41
 116 934 116 934 115 969.5 c 128,-1,42
 114 1005 114 1005 112 1033 c 128,-1,43
 110 1061 110 1061 106.5 1086 c 128,-1,44
 103 1111 103 1111 98 1142 c 0,0,1
EndSplineSet
EndChar

StartChar: h
Encoding: 104 104 59
Width: 640
GlyphClass: 1
Flags: W
LayerCount: 2
Fore
SplineSet
44 1261 m 2,0,1
 -7 1261 -7 1261 -7 1311 c 0,2,3
 -7 1362 -7 1362 44 1362 c 2,4,-1
 172 1362 l 2,5,6
 223 1362 223 1362 223 1311 c 2,7,-1
 223 817 l 1,8,9
 291 903 291 903 378 903 c 2,10,-1
 391 903 l 1,11,12
 496 893 496 893 553.5 810 c 128,-1,13
 611 727 611 727 611 555 c 0,14,15
 611 493 611 493 606 440 c 128,-1,16
 601 387 601 387 590.5 335 c 128,-1,17
 580 283 580 283 563 227 c 128,-1,18
 546 171 546 171 522 103 c 1,19,-1
 561 103 l 2,20,21
 611 103 611 103 611 53 c 0,22,23
 611 2 611 2 561 2 c 2,24,-1
 448 2 l 2,25,26
 422 2 422 2 409 16 c 128,-1,27
 396 30 396 30 396 46 c 0,28,29
 396 54 396 54 401 71 c 0,30,31
 423 131 423 131 444 190.5 c 128,-1,32
 465 250 465 250 480 313 c 0,33,34
 496 382 496 382 503 447 c 128,-1,35
 510 512 510 512 510 581 c 0,36,37
 505 690 505 690 475.5 742.5 c 128,-1,38
 446 795 446 795 382 802 c 1,39,-1
 378 802 l 2,40,41
 347 802 347 802 319 775 c 128,-1,42
 291 748 291 748 269.5 702 c 128,-1,43
 248 656 248 656 235.5 596.5 c 128,-1,44
 223 537 223 537 223 471 c 2,45,-1
 223 103 l 1,46,-1
 250 103 l 2,47,48
 300 103 300 103 300 53 c 0,49,50
 300 2 300 2 250 2 c 2,51,-1
 76 2 l 2,52,53
 25 2 25 2 25 53 c 0,54,55
 25 103 25 103 76 103 c 2,56,-1
 121 103 l 1,57,-1
 121 1261 l 1,58,-1
 44 1261 l 2,0,1
EndSplineSet
EndChar

StartChar: c
Encoding: 99 99 60
Width: 617
GlyphClass: 1
Flags: W
LayerCount: 2
Fore
SplineSet
405 904 m 1,0,1
 406 924 406 924 420.5 939 c 128,-1,2
 435 954 435 954 462 954 c 0,3,4
 492 954 492 954 504 919 c 2,5,-1
 568 731 l 2,6,7
 572 722 572 722 572 709 c 0,8,9
 572 692 572 692 556.5 677.5 c 128,-1,10
 541 663 541 663 514 663 c 0,11,12
 486 663 486 663 473 697 c 0,13,14
 450 757 450 757 415 784.5 c 128,-1,15
 380 812 380 812 338 812 c 0,16,17
 293 812 293 812 258 788 c 128,-1,18
 223 764 223 764 197.5 717.5 c 128,-1,19
 172 671 172 671 156 603.5 c 128,-1,20
 140 536 140 536 134 450 c 1,21,-1
 134 449 l 2,22,23
 134 381 134 381 149 316 c 128,-1,24
 164 251 164 251 189.5 200 c 128,-1,25
 215 149 215 149 248.5 117 c 128,-1,26
 282 85 282 85 320 84 c 2,27,-1
 328 84 l 1,28,29
 380 89 380 89 417.5 128.5 c 128,-1,30
 455 168 455 168 474 240 c 0,31,32
 485 278 485 278 517 278 c 0,33,34
 546 278 546 278 560 265 c 128,-1,35
 574 252 574 252 574 233 c 0,36,37
 574 229 574 229 573.5 224.5 c 128,-1,38
 573 220 573 220 572 215 c 0,39,40
 546 112 546 112 484.5 52 c 128,-1,41
 423 -8 423 -8 335 -16 c 1,42,-1
 318 -16 l 2,43,44
 258 -16 258 -16 206 22.5 c 128,-1,45
 154 61 154 61 115.5 125.5 c 128,-1,46
 77 190 77 190 55 274.5 c 128,-1,47
 33 359 33 359 33 451 c 2,48,-1
 33 456 l 1,49,50
 47 675 47 675 126 794 c 128,-1,51
 205 913 205 913 343 913 c 0,52,53
 376 913 376 913 405 904 c 1,0,1
EndSplineSet
EndChar

StartChar: a
Encoding: 97 97 61
Width: 700
GlyphClass: 1
Flags: W
LayerCount: 2
Fore
SplineSet
482 443 m 2,0,1
 482 491 482 491 443 522 c 128,-1,2
 404 553 404 553 325 553 c 0,3,4
 301 553 301 553 268.5 538 c 128,-1,5
 236 523 236 523 206 492 c 128,-1,6
 176 461 176 461 155.5 413 c 128,-1,7
 135 365 135 365 135 299 c 0,8,9
 135 190 135 190 176 128.5 c 128,-1,10
 217 67 217 67 296 67 c 0,11,12
 329 67 329 67 360 78.5 c 128,-1,13
 391 90 391 90 416 110 c 128,-1,14
 441 130 441 130 458.5 156 c 128,-1,15
 476 182 476 182 482 212 c 1,16,-1
 482 443 l 2,0,1
335 654 m 1,17,18
 419 648 419 648 482 616 c 1,19,-1
 482 654 l 2,20,21
 482 684 482 684 473 711 c 128,-1,22
 464 738 464 738 447.5 758.5 c 128,-1,23
 431 779 431 779 407.5 791.5 c 128,-1,24
 384 804 384 804 354 804 c 0,25,26
 303 804 303 804 261 767.5 c 128,-1,27
 219 731 219 731 190 668 c 0,28,29
 175 637 175 637 150 637 c 0,30,31
 124 637 124 637 108 653 c 128,-1,32
 92 669 92 669 92 684 c 256,33,34
 92 699 92 699 99 712 c 0,35,36
 141 803 141 803 206.5 854 c 128,-1,37
 272 905 272 905 353 905 c 0,38,39
 402 905 402 905 444.5 885 c 128,-1,40
 487 865 487 865 518 831 c 128,-1,41
 549 797 549 797 566.5 751 c 128,-1,42
 584 705 584 705 584 654 c 2,43,-1
 584 293 l 1,44,45
 588 270 588 270 588 245 c 0,46,47
 588 221 588 221 584 201 c 1,48,-1
 584 103 l 1,49,-1
 617 103 l 2,50,51
 668 103 668 103 668 53 c 0,52,53
 668 2 668 2 617 2 c 2,54,-1
 533 2 l 2,55,56
 495 2 495 2 485 36 c 1,57,58
 395 -33 395 -33 294 -33 c 0,59,60
 243 -33 243 -33 196 -13.5 c 128,-1,61
 149 6 149 6 113 48 c 128,-1,62
 77 90 77 90 55.5 155 c 128,-1,63
 34 220 34 220 34 311 c 0,64,65
 34 376 34 376 50.5 427 c 128,-1,66
 67 478 67 478 93.5 516 c 128,-1,67
 120 554 120 554 153 580.5 c 128,-1,68
 186 607 186 607 219 623.5 c 128,-1,69
 252 640 252 640 281 647.5 c 128,-1,70
 310 655 310 655 329 655 c 0,71,72
 330 655 330 655 331 654.5 c 128,-1,73
 332 654 332 654 333 654 c 2,74,-1
 335 654 l 1,17,18
EndSplineSet
EndChar

StartChar: ydieresis
Encoding: 255 255 62
Width: 412
GlyphClass: 1
Flags: W
LayerCount: 2
Fore
SplineSet
291 1329 m 2,0,1
 303 1355 303 1355 325 1355 c 256,2,3
 347 1355 347 1355 360 1341.5 c 128,-1,4
 373 1328 373 1328 373 1315 c 0,5,6
 373 1309 373 1309 368 1294 c 2,7,-1
 253 1043 l 2,8,9
 241 1016 241 1016 219 1016 c 0,10,11
 199 1016 199 1016 184.5 1028.5 c 128,-1,12
 170 1041 170 1041 170 1055 c 0,13,14
 170 1064 170 1064 176 1078 c 2,15,-1
 291 1329 l 2,0,1
158 1329 m 2,16,17
 170 1355 170 1355 192 1355 c 256,18,19
 214 1355 214 1355 227 1341.5 c 128,-1,20
 240 1328 240 1328 240 1315 c 0,21,22
 240 1309 240 1309 235 1294 c 2,23,-1
 121 1043 l 2,24,25
 109 1016 109 1016 87 1016 c 0,26,27
 67 1016 67 1016 53 1028.5 c 128,-1,28
 39 1041 39 1041 39 1055 c 0,29,30
 39 1063 39 1063 44 1078 c 2,31,-1
 158 1329 l 2,16,17
EndSplineSet
EndChar

StartChar: m
Encoding: 109 109 63
Width: 1049
GlyphClass: 1
Flags: W
LayerCount: 2
Fore
SplineSet
90 781 m 2,0,1
 39 781 39 781 39 831 c 0,2,3
 39 882 39 882 90 882 c 2,4,-1
 180 882 l 2,5,6
 226 882 226 882 230 836 c 1,7,8
 275 868 275 868 314 881.5 c 128,-1,9
 353 895 353 895 398 895 c 0,10,11
 458 895 458 895 507.5 865.5 c 128,-1,12
 557 836 557 836 586 791 c 1,13,14
 626 842 626 842 677 868.5 c 128,-1,15
 728 895 728 895 780 895 c 0,16,17
 829 895 829 895 868.5 875.5 c 128,-1,18
 908 856 908 856 936 819.5 c 128,-1,19
 964 783 964 783 979 731 c 128,-1,20
 994 679 994 679 994 613 c 0,21,22
 994 518 994 518 968 393.5 c 128,-1,23
 942 269 942 269 890 103 c 1,24,-1
 928 103 l 2,25,26
 979 103 979 103 979 53 c 0,27,28
 979 2 979 2 928 2 c 2,29,-1
 820 2 l 2,30,31
 794 2 794 2 781 17 c 128,-1,32
 768 32 768 32 768 47 c 0,33,34
 768 60 768 60 772 69 c 0,35,36
 829 238 829 238 861 376 c 128,-1,37
 893 514 893 514 893 614 c 0,38,39
 893 651 893 651 887 684 c 128,-1,40
 881 717 881 717 868 741.5 c 128,-1,41
 855 766 855 766 834 780 c 128,-1,42
 813 794 813 794 782 794 c 0,43,44
 737 794 737 794 698 762.5 c 128,-1,45
 659 731 659 731 627 671 c 1,46,47
 630 648 630 648 632 624 c 128,-1,48
 634 600 634 600 634 574 c 0,49,50
 634 471 634 471 606 351.5 c 128,-1,51
 578 232 578 232 527 103 c 1,52,-1
 559 103 l 2,53,54
 610 103 610 103 610 53 c 0,55,56
 610 2 610 2 559 2 c 2,57,-1
 451 2 l 2,58,59
 425 2 425 2 411.5 17.5 c 128,-1,60
 398 33 398 33 398 47 c 0,61,62
 398 60 398 60 405 73 c 0,63,64
 469 221 469 221 500.5 347 c 128,-1,65
 532 473 532 473 532 576 c 0,66,67
 532 620 532 620 526 659.5 c 128,-1,68
 520 699 520 699 505 729 c 128,-1,69
 490 759 490 759 463.5 776.5 c 128,-1,70
 437 794 437 794 396 794 c 0,71,72
 350 794 350 794 307.5 767.5 c 128,-1,73
 265 741 265 741 231 690 c 1,74,-1
 231 103 l 1,75,-1
 264 103 l 2,76,77
 315 103 315 103 315 53 c 0,78,79
 315 2 315 2 264 2 c 2,80,-1
 117 2 l 2,81,82
 66 2 66 2 66 53 c 0,83,84
 66 103 66 103 117 103 c 2,85,-1
 129 103 l 1,86,-1
 129 781 l 1,87,-1
 90 781 l 2,0,1
EndSplineSet
EndChar

StartChar: z
Encoding: 122 122 64
Width: 657
GlyphClass: 1
Flags: W
LayerCount: 2
Fore
SplineSet
278 887 m 2,0,-1
 281 882 l 1,1,-1
 564 882 l 2,2,3
 615 882 615 882 615 831 c 0,4,5
 615 817 615 817 607 803 c 2,6,-1
 184 103 l 1,7,-1
 445 103 l 1,8,-1
 524 209 l 2,9,10
 540 231 540 231 562 231 c 0,11,12
 581 231 581 231 598.5 215.5 c 128,-1,13
 616 200 616 200 616 181 c 0,14,15
 616 169 616 169 610 157 c 2,16,-1
 527 -25 l 2,17,18
 511 -56 511 -56 485 -56 c 0,19,20
 463 -56 463 -56 449 -43.5 c 128,-1,21
 435 -31 435 -31 431 -13 c 2,22,-1
 428 2 l 1,23,-1
 95 2 l 2,24,25
 70 2 70 2 56 18 c 128,-1,26
 42 34 42 34 42 49 c 0,27,28
 42 56 42 56 44 63.5 c 128,-1,29
 46 71 46 71 51 79 c 2,30,-1
 475 781 l 1,31,-1
 293 781 l 1,32,-1
 153 657 l 1,33,-1
 153 658 l 1,34,35
 136 643 136 643 120 643 c 0,36,37
 110 643 110 643 100 647.5 c 128,-1,38
 90 652 90 652 82.5 659.5 c 128,-1,39
 75 667 75 667 70 675 c 128,-1,40
 65 683 65 683 65 691 c 0,41,42
 65 705 65 705 78 724 c 2,43,-1
 192 891 l 2,44,45
 198 900 198 900 212.5 907.5 c 128,-1,46
 227 915 227 915 238 915 c 0,47,48
 262 915 262 915 278 887 c 2,0,-1
EndSplineSet
EndChar

StartChar: l
Encoding: 108 108 65
Width: 328
GlyphClass: 1
Flags: W
LayerCount: 2
Fore
SplineSet
83 1252 m 2,0,1
 32 1252 32 1252 32 1302 c 0,2,3
 32 1353 32 1353 83 1353 c 2,4,-1
 167 1353 l 2,5,6
 218 1353 218 1353 218 1302 c 2,7,-1
 215 103 l 1,8,-1
 252 103 l 2,9,10
 303 103 303 103 303 53 c 0,11,12
 303 2 303 2 252 2 c 2,13,-1
 81 2 l 2,14,15
 30 2 30 2 30 53 c 0,16,17
 30 103 30 103 81 103 c 2,18,-1
 114 103 l 1,19,-1
 114 1252 l 1,20,-1
 83 1252 l 2,0,1
EndSplineSet
EndChar

StartChar: A
Encoding: 65 65 66
Width: 1049
GlyphClass: 1
Flags: W
LayerCount: 2
Fore
SplineSet
100 103 m 1,0,-1
 449 1261 l 1,1,-1
 415 1261 l 2,2,3
 364 1261 364 1261 364 1311 c 0,4,5
 364 1362 364 1362 415 1362 c 2,6,-1
 716 1362 l 2,7,8
 767 1362 767 1362 767 1311 c 0,9,10
 767 1261 767 1261 716 1261 c 2,11,-1
 679 1261 l 1,12,-1
 897 283 l 2,13,14
 898 273 898 273 900 270 c 2,15,-1
 937 103 l 1,16,-1
 968 103 l 2,17,18
 1019 103 1019 103 1019 53 c 0,19,20
 1019 2 1019 2 968 2 c 2,21,-1
 779 2 l 2,22,23
 728 2 728 2 728 53 c 0,24,25
 728 103 728 103 779 103 c 2,26,-1
 834 103 l 1,27,-1
 809 215 l 1,28,-1
 241 215 l 1,29,-1
 206 103 l 1,30,-1
 222 103 l 2,31,32
 273 103 273 103 273 53 c 0,33,34
 273 2 273 2 222 2 c 2,35,-1
 78 2 l 2,36,37
 27 2 27 2 27 53 c 0,38,39
 27 103 27 103 78 103 c 2,40,-1
 100 103 l 1,0,-1
555 1261 m 1,41,-1
 271 319 l 1,42,-1
 786 319 l 1,43,-1
 576 1261 l 1,44,-1
 555 1261 l 1,41,-1
EndSplineSet
EndChar

StartChar: W
Encoding: 87 87 67
Width: 1155
GlyphClass: 1
Flags: W
LayerCount: 2
Fore
SplineSet
78 1261 m 2,0,1
 27 1261 27 1261 27 1311 c 0,2,3
 27 1362 27 1362 78 1362 c 2,4,-1
 313 1362 l 2,5,6
 364 1362 364 1362 364 1311 c 0,7,8
 364 1261 364 1261 313 1261 c 2,9,-1
 260 1261 l 1,10,-1
 505 290 l 1,11,-1
 645 1049 l 2,12,13
 654 1090 654 1090 691 1090 c 0,14,15
 737 1090 737 1090 745 1048 c 2,16,-1
 869 304 l 1,17,-1
 1104 1261 l 1,18,-1
 1050 1261 l 2,19,20
 999 1261 999 1261 999 1311 c 0,21,22
 999 1362 999 1362 1050 1362 c 2,23,-1
 1288 1362 l 2,24,25
 1338 1362 1338 1362 1338 1311 c 0,26,27
 1338 1261 1338 1261 1288 1261 c 2,28,-1
 1208 1261 l 1,29,-1
 909 43 l 2,30,31
 901 2 901 2 855 2 c 0,32,33
 817 2 817 2 810 44 c 2,34,-1
 693 748 l 1,35,-1
 563 46 l 2,36,37
 559 26 559 26 545.5 13.5 c 128,-1,38
 532 1 532 1 508 1 c 0,39,40
 472 1 472 1 463 40 c 2,41,-1
 156 1261 l 1,42,-1
 78 1261 l 2,0,1
EndSplineSet
EndChar

StartChar: w
Encoding: 119 119 68
Width: 1088
GlyphClass: 1
Flags: W
LayerCount: 2
Fore
SplineSet
262 882 m 2,0,1
 313 882 313 882 313 831 c 0,2,3
 313 781 313 781 262 781 c 2,4,-1
 239 781 l 1,5,-1
 401 240 l 1,6,-1
 509 653 l 2,7,8
 518 691 518 691 553 691 c 0,9,10
 596 691 596 691 608 651 c 2,11,-1
 703 256 l 1,12,-1
 845 781 l 1,13,-1
 816 781 l 2,14,15
 765 781 765 781 765 831 c 0,16,17
 765 882 765 882 816 882 c 2,18,-1
 1008 882 l 2,19,20
 1059 882 1059 882 1059 831 c 0,21,22
 1059 781 1059 781 1008 781 c 2,23,-1
 950 781 l 1,24,-1
 749 39 l 2,25,26
 744 22 744 22 730.5 11.5 c 128,-1,27
 717 1 717 1 697 1 c 0,28,29
 660 1 660 1 651 41 c 2,30,-1
 556 433 l 1,31,-1
 454 43 l 2,32,33
 451 25 451 25 437 13 c 128,-1,34
 423 1 423 1 400 1 c 0,35,36
 366 1 366 1 356 38 c 2,37,-1
 133 781 l 1,38,-1
 79 781 l 2,39,40
 28 781 28 781 28 831 c 0,41,42
 28 882 28 882 79 882 c 2,43,-1
 262 882 l 2,0,1
EndSplineSet
EndChar

StartChar: N
Encoding: 78 78 69
Width: 1136
GlyphClass: 1
Flags: W
LayerCount: 2
Fore
SplineSet
88 1261 m 2,0,1
 37 1261 37 1261 37 1311 c 0,2,3
 37 1362 37 1362 88 1362 c 2,4,-1
 230 1362 l 2,5,6
 275 1362 275 1362 281 1316 c 0,7,8
 296 1191 296 1191 383.5 1097.5 c 128,-1,9
 471 1004 471 1004 624 946 c 0,10,11
 784 885 784 885 877 768 c 1,12,-1
 877 1261 l 1,13,-1
 808 1261 l 2,14,15
 757 1261 757 1261 757 1311 c 0,16,17
 757 1362 757 1362 808 1362 c 2,18,-1
 1047 1362 l 2,19,20
 1098 1362 1098 1362 1098 1311 c 0,21,22
 1098 1261 1098 1261 1047 1261 c 2,23,-1
 978 1261 l 1,24,-1
 978 103 l 1,25,-1
 1047 103 l 2,26,27
 1098 103 1098 103 1098 53 c 0,28,29
 1098 2 1098 2 1047 2 c 2,30,-1
 808 2 l 2,31,32
 757 2 757 2 757 53 c 0,33,34
 757 103 757 103 808 103 c 2,35,-1
 877 103 l 1,36,-1
 877 474 l 2,37,38
 877 537 877 537 857.5 594 c 128,-1,39
 838 651 838 651 801 699.5 c 128,-1,40
 764 748 764 748 710.5 786.5 c 128,-1,41
 657 825 657 825 589 851 c 0,42,43
 489 889 489 889 409.5 942 c 128,-1,44
 330 995 330 995 281 1064 c 1,45,-1
 282 103 l 1,46,-1
 351 103 l 2,47,48
 402 103 402 103 402 53 c 0,49,50
 402 2 402 2 351 2 c 2,51,-1
 112 2 l 2,52,53
 61 2 61 2 61 53 c 0,54,55
 61 103 61 103 112 103 c 2,56,-1
 181 103 l 1,57,-1
 181 1261 l 1,58,-1
 88 1261 l 2,0,1
EndSplineSet
EndChar

StartChar: Q
Encoding: 81 81 70
Width: 1095
GlyphClass: 1
Flags: W
LayerCount: 2
Fore
SplineSet
275 202 m 1,0,1
 281 235 281 235 297 262.5 c 128,-1,2
 313 290 313 290 335.5 310.5 c 128,-1,3
 358 331 358 331 386 342 c 128,-1,4
 414 353 414 353 445 353 c 0,5,6
 494 353 494 353 529 333 c 128,-1,7
 564 313 564 313 591 280.5 c 128,-1,8
 618 248 618 248 638 206 c 128,-1,9
 658 164 658 164 677 121 c 1,10,11
 740 159 740 159 790.5 218.5 c 128,-1,12
 841 278 841 278 877 352 c 128,-1,13
 913 426 913 426 933.5 511.5 c 128,-1,14
 954 597 954 597 958 687 c 1,15,-1
 958 722 l 2,16,17
 958 836 958 836 929 938.5 c 128,-1,18
 900 1041 900 1041 849.5 1118.5 c 128,-1,19
 799 1196 799 1196 730 1243 c 128,-1,20
 661 1290 661 1290 581 1294 c 1,21,-1
 570 1294 l 2,22,23
 509 1294 509 1294 453 1269.5 c 128,-1,24
 397 1245 397 1245 348 1201 c 128,-1,25
 299 1157 299 1157 259 1096 c 128,-1,26
 219 1035 219 1035 190.5 963.5 c 128,-1,27
 162 892 162 892 146.5 812 c 128,-1,28
 131 732 131 732 131 649 c 0,29,30
 131 517 131 517 166 400 c 128,-1,31
 201 283 201 283 275 202 c 1,0,1
716 27 m 1,32,33
 731 -7 731 -7 749 -38 c 128,-1,34
 767 -69 767 -69 789.5 -93 c 128,-1,35
 812 -117 812 -117 841 -131.5 c 128,-1,36
 870 -146 870 -146 908 -146 c 0,37,38
 959 -146 959 -146 959 -197 c 256,39,40
 959 -248 959 -248 908 -248 c 0,41,42
 848 -248 848 -248 803 -228 c 128,-1,43
 758 -208 758 -208 724.5 -175 c 128,-1,44
 691 -142 691 -142 666.5 -99 c 128,-1,45
 642 -56 642 -56 622 -10 c 1,46,47
 566 -24 566 -24 520 -24 c 2,48,-1
 505 -24 l 1,49,50
 402 -19 402 -19 315 36 c 128,-1,51
 228 91 228 91 164.5 182 c 128,-1,52
 101 273 101 273 65.5 393.5 c 128,-1,53
 30 514 30 514 30 649 c 0,54,55
 30 807 30 807 71.5 938.5 c 128,-1,56
 113 1070 113 1070 194 1182 c 0,57,58
 351 1396 351 1396 570 1396 c 0,59,60
 673 1396 673 1396 762.5 1342.5 c 128,-1,61
 852 1289 852 1289 918 1197.5 c 128,-1,62
 984 1106 984 1106 1022 983.5 c 128,-1,63
 1060 861 1060 861 1060 722 c 0,64,65
 1060 610 1060 610 1035.5 503.5 c 128,-1,66
 1011 397 1011 397 966 305.5 c 128,-1,67
 921 214 921 214 857.5 142 c 128,-1,68
 794 70 794 70 716 27 c 1,32,33
583 84 m 1,69,70
 569 117 569 117 554 147 c 128,-1,71
 539 177 539 177 522.5 200 c 128,-1,72
 506 223 506 223 486.5 237 c 128,-1,73
 467 251 467 251 445 251 c 0,74,75
 428 251 428 251 414.5 243 c 128,-1,76
 401 235 401 235 392 222.5 c 128,-1,77
 383 210 383 210 378 194.5 c 128,-1,78
 373 179 373 179 373 164 c 2,79,-1
 373 127 l 2,80,81
 373 122 373 122 385.5 114 c 128,-1,82
 398 106 398 106 417.5 98 c 128,-1,83
 437 90 437 90 461.5 84 c 128,-1,84
 486 78 486 78 509 77 c 2,85,-1
 520 77 l 2,86,87
 556 77 556 77 583 84 c 1,69,70
EndSplineSet
EndChar

StartChar: Z
Encoding: 90 90 71
Width: 1081
GlyphClass: 1
Flags: W
LayerCount: 2
Fore
SplineSet
234 1364 m 2,0,1
 249 1392 249 1392 273 1392 c 0,2,3
 287 1392 287 1392 302 1384 c 128,-1,4
 317 1376 317 1376 324 1360 c 1,5,6
 332 1362 332 1362 336 1362 c 2,7,-1
 907 1362 l 2,8,9
 958 1362 958 1362 958 1311 c 0,10,11
 958 1294 958 1294 948 1281 c 2,12,-1
 190 103 l 1,13,-1
 759 103 l 1,14,-1
 950 313 l 2,15,16
 966 331 966 331 986 331 c 0,17,18
 1004 331 1004 331 1021.5 315.5 c 128,-1,19
 1039 300 1039 300 1039 280 c 0,20,21
 1039 267 1039 267 1031 253 c 2,22,-1
 861 -43 l 2,23,24
 845 -71 845 -71 822 -71 c 0,25,26
 800 -71 800 -71 782.5 -55.5 c 128,-1,27
 765 -40 765 -40 765 -23 c 0,28,29
 765 -12 765 -12 771 2 c 1,30,-1
 98 2 l 2,31,32
 75 2 75 2 60 17.5 c 128,-1,33
 45 33 45 33 45 49 c 0,34,35
 46 56 46 56 48 64 c 128,-1,36
 50 72 50 72 55 80 c 2,37,-1
 814 1261 l 1,38,-1
 358 1261 l 1,39,-1
 190 1079 l 1,40,-1
 189 1080 l 1,41,42
 172 1062 172 1062 154 1062 c 0,43,44
 131 1062 131 1062 115 1077.5 c 128,-1,45
 99 1093 99 1093 99 1108 c 0,46,47
 99 1121 99 1121 108 1138 c 2,48,-1
 234 1364 l 2,0,1
EndSplineSet
EndChar

StartChar: Y
Encoding: 89 89 72
Width: 1267
GlyphClass: 1
Flags: W
LayerCount: 2
Fore
SplineSet
982 1261 m 2,0,1
 931 1261 931 1261 931 1311 c 0,2,3
 931 1362 931 1362 982 1362 c 2,4,-1
 1193 1362 l 2,5,6
 1244 1362 1244 1362 1244 1311 c 0,7,8
 1244 1261 1244 1261 1193 1261 c 2,9,-1
 1090 1261 l 1,10,-1
 841 447 l 2,11,12
 840 446 840 446 840 445 c 256,13,14
 840 444 840 444 839.5 442.5 c 128,-1,15
 839 441 839 441 839 439 c 2,16,-1
 811 350 l 2,17,18
 811 347 811 347 810 346 c 0,19,20
 680 0 680 0 442 0 c 0,21,22
 357 0 357 0 301.5 46 c 128,-1,23
 246 92 246 92 226 183 c 0,24,25
 223 197 223 197 221 209.5 c 128,-1,26
 219 222 219 222 219 235 c 0,27,28
 219 261 219 261 226.5 286 c 128,-1,29
 234 311 234 311 249 331 c 128,-1,30
 264 351 264 351 285.5 363 c 128,-1,31
 307 375 307 375 335 375 c 0,32,33
 378 375 378 375 400 346.5 c 128,-1,34
 422 318 422 318 422 276 c 0,35,36
 422 255 422 255 416.5 233 c 128,-1,37
 411 211 411 211 403 191 c 128,-1,38
 395 171 395 171 385 154.5 c 128,-1,39
 375 138 375 138 365 128 c 1,40,41
 376 114 376 114 397 107.5 c 128,-1,42
 418 101 418 101 440 101 c 0,43,44
 533 101 533 101 598.5 173.5 c 128,-1,45
 664 246 664 246 716 382 c 1,46,-1
 723 407 l 1,47,-1
 466 407 l 2,48,49
 427 407 427 407 417 444 c 2,50,-1
 148 1261 l 1,51,-1
 83 1261 l 2,52,53
 32 1261 32 1261 32 1311 c 0,54,55
 32 1362 32 1362 83 1362 c 2,56,-1
 286 1362 l 2,57,58
 337 1362 337 1362 337 1311 c 0,59,60
 337 1261 337 1261 286 1261 c 2,61,-1
 254 1261 l 1,62,-1
 503 509 l 1,63,-1
 754 509 l 1,64,-1
 984 1261 l 1,65,-1
 982 1261 l 2,0,1
EndSplineSet
EndChar

StartChar: parenleft
Encoding: 40 40 73
Width: 428
GlyphClass: 1
Flags: W
LayerCount: 2
Fore
SplineSet
281 1588 m 0,0,1
 295 1617 295 1617 319 1617 c 256,2,3
 343 1617 343 1617 358.5 1601.5 c 128,-1,4
 374 1586 374 1586 374 1571 c 0,5,6
 374 1558 374 1558 367 1545 c 0,7,8
 260 1327 260 1327 209.5 1112.5 c 128,-1,9
 159 898 159 898 159 681 c 0,10,11
 163 258 163 258 379 -167 c 0,12,13
 386 -180 386 -180 386 -193 c 0,14,15
 386 -208 386 -208 370 -223.5 c 128,-1,16
 354 -239 354 -239 330 -239 c 0,17,18
 317 -239 317 -239 309 -232 c 128,-1,19
 301 -225 301 -225 293 -211 c 0,20,21
 236 -100 236 -100 187 10.5 c 128,-1,22
 138 121 138 121 102.5 232.5 c 128,-1,23
 67 344 67 344 46.5 456.5 c 128,-1,24
 26 569 26 569 26 682 c 0,25,26
 26 794 26 794 45 907.5 c 128,-1,27
 64 1021 64 1021 98 1134.5 c 128,-1,28
 132 1248 132 1248 179 1361.5 c 128,-1,29
 226 1475 226 1475 281 1588 c 0,0,1
EndSplineSet
EndChar

StartChar: parenright
Encoding: 41 41 74
Width: 428
GlyphClass: 1
Flags: W
LayerCount: 2
Fore
SplineSet
147 1588 m 0,0,1
 202 1475 202 1475 249 1361.5 c 128,-1,2
 296 1248 296 1248 330 1134.5 c 128,-1,3
 364 1021 364 1021 383 907.5 c 128,-1,4
 402 794 402 794 402 682 c 0,5,6
 402 569 402 569 381.5 457 c 128,-1,7
 361 345 361 345 325 233.5 c 128,-1,8
 289 122 289 122 240 11 c 128,-1,9
 191 -100 191 -100 135 -211 c 0,10,11
 120 -239 120 -239 97 -239 c 0,12,13
 73 -239 73 -239 57.5 -223.5 c 128,-1,14
 42 -208 42 -208 42 -193 c 0,15,16
 42 -180 42 -180 49 -167 c 0,17,18
 265 258 265 258 269 681 c 0,19,20
 269 898 269 898 218 1112.5 c 128,-1,21
 167 1327 167 1327 61 1545 c 0,22,23
 54 1558 54 1558 54 1571 c 0,24,25
 54 1586 54 1586 69.5 1601.5 c 128,-1,26
 85 1617 85 1617 109 1617 c 256,27,28
 133 1617 133 1617 147 1588 c 0,0,1
EndSplineSet
EndChar

StartChar: u
Encoding: 117 117 75
Width: 785
GlyphClass: 1
Flags: W
LayerCount: 2
Fore
SplineSet
698 111 m 2,0,1
 749 111 749 111 749 61 c 0,2,3
 749 10 749 10 698 10 c 2,4,-1
 590 10 l 2,5,6
 540 10 540 10 540 61 c 2,7,-1
 540 67 l 1,8,9
 489 32 489 32 437.5 14.5 c 128,-1,10
 386 -3 386 -3 335 -3 c 0,11,12
 272 -3 272 -3 220.5 18 c 128,-1,13
 169 39 169 39 132.5 79.5 c 128,-1,14
 96 120 96 120 76.5 179.5 c 128,-1,15
 57 239 57 239 57 316 c 0,16,17
 57 419 57 419 89 538 c 128,-1,18
 121 657 121 657 184 789 c 1,19,-1
 137 789 l 2,20,21
 86 789 86 789 86 839 c 256,22,23
 86 889 86 889 137 889 c 2,24,-1
 267 889 l 2,25,26
 292 889 292 889 306.5 873.5 c 128,-1,27
 321 858 321 858 321 844 c 0,28,29
 321 831 321 831 312 816 c 0,30,31
 234 670 234 670 196.5 544 c 128,-1,32
 159 418 159 418 159 316 c 0,33,34
 159 274 159 274 166.5 234.5 c 128,-1,35
 174 195 174 195 193.5 164.5 c 128,-1,36
 213 134 213 134 245.5 116 c 128,-1,37
 278 98 278 98 329 98 c 0,38,39
 387 98 387 98 442 125.5 c 128,-1,40
 497 153 497 153 540 205 c 1,41,-1
 540 789 l 1,42,-1
 490 789 l 2,43,44
 439 789 439 789 439 839 c 256,45,46
 439 889 439 889 490 889 c 2,47,-1
 666 889 l 2,48,49
 717 889 717 889 717 839 c 256,50,51
 717 789 717 789 666 789 c 2,52,-1
 641 789 l 1,53,-1
 641 111 l 1,54,-1
 698 111 l 2,0,1
EndSplineSet
EndChar

StartChar: quotedblright
Encoding: 8221 8221 79
Width: 412
GlyphClass: 1
Flags: W
LayerCount: 2
Fore
SplineSet
291 1329 m 2,0,1
 303 1355 303 1355 325 1355 c 256,2,3
 347 1355 347 1355 360 1341.5 c 128,-1,4
 373 1328 373 1328 373 1315 c 0,5,6
 373 1309 373 1309 368 1294 c 2,7,-1
 253 1043 l 2,8,9
 241 1016 241 1016 219 1016 c 0,10,11
 199 1016 199 1016 184.5 1028.5 c 128,-1,12
 170 1041 170 1041 170 1055 c 0,13,14
 170 1064 170 1064 176 1078 c 2,15,-1
 291 1329 l 2,0,1
158 1329 m 2,16,17
 170 1355 170 1355 192 1355 c 256,18,19
 214 1355 214 1355 227 1341.5 c 128,-1,20
 240 1328 240 1328 240 1315 c 0,21,22
 240 1309 240 1309 235 1294 c 2,23,-1
 121 1043 l 2,24,25
 109 1016 109 1016 87 1016 c 0,26,27
 67 1016 67 1016 53 1028.5 c 128,-1,28
 39 1041 39 1041 39 1055 c 0,29,30
 39 1063 39 1063 44 1078 c 2,31,-1
 158 1329 l 2,16,17
EndSplineSet
EndChar

StartChar: quoteright
Encoding: 8217 8217 80
Width: 265
GlyphClass: 1
Flags: W
LayerCount: 2
Fore
SplineSet
151 1329 m 2,0,1
 163 1355 163 1355 185 1355 c 256,2,3
 207 1355 207 1355 220 1341.5 c 128,-1,4
 233 1328 233 1328 233 1315 c 0,5,6
 233 1309 233 1309 228 1294 c 2,7,-1
 114 1043 l 2,8,9
 102 1016 102 1016 80 1016 c 0,10,11
 60 1016 60 1016 46 1028.5 c 128,-1,12
 32 1041 32 1041 32 1055 c 0,13,14
 32 1063 32 1063 37 1078 c 2,15,-1
 151 1329 l 2,0,1
EndSplineSet
EndChar

StartChar: quotedblleft
Encoding: 8220 8220 81
Width: 412
GlyphClass: 1
Flags: W
LayerCount: 2
Fore
SplineSet
236 1078 m 2,0,1
 242 1064 242 1064 242 1055 c 0,2,3
 242 1041 242 1041 227.5 1028.5 c 128,-1,4
 213 1016 213 1016 192 1016 c 256,5,6
 171 1016 171 1016 159 1043 c 2,7,-1
 44 1294 l 2,8,9
 39 1309 39 1309 39 1315 c 0,10,11
 39 1328 39 1328 52 1341.5 c 128,-1,12
 65 1355 65 1355 87 1355 c 256,13,14
 109 1355 109 1355 121 1329 c 2,15,-1
 236 1078 l 2,0,1
368 1078 m 2,16,17
 373 1063 373 1063 373 1055 c 0,18,19
 373 1041 373 1041 359 1028.5 c 128,-1,20
 345 1016 345 1016 325 1016 c 0,21,22
 303 1016 303 1016 291 1043 c 2,23,-1
 177 1294 l 2,24,25
 172 1309 172 1309 172 1315 c 0,26,27
 172 1328 172 1328 185 1341.5 c 128,-1,28
 198 1355 198 1355 220 1355 c 256,29,30
 242 1355 242 1355 254 1329 c 2,31,-1
 368 1078 l 2,16,17
EndSplineSet
EndChar

StartChar: quoteleft
Encoding: 8216 8216 82
Width: 267
GlyphClass: 1
Flags: W
LayerCount: 2
Fore
SplineSet
229 1078 m 2,0,1
 235 1064 235 1064 235 1055 c 0,2,3
 235 1041 235 1041 220.5 1028.5 c 128,-1,4
 206 1016 206 1016 185 1016 c 256,5,6
 164 1016 164 1016 152 1043 c 2,7,-1
 37 1294 l 2,8,9
 32 1309 32 1309 32 1315 c 0,10,11
 32 1328 32 1328 45 1341.5 c 128,-1,12
 58 1355 58 1355 80 1355 c 256,13,14
 102 1355 102 1355 114 1329 c 2,15,-1
 229 1078 l 2,0,1
EndSplineSet
EndChar

StartChar: quotedblbase
Encoding: 8222 8222 83
Width: 412
GlyphClass: 1
Flags: W
LayerCount: 2
Fore
SplineSet
291 216 m 2,0,1
 303 242 303 242 325 242 c 256,2,3
 347 242 347 242 360 228.5 c 128,-1,4
 373 215 373 215 373 202 c 0,5,6
 373 196 373 196 368 181 c 2,7,-1
 253 -70 l 2,8,9
 241 -97 241 -97 219 -97 c 0,10,11
 199 -97 199 -97 184.5 -84.5 c 128,-1,12
 170 -72 170 -72 170 -58 c 0,13,14
 170 -49 170 -49 176 -35 c 2,15,-1
 291 216 l 2,0,1
158 216 m 2,16,17
 170 242 170 242 192 242 c 256,18,19
 214 242 214 242 227 228.5 c 128,-1,20
 240 215 240 215 240 202 c 0,21,22
 240 196 240 196 235 181 c 2,23,-1
 121 -70 l 2,24,25
 109 -97 109 -97 87 -97 c 0,26,27
 67 -97 67 -97 53 -84.5 c 128,-1,28
 39 -72 39 -72 39 -58 c 0,29,30
 39 -50 39 -50 44 -35 c 2,31,-1
 158 216 l 2,16,17
EndSplineSet
EndChar

StartChar: quotesinglbase
Encoding: 8218 8218 84
Width: 265
GlyphClass: 1
Flags: W
LayerCount: 2
Fore
SplineSet
151 216 m 2,0,1
 163 242 163 242 185 242 c 256,2,3
 207 242 207 242 220 228.5 c 128,-1,4
 233 215 233 215 233 202 c 0,5,6
 233 196 233 196 228 181 c 2,7,-1
 114 -70 l 2,8,9
 102 -97 102 -97 80 -97 c 0,10,11
 60 -97 60 -97 46 -84.5 c 128,-1,12
 32 -72 32 -72 32 -58 c 0,13,14
 32 -50 32 -50 37 -35 c 2,15,-1
 151 216 l 2,0,1
EndSplineSet
EndChar

StartChar: slash
Encoding: 47 47 85
Width: 629
GlyphClass: 1
Flags: W
LayerCount: 2
Fore
SplineSet
520 1486 m 2,0,1
 532 1512 532 1512 554 1512 c 256,2,3
 576 1512 576 1512 589 1498.5 c 128,-1,4
 602 1485 602 1485 602 1472 c 0,5,6
 602 1466 602 1466 597 1451 c 2,7,-1
 109 -70 l 1,8,9
 95 -97 95 -97 75 -97 c 256,10,11
 55 -97 55 -97 41 -84.5 c 128,-1,12
 27 -72 27 -72 27 -58 c 0,13,14
 27 -50 27 -50 32 -35 c 2,15,-1
 520 1486 l 2,0,1
EndSplineSet
EndChar

StartChar: backslash
Encoding: 92 92 86
Width: 629
GlyphClass: 1
Flags: W
LayerCount: 2
Fore
SplineSet
597 -35 m 2,0,1
 602 -50 602 -50 602 -58 c 0,2,3
 602 -72 602 -72 588 -84.5 c 128,-1,4
 574 -97 574 -97 554 -97 c 0,5,6
 533 -97 533 -97 520 -70 c 1,7,-1
 32 1451 l 2,8,9
 27 1466 27 1466 27 1472 c 0,10,11
 27 1485 27 1485 40 1498.5 c 128,-1,12
 53 1512 53 1512 75 1512 c 256,13,14
 97 1512 97 1512 109 1486 c 2,15,-1
 597 -35 l 2,0,1
EndSplineSet
EndChar

StartChar: hyphen
Encoding: 45 45 87
Width: 412
GlyphClass: 1
Flags: W
LayerCount: 2
Fore
SplineSet
100 697 m 2,0,1
 86 691 86 691 76 691 c 0,2,3
 62 691 62 691 49.5 705.5 c 128,-1,4
 37 720 37 720 37 740 c 0,5,6
 37 761 37 761 63 773 c 2,7,-1
 312 893 l 2,8,9
 324 899 324 899 334 899 c 0,10,11
 347 899 347 899 360 885.5 c 128,-1,12
 373 872 373 872 373 850 c 0,13,14
 373 829 373 829 348 817 c 2,15,-1
 100 697 l 2,0,1
102 565 m 2,16,17
 88 559 88 559 79 559 c 0,18,19
 64 559 64 559 52 573.5 c 128,-1,20
 40 588 40 588 40 607 c 0,21,22
 40 629 40 629 66 641 c 2,23,-1
 314 760 l 2,24,25
 326 766 326 766 336 766 c 0,26,27
 350 766 350 766 363 752.5 c 128,-1,28
 376 739 376 739 376 717 c 0,29,30
 376 696 376 696 351 684 c 2,31,-1
 102 565 l 2,16,17
EndSplineSet
EndChar

StartChar: Oslash
Encoding: 216 216 91
Width: 1095
GlyphClass: 1
Flags: W
LayerCount: 2
Fore
SplineSet
752 1486 m 2,0,1
 764 1512 764 1512 786 1512 c 256,2,3
 808 1512 808 1512 821 1498.5 c 128,-1,4
 834 1485 834 1485 834 1472 c 0,5,6
 834 1466 834 1466 829 1451 c 2,7,-1
 790 1329 l 1,8,9
 855 1284 855 1284 906 1219.5 c 128,-1,10
 957 1155 957 1155 991.5 1076 c 128,-1,11
 1026 997 1026 997 1044 907.5 c 128,-1,12
 1062 818 1062 818 1062 722 c 0,13,14
 1062 620 1062 620 1042.5 525.5 c 128,-1,15
 1023 431 1023 431 987 348 c 128,-1,16
 951 265 951 265 901.5 196.5 c 128,-1,17
 852 128 852 128 792 79 c 128,-1,18
 732 30 732 30 663.5 3 c 128,-1,19
 595 -24 595 -24 522 -24 c 2,20,-1
 507 -24 l 2,21,22
 469 -22 469 -22 433.5 -14 c 128,-1,23
 398 -6 398 -6 366 7 c 1,24,-1
 341 -70 l 1,25,26
 327 -97 327 -97 307 -97 c 256,27,28
 287 -97 287 -97 273 -84.5 c 128,-1,29
 259 -72 259 -72 259 -58 c 0,30,31
 259 -50 259 -50 264 -35 c 2,32,-1
 291 50 l 1,33,34
 230 93 230 93 182 157 c 128,-1,35
 134 221 134 221 100.5 299.5 c 128,-1,36
 67 378 67 378 49.5 467 c 128,-1,37
 32 556 32 556 32 649 c 0,38,39
 32 807 32 807 73.5 938.5 c 128,-1,40
 115 1070 115 1070 196 1182 c 0,41,42
 353 1396 353 1396 572 1396 c 0,43,44
 608 1396 608 1396 645 1388.5 c 128,-1,45
 682 1381 682 1381 714 1369 c 1,46,-1
 752 1486 l 2,0,1
511 77 m 2,47,-1
 522 77 l 2,48,49
 607 77 607 77 684 126 c 128,-1,50
 761 175 761 175 821 258.5 c 128,-1,51
 881 342 881 342 918 452.5 c 128,-1,52
 955 563 955 563 960 687 c 1,53,-1
 960 722 l 2,54,55
 960 800 960 800 946.5 874 c 128,-1,56
 933 948 933 948 907.5 1013 c 128,-1,57
 882 1078 882 1078 844 1133 c 128,-1,58
 806 1188 806 1188 757 1227 c 1,59,-1
 397 104 l 1,60,61
 451 78 451 78 511 77 c 2,47,-1
583 1294 m 2,62,-1
 572 1294 l 2,63,64
 511 1294 511 1294 455 1269.5 c 128,-1,65
 399 1245 399 1245 350 1201 c 128,-1,66
 301 1157 301 1157 261 1096 c 128,-1,67
 221 1035 221 1035 192.5 963.5 c 128,-1,68
 164 892 164 892 148.5 812 c 128,-1,69
 133 732 133 732 133 649 c 0,70,71
 133 493 133 493 180.5 365 c 128,-1,72
 228 237 228 237 324 152 c 1,73,-1
 683 1271 l 1,74,75
 633 1291 633 1291 583 1294 c 2,62,-1
EndSplineSet
EndChar

StartChar: semicolon
Encoding: 59 59 92
Width: 266
GlyphClass: 1
Flags: W
LayerCount: 2
Fore
SplineSet
116 -101 m 0,0,1
 101 -113 101 -113 87 -113 c 0,2,3
 72 -113 72 -113 58 -99 c 128,-1,4
 44 -85 44 -85 44 -68 c 0,5,6
 44 -59 44 -59 52.5 -47 c 128,-1,7
 61 -35 61 -35 73 -22.5 c 128,-1,8
 85 -10 85 -10 96.5 2.5 c 128,-1,9
 108 15 108 15 114 24 c 1,10,11
 85 35 85 35 70 61.5 c 128,-1,12
 55 88 55 88 55 117 c 0,13,14
 55 136 55 136 62 154 c 128,-1,15
 69 172 69 172 81 185.5 c 128,-1,16
 93 199 93 199 109.5 207 c 128,-1,17
 126 215 126 215 145 215 c 0,18,19
 163 215 163 215 179 207.5 c 128,-1,20
 195 200 195 200 207 186.5 c 128,-1,21
 219 173 219 173 226.5 155.5 c 128,-1,22
 234 138 234 138 234 117 c 0,23,24
 234 86 234 86 224 56 c 128,-1,25
 214 26 214 26 197.5 -2 c 128,-1,26
 181 -30 181 -30 159.5 -55 c 128,-1,27
 138 -80 138 -80 116 -101 c 0,0,1
145 466 m 256,28,29
 236 466 236 466 236 382 c 0,30,31
 236 299 236 299 145 299 c 256,32,33
 54 299 54 299 54 382 c 0,34,35
 54 466 54 466 145 466 c 256,28,29
EndSplineSet
EndChar

StartChar: period
Encoding: 46 46 93
Width: 258
GlyphClass: 1
Flags: W
LayerCount: 2
Fore
SplineSet
129 151 m 256,0,1
 220 151 220 151 220 67 c 0,2,3
 220 -16 220 -16 129 -16 c 256,4,5
 38 -16 38 -16 38 67 c 0,6,7
 38 151 38 151 129 151 c 256,0,1
EndSplineSet
EndChar

StartChar: acute
Encoding: 180 180 94
Width: 263
GlyphClass: 1
Flags: W
LayerCount: 2
Fore
SplineSet
134 1332 m 0,0,1
 148 1364 148 1364 173 1364 c 256,2,3
 198 1364 198 1364 215 1348.5 c 128,-1,4
 232 1333 232 1333 232 1317 c 0,5,6
 232 1309 232 1309 226.5 1295 c 128,-1,7
 221 1281 221 1281 209.5 1259 c 128,-1,8
 198 1237 198 1237 180 1205.5 c 128,-1,9
 162 1174 162 1174 137 1129 c 0,10,11
 75 1019 75 1019 50 1019 c 0,12,13
 38 1019 38 1019 38 1042 c 0,14,15
 38 1056 38 1056 44.5 1081.5 c 128,-1,16
 51 1107 51 1107 60.5 1137.5 c 128,-1,17
 70 1168 70 1168 82 1200 c 128,-1,18
 94 1232 94 1232 104.5 1259.5 c 128,-1,19
 115 1287 115 1287 123 1306.5 c 128,-1,20
 131 1326 131 1326 134 1332 c 0,0,1
EndSplineSet
EndChar

StartChar: grave
Encoding: 96 96 95
Width: 263
GlyphClass: 1
Flags: W
LayerCount: 2
Fore
SplineSet
129 1332 m 0,0,1
 132 1327 132 1327 140 1307 c 128,-1,2
 148 1287 148 1287 158.5 1259 c 128,-1,3
 169 1231 169 1231 181 1198.5 c 128,-1,4
 193 1166 193 1166 202.5 1135.5 c 128,-1,5
 212 1105 212 1105 218.5 1079.5 c 128,-1,6
 225 1054 225 1054 225 1041 c 0,7,8
 225 1019 225 1019 212 1019 c 0,9,10
 187 1019 187 1019 125 1129 c 0,11,12
 75 1217 75 1217 53 1259 c 128,-1,13
 31 1301 31 1301 31 1317 c 256,14,15
 31 1333 31 1333 48 1348.5 c 128,-1,16
 65 1364 65 1364 90 1364 c 256,17,18
 115 1364 115 1364 129 1332 c 0,0,1
EndSplineSet
EndChar

StartChar: oslash
Encoding: 248 248 103
Width: 742
GlyphClass: 1
Flags: W
LayerCount: 2
Fore
SplineSet
492 906 m 2,0,1
 504 932 504 932 526 932 c 256,2,3
 548 932 548 932 561 918.5 c 128,-1,4
 574 905 574 905 574 892 c 0,5,6
 574 886 574 886 569 871 c 2,7,-1
 552 819 l 1,8,9
 630 750 630 750 669.5 649.5 c 128,-1,10
 709 549 709 549 709 423 c 2,11,-1
 709 402 l 2,12,13
 706 303 706 303 677 216 c 128,-1,14
 648 129 648 129 600 64.5 c 128,-1,15
 552 0 552 0 489.5 -37.5 c 128,-1,16
 427 -75 427 -75 358 -75 c 0,17,18
 310 -75 310 -75 268 -58 c 1,19,-1
 257 -94 l 1,20,21
 243 -121 243 -121 223 -121 c 256,22,23
 203 -121 203 -121 189 -108.5 c 128,-1,24
 175 -96 175 -96 175 -82 c 0,25,26
 175 -74 175 -74 180 -59 c 2,27,-1
 194 -16 l 1,28,29
 155 15 155 15 125 58 c 128,-1,30
 95 101 95 101 74.5 153 c 128,-1,31
 54 205 54 205 43.5 263.5 c 128,-1,32
 33 322 33 322 33 384 c 2,33,-1
 33 405 l 2,34,35
 36 503 36 503 65 590 c 128,-1,36
 94 677 94 677 141.5 742 c 128,-1,37
 189 807 189 807 251.5 844.5 c 128,-1,38
 314 882 314 882 384 882 c 2,39,-1
 391 882 l 2,40,41
 437 880 437 880 478 864 c 1,42,-1
 492 906 l 2,0,1
389 781 m 2,43,-1
 384 781 l 2,44,45
 332 781 332 781 286.5 747.5 c 128,-1,46
 241 714 241 714 207 658.5 c 128,-1,47
 173 603 173 603 153.5 531.5 c 128,-1,48
 134 460 134 460 134 384 c 0,49,50
 134 293 134 293 157 221 c 128,-1,51
 180 149 180 149 228 91 c 1,52,-1
 447 767 l 1,53,54
 419 779 419 779 389 781 c 2,43,-1
354 26 m 2,55,-1
 358 26 l 2,56,57
 407 26 407 26 451.5 56.5 c 128,-1,58
 496 87 496 87 530 139 c 128,-1,59
 564 191 564 191 585 259.5 c 128,-1,60
 606 328 606 328 608 405 c 2,61,-1
 608 423 l 2,62,63
 608 513 608 513 585.5 582 c 128,-1,64
 563 651 563 651 517 711 c 1,65,-1
 299 37 l 1,66,67
 327 26 327 26 354 26 c 2,55,-1
EndSplineSet
EndChar

StartChar: quotedbl
Encoding: 34 34 105
Width: 412
GlyphClass: 1
Flags: W
LayerCount: 2
Fore
SplineSet
291 1329 m 2,0,1
 303 1355 303 1355 325 1355 c 256,2,3
 347 1355 347 1355 360 1341.5 c 128,-1,4
 373 1328 373 1328 373 1315 c 0,5,6
 373 1309 373 1309 368 1294 c 2,7,-1
 253 1043 l 2,8,9
 241 1016 241 1016 219 1016 c 0,10,11
 199 1016 199 1016 184.5 1028.5 c 128,-1,12
 170 1041 170 1041 170 1055 c 0,13,14
 170 1064 170 1064 176 1078 c 2,15,-1
 291 1329 l 2,0,1
158 1329 m 2,16,17
 170 1355 170 1355 192 1355 c 256,18,19
 214 1355 214 1355 227 1341.5 c 128,-1,20
 240 1328 240 1328 240 1315 c 0,21,22
 240 1309 240 1309 235 1294 c 2,23,-1
 121 1043 l 2,24,25
 109 1016 109 1016 87 1016 c 0,26,27
 67 1016 67 1016 53 1028.5 c 128,-1,28
 39 1041 39 1041 39 1055 c 0,29,30
 39 1063 39 1063 44 1078 c 2,31,-1
 158 1329 l 2,16,17
EndSplineSet
EndChar

StartChar: quotesingle
Encoding: 39 39 106
Width: 265
GlyphClass: 1
Flags: W
LayerCount: 2
Fore
SplineSet
151 1329 m 2,0,1
 163 1355 163 1355 185 1355 c 256,2,3
 207 1355 207 1355 220 1341.5 c 128,-1,4
 233 1328 233 1328 233 1315 c 0,5,6
 233 1309 233 1309 228 1294 c 2,7,-1
 114 1043 l 2,8,9
 102 1016 102 1016 80 1016 c 0,10,11
 60 1016 60 1016 46 1028.5 c 128,-1,12
 32 1041 32 1041 32 1055 c 0,13,14
 32 1063 32 1063 37 1078 c 2,15,-1
 151 1329 l 2,0,1
EndSplineSet
EndChar

StartChar: circumflex
Encoding: 710 710 108
Width: 464
GlyphClass: 1
Flags: W
LayerCount: 2
Fore
SplineSet
118 1137 m 2,0,1
 112 1128 112 1128 103 1121.5 c 128,-1,2
 94 1115 94 1115 85 1115 c 0,3,4
 78 1115 78 1115 70 1119 c 128,-1,5
 62 1123 62 1123 55 1129 c 128,-1,6
 48 1135 48 1135 43.5 1142.5 c 128,-1,7
 39 1150 39 1150 39 1157 c 0,8,9
 39 1169 39 1169 48 1184 c 0,10,11
 180 1384 180 1384 190 1402 c 1,12,13
 210 1421 210 1421 228 1421 c 0,14,15
 243 1421 243 1421 255 1407 c 2,16,-1
 414 1207 l 2,17,18
 426 1192 426 1192 426 1180 c 0,19,20
 426 1173 426 1173 422 1165.5 c 128,-1,21
 418 1158 418 1158 411 1152 c 128,-1,22
 404 1146 404 1146 396 1142 c 128,-1,23
 388 1138 388 1138 380 1138 c 0,24,25
 363 1138 363 1138 348 1156 c 2,26,-1
 230 1303 l 1,27,-1
 118 1137 l 2,0,1
EndSplineSet
EndChar

StartChar: uni0025
Encoding: 37 37 115
Width: 847
GlyphClass: 1
Flags: W
LayerCount: 2
Fore
SplineSet
621 1486 m 2,0,1
 633 1512 633 1512 655 1512 c 256,2,3
 677 1512 677 1512 690 1498.5 c 128,-1,4
 703 1485 703 1485 703 1472 c 0,5,6
 703 1466 703 1466 698 1451 c 2,7,-1
 210 -70 l 1,8,9
 196 -97 196 -97 176 -97 c 256,10,11
 156 -97 156 -97 142 -84.5 c 128,-1,12
 128 -72 128 -72 128 -58 c 0,13,14
 128 -50 128 -50 133 -35 c 2,15,-1
 621 1486 l 2,0,1
426 298 m 256,16,17
 426 360 426 360 441.5 415 c 128,-1,18
 457 470 457 470 484 510.5 c 128,-1,19
 511 551 511 551 547.5 574.5 c 128,-1,20
 584 598 584 598 626 598 c 256,21,22
 668 598 668 598 704.5 574.5 c 128,-1,23
 741 551 741 551 768 510.5 c 128,-1,24
 795 470 795 470 811 415 c 128,-1,25
 827 360 827 360 827 298 c 256,26,27
 827 236 827 236 811 181 c 128,-1,28
 795 126 795 126 768 85.5 c 128,-1,29
 741 45 741 45 704.5 21.5 c 128,-1,30
 668 -2 668 -2 626 -2 c 256,31,32
 584 -2 584 -2 547.5 21.5 c 128,-1,33
 511 45 511 45 484 85.5 c 128,-1,34
 457 126 457 126 441.5 181 c 128,-1,35
 426 236 426 236 426 298 c 256,16,17
499 297 m 256,36,37
 499 254 499 254 509 216.5 c 128,-1,38
 519 179 519 179 536.5 151 c 128,-1,39
 554 123 554 123 577 107 c 128,-1,40
 600 91 600 91 627 91 c 256,41,42
 654 91 654 91 677 107 c 128,-1,43
 700 123 700 123 717.5 151 c 128,-1,44
 735 179 735 179 745 216.5 c 128,-1,45
 755 254 755 254 755 297 c 256,46,47
 755 340 755 340 745 377.5 c 128,-1,48
 735 415 735 415 717.5 443 c 128,-1,49
 700 471 700 471 677 487.5 c 128,-1,50
 654 504 654 504 627 504 c 256,51,52
 600 504 600 504 577 487.5 c 128,-1,53
 554 471 554 471 536.5 443 c 128,-1,54
 519 415 519 415 509 377.5 c 128,-1,55
 499 340 499 340 499 297 c 256,36,37
9 1117 m 256,56,57
 9 1179 9 1179 24.5 1234 c 128,-1,58
 40 1289 40 1289 67 1329.5 c 128,-1,59
 94 1370 94 1370 130.5 1393.5 c 128,-1,60
 167 1417 167 1417 209 1417 c 256,61,62
 251 1417 251 1417 287.5 1393.5 c 128,-1,63
 324 1370 324 1370 351 1329.5 c 128,-1,64
 378 1289 378 1289 394 1234 c 128,-1,65
 410 1179 410 1179 410 1117 c 256,66,67
 410 1055 410 1055 394 1000 c 128,-1,68
 378 945 378 945 351 904.5 c 128,-1,69
 324 864 324 864 287.5 840.5 c 128,-1,70
 251 817 251 817 209 817 c 256,71,72
 167 817 167 817 130.5 840.5 c 128,-1,73
 94 864 94 864 67 904.5 c 128,-1,74
 40 945 40 945 24.5 1000 c 128,-1,75
 9 1055 9 1055 9 1117 c 256,56,57
82 1116 m 256,76,77
 82 1073 82 1073 92 1035.5 c 128,-1,78
 102 998 102 998 119.5 970 c 128,-1,79
 137 942 137 942 160 926 c 128,-1,80
 183 910 183 910 210 910 c 256,81,82
 237 910 237 910 260 926 c 128,-1,83
 283 942 283 942 300.5 970 c 128,-1,84
 318 998 318 998 328 1035.5 c 128,-1,85
 338 1073 338 1073 338 1116 c 256,86,87
 338 1159 338 1159 328 1196.5 c 128,-1,88
 318 1234 318 1234 300.5 1262 c 128,-1,89
 283 1290 283 1290 260 1306.5 c 128,-1,90
 237 1323 237 1323 210 1323 c 256,91,92
 183 1323 183 1323 160 1306.5 c 128,-1,93
 137 1290 137 1290 119.5 1262 c 128,-1,94
 102 1234 102 1234 92 1196.5 c 128,-1,95
 82 1159 82 1159 82 1116 c 256,76,77
EndSplineSet
EndChar

StartChar: AE
Encoding: 198 198 116
Width: 1421
GlyphClass: 1
Flags: W
LayerCount: 2
Fore
SplineSet
1054 1261 m 1,0,-1
 758 1261 l 1,1,-1
 758 882 l 1,2,-1
 811 882 l 1,3,4
 806 897 806 897 806 904 c 0,5,6
 806 914 806 914 811.5 923.5 c 128,-1,7
 817 933 817 933 824.5 940 c 128,-1,8
 832 947 832 947 841 951 c 128,-1,9
 850 955 850 955 858 955 c 0,10,11
 876 955 876 955 894 937 c 2,12,-1
 960 870 l 2,13,14
 961 865 961 865 966 864 c 2,15,-1
 1061 768 l 2,16,17
 1070 759 1070 759 1073.5 750 c 128,-1,18
 1077 741 1077 741 1078 732 c 0,19,20
 1078 723 1078 723 1073 714 c 128,-1,21
 1068 705 1068 705 1060 697 c 128,-1,22
 1052 689 1052 689 1042.5 684 c 128,-1,23
 1033 679 1033 679 1024 679 c 0,24,25
 1006 679 1006 679 988 697 c 2,26,-1
 906 781 l 1,27,-1
 758 781 l 1,28,-1
 758 103 l 1,29,-1
 1134 103 l 1,30,-1
 1285 266 l 2,31,32
 1300 283 1300 283 1321 283 c 0,33,34
 1344 283 1344 283 1359.5 265.5 c 128,-1,35
 1375 248 1375 248 1375 233 c 0,36,37
 1375 220 1375 220 1365 204 c 2,38,-1
 1226 -9 l 1,39,40
 1212 -23 1212 -23 1202.5 -29 c 128,-1,41
 1193 -35 1193 -35 1181 -35 c 0,42,43
 1161 -36 1161 -36 1144 -13 c 2,44,-1
 1132 2 l 1,45,-1
 592 2 l 2,46,47
 541 2 541 2 541 53 c 0,48,49
 541 103 541 103 592 103 c 2,50,-1
 656 103 l 1,51,-1
 656 215 l 1,52,-1
 241 215 l 1,53,-1
 206 103 l 1,54,-1
 222 103 l 2,55,56
 273 103 273 103 273 53 c 0,57,58
 273 2 273 2 222 2 c 2,59,-1
 78 2 l 2,60,61
 27 2 27 2 27 53 c 0,62,63
 27 103 27 103 78 103 c 2,64,-1
 100 103 l 1,65,-1
 449 1261 l 1,66,-1
 415 1261 l 2,67,68
 364 1261 364 1261 364 1311 c 0,69,70
 364 1362 364 1362 415 1362 c 2,71,-1
 1038 1362 l 1,72,-1
 1045 1380 l 2,73,74
 1052 1397 1052 1397 1061.5 1406 c 128,-1,75
 1071 1415 1071 1415 1086 1415 c 0,76,77
 1098 1415 1098 1415 1111 1408.5 c 128,-1,78
 1124 1402 1124 1402 1132 1393 c 2,79,-1
 1292 1184 l 2,80,81
 1305 1168 1305 1168 1305 1150 c 0,82,83
 1305 1142 1305 1142 1300.5 1133.5 c 128,-1,84
 1296 1125 1296 1125 1288.5 1117.5 c 128,-1,85
 1281 1110 1281 1110 1271.5 1105.5 c 128,-1,86
 1262 1101 1262 1101 1252 1101 c 0,87,88
 1234 1101 1234 1101 1219 1116 c 1,89,-1
 1218 1115 l 1,90,-1
 1054 1261 l 1,0,-1
555 1261 m 1,91,-1
 271 319 l 1,92,-1
 656 319 l 1,93,-1
 656 1261 l 1,94,-1
 589 1261 l 1,95,-1
 555 1261 l 1,91,-1
EndSplineSet
EndChar

StartChar: ae
Encoding: 230 230 117
Width: 1139
GlyphClass: 1
Flags: W
LayerCount: 2
Fore
SplineSet
1003 639 m 2,0,-1
 620 631 l 1,1,2
 610 610 610 610 604 585 c 128,-1,3
 598 560 598 560 594.5 534 c 128,-1,4
 591 508 591 508 589.5 482.5 c 128,-1,5
 588 457 588 457 588 436 c 0,6,7
 588 375 588 375 601 325 c 128,-1,8
 614 275 614 275 635.5 236 c 128,-1,9
 657 197 657 197 684 168.5 c 128,-1,10
 711 140 711 140 738.5 121 c 128,-1,11
 766 102 766 102 791.5 93 c 128,-1,12
 817 84 817 84 835 84 c 0,13,14
 874 84 874 84 915 112 c 128,-1,15
 956 140 956 140 998 200 c 0,16,17
 1014 224 1014 224 1036 224 c 0,18,19
 1046 224 1046 224 1056 219 c 128,-1,20
 1066 214 1066 214 1074 206.5 c 128,-1,21
 1082 199 1082 199 1087 190 c 128,-1,22
 1092 181 1092 181 1092 173 c 0,23,24
 1092 156 1092 156 1079 136 c 128,-1,25
 1066 116 1066 116 1047.5 96 c 128,-1,26
 1029 76 1029 76 1009.5 59 c 128,-1,27
 990 42 990 42 977 33 c 0,28,29
 909 -16 909 -16 835 -16 c 0,30,31
 763 -16 763 -16 699.5 25 c 128,-1,32
 636 66 636 66 574 147 c 1,33,-1
 485 36 l 1,34,35
 395 -33 395 -33 294 -33 c 0,36,37
 243 -33 243 -33 196 -13.5 c 128,-1,38
 149 6 149 6 113 48 c 128,-1,39
 77 90 77 90 55.5 155 c 128,-1,40
 34 220 34 220 34 311 c 0,41,42
 34 376 34 376 50.5 427 c 128,-1,43
 67 478 67 478 93.5 516 c 128,-1,44
 120 554 120 554 153 580.5 c 128,-1,45
 186 607 186 607 219 623.5 c 128,-1,46
 252 640 252 640 281 647.5 c 128,-1,47
 310 655 310 655 329 655 c 0,48,49
 330 655 330 655 331 654.5 c 128,-1,50
 332 654 332 654 333 654 c 2,51,-1
 335 654 l 1,52,53
 419 648 419 648 482 616 c 1,54,-1
 482 654 l 2,55,56
 482 684 482 684 473 711 c 128,-1,57
 464 738 464 738 447.5 758.5 c 128,-1,58
 431 779 431 779 407.5 791.5 c 128,-1,59
 384 804 384 804 354 804 c 0,60,61
 303 804 303 804 261 767.5 c 128,-1,62
 219 731 219 731 190 668 c 0,63,64
 175 637 175 637 150 637 c 0,65,66
 124 637 124 637 108 653 c 128,-1,67
 92 669 92 669 92 684 c 256,68,69
 92 699 92 699 99 712 c 0,70,71
 141 803 141 803 206.5 854 c 128,-1,72
 272 905 272 905 353 905 c 0,73,74
 390 905 390 905 423 893.5 c 128,-1,75
 456 882 456 882 484 861.5 c 128,-1,76
 512 841 512 841 533 813 c 128,-1,77
 554 785 554 785 566 751 c 1,78,-1
 567 749 l 1,79,-1
 567 750 l 1,80,81
 609 819 609 819 670 863 c 128,-1,82
 731 907 731 907 816 907 c 256,83,84
 901 907 901 907 958.5 860.5 c 128,-1,85
 1016 814 1016 814 1051 706 c 1,86,-1
 1050 706 l 1,87,88
 1053 697 1053 697 1053 688 c 0,89,90
 1053 641 1053 641 1003 639 c 2,0,-1
482 443 m 2,91,92
 482 491 482 491 443 522 c 128,-1,93
 404 553 404 553 325 553 c 0,94,95
 301 553 301 553 268.5 538 c 128,-1,96
 236 523 236 523 206 492 c 128,-1,97
 176 461 176 461 155.5 413 c 128,-1,98
 135 365 135 365 135 299 c 0,99,100
 135 190 135 190 176 128.5 c 128,-1,101
 217 67 217 67 296 67 c 0,102,103
 329 67 329 67 360 78.5 c 128,-1,104
 391 90 391 90 416 110 c 128,-1,105
 441 130 441 130 458.5 156 c 128,-1,106
 476 182 476 182 482 212 c 1,107,-1
 482 443 l 2,91,92
677 733 m 1,108,-1
 927 739 l 1,109,110
 909 773 909 773 884 789.5 c 128,-1,111
 859 806 859 806 821 806 c 0,112,113
 738 806 738 806 677 733 c 1,108,-1
EndSplineSet
EndChar

StartChar: degree
Encoding: 176 176 118
Width: 534
GlyphClass: 1
Flags: W
LayerCount: 2
Fore
SplineSet
44 1367 m 256,0,1
 44 1409 44 1409 60 1445.5 c 128,-1,2
 76 1482 76 1482 103 1509 c 128,-1,3
 130 1536 130 1536 166.5 1552 c 128,-1,4
 203 1568 203 1568 245 1568 c 256,5,6
 287 1568 287 1568 323.5 1552 c 128,-1,7
 360 1536 360 1536 387 1509 c 128,-1,8
 414 1482 414 1482 430 1445.5 c 128,-1,9
 446 1409 446 1409 446 1367 c 256,10,11
 446 1325 446 1325 430 1288.5 c 128,-1,12
 414 1252 414 1252 387 1225 c 128,-1,13
 360 1198 360 1198 323.5 1182.5 c 128,-1,14
 287 1167 287 1167 245 1167 c 256,15,16
 203 1167 203 1167 166.5 1182.5 c 128,-1,17
 130 1198 130 1198 103 1225 c 128,-1,18
 76 1252 76 1252 60 1288.5 c 128,-1,19
 44 1325 44 1325 44 1367 c 256,0,1
127 1362 m 256,20,21
 127 1335 127 1335 136.5 1311.5 c 128,-1,22
 146 1288 146 1288 162 1270.5 c 128,-1,23
 178 1253 178 1253 199.5 1243 c 128,-1,24
 221 1233 221 1233 245 1233 c 256,25,26
 269 1233 269 1233 290.5 1243 c 128,-1,27
 312 1253 312 1253 328 1270.5 c 128,-1,28
 344 1288 344 1288 353.5 1311.5 c 128,-1,29
 363 1335 363 1335 363 1362 c 256,30,31
 363 1389 363 1389 353.5 1412.5 c 128,-1,32
 344 1436 344 1436 328 1453.5 c 128,-1,33
 312 1471 312 1471 290.5 1481 c 128,-1,34
 269 1491 269 1491 245 1491 c 256,35,36
 221 1491 221 1491 199.5 1481 c 128,-1,37
 178 1471 178 1471 162 1453.5 c 128,-1,38
 146 1436 146 1436 136.5 1412.5 c 128,-1,39
 127 1389 127 1389 127 1362 c 256,20,21
EndSplineSet
EndChar

StartChar: Aring
Encoding: 197 197 119
Width: 1049
GlyphClass: 1
Flags: W
LayerCount: 2
Fore
SplineSet
365 1630 m 256,0,1
 365 1672 365 1672 381 1708.5 c 128,-1,2
 397 1745 397 1745 424 1772 c 128,-1,3
 451 1799 451 1799 487.5 1815 c 128,-1,4
 524 1831 524 1831 566 1831 c 256,5,6
 608 1831 608 1831 644.5 1815 c 128,-1,7
 681 1799 681 1799 708 1772 c 128,-1,8
 735 1745 735 1745 751 1708.5 c 128,-1,9
 767 1672 767 1672 767 1630 c 256,10,11
 767 1588 767 1588 751 1551.5 c 128,-1,12
 735 1515 735 1515 708 1488 c 128,-1,13
 681 1461 681 1461 644.5 1445.5 c 128,-1,14
 608 1430 608 1430 566 1430 c 256,15,16
 524 1430 524 1430 487.5 1445.5 c 128,-1,17
 451 1461 451 1461 424 1488 c 128,-1,18
 397 1515 397 1515 381 1551.5 c 128,-1,19
 365 1588 365 1588 365 1630 c 256,0,1
448 1625 m 256,20,21
 448 1598 448 1598 457.5 1574.5 c 128,-1,22
 467 1551 467 1551 483 1533.5 c 128,-1,23
 499 1516 499 1516 520.5 1506 c 128,-1,24
 542 1496 542 1496 566 1496 c 256,25,26
 590 1496 590 1496 611.5 1506 c 128,-1,27
 633 1516 633 1516 649 1533.5 c 128,-1,28
 665 1551 665 1551 674.5 1574.5 c 128,-1,29
 684 1598 684 1598 684 1625 c 256,30,31
 684 1652 684 1652 674.5 1675.5 c 128,-1,32
 665 1699 665 1699 649 1716.5 c 128,-1,33
 633 1734 633 1734 611.5 1744 c 128,-1,34
 590 1754 590 1754 566 1754 c 256,35,36
 542 1754 542 1754 520.5 1744 c 128,-1,37
 499 1734 499 1734 483 1716.5 c 128,-1,38
 467 1699 467 1699 457.5 1675.5 c 128,-1,39
 448 1652 448 1652 448 1625 c 256,20,21
100 103 m 1,40,-1
 449 1261 l 1,41,-1
 415 1261 l 2,42,43
 364 1261 364 1261 364 1311 c 0,44,45
 364 1362 364 1362 415 1362 c 2,46,-1
 716 1362 l 2,47,48
 767 1362 767 1362 767 1311 c 0,49,50
 767 1261 767 1261 716 1261 c 2,51,-1
 679 1261 l 1,52,-1
 897 283 l 2,53,54
 898 273 898 273 900 270 c 2,55,-1
 937 103 l 1,56,-1
 968 103 l 2,57,58
 1019 103 1019 103 1019 53 c 0,59,60
 1019 2 1019 2 968 2 c 2,61,-1
 779 2 l 2,62,63
 728 2 728 2 728 53 c 0,64,65
 728 103 728 103 779 103 c 2,66,-1
 834 103 l 1,67,-1
 809 215 l 1,68,-1
 241 215 l 1,69,-1
 206 103 l 1,70,-1
 222 103 l 2,71,72
 273 103 273 103 273 53 c 0,73,74
 273 2 273 2 222 2 c 2,75,-1
 78 2 l 2,76,77
 27 2 27 2 27 53 c 0,78,79
 27 103 27 103 78 103 c 2,80,-1
 100 103 l 1,40,-1
555 1261 m 1,81,-1
 271 319 l 1,82,-1
 786 319 l 1,83,-1
 576 1261 l 1,84,-1
 555 1261 l 1,81,-1
EndSplineSet
EndChar

StartChar: aring
Encoding: 229 229 120
Width: 700
GlyphClass: 1
Flags: W
LayerCount: 2
Fore
SplineSet
147 1161 m 256,0,1
 147 1203 147 1203 163 1239.5 c 128,-1,2
 179 1276 179 1276 206 1303 c 128,-1,3
 233 1330 233 1330 269.5 1346 c 128,-1,4
 306 1362 306 1362 348 1362 c 256,5,6
 390 1362 390 1362 426.5 1346 c 128,-1,7
 463 1330 463 1330 490 1303 c 128,-1,8
 517 1276 517 1276 533 1239.5 c 128,-1,9
 549 1203 549 1203 549 1161 c 256,10,11
 549 1119 549 1119 533 1082.5 c 128,-1,12
 517 1046 517 1046 490 1019 c 128,-1,13
 463 992 463 992 426.5 976.5 c 128,-1,14
 390 961 390 961 348 961 c 256,15,16
 306 961 306 961 269.5 976.5 c 128,-1,17
 233 992 233 992 206 1019 c 128,-1,18
 179 1046 179 1046 163 1082.5 c 128,-1,19
 147 1119 147 1119 147 1161 c 256,0,1
230 1156 m 256,20,21
 230 1129 230 1129 239.5 1105.5 c 128,-1,22
 249 1082 249 1082 265 1064.5 c 128,-1,23
 281 1047 281 1047 302.5 1037 c 128,-1,24
 324 1027 324 1027 348 1027 c 256,25,26
 372 1027 372 1027 393.5 1037 c 128,-1,27
 415 1047 415 1047 431 1064.5 c 128,-1,28
 447 1082 447 1082 456.5 1105.5 c 128,-1,29
 466 1129 466 1129 466 1156 c 256,30,31
 466 1183 466 1183 456.5 1206.5 c 128,-1,32
 447 1230 447 1230 431 1247.5 c 128,-1,33
 415 1265 415 1265 393.5 1275 c 128,-1,34
 372 1285 372 1285 348 1285 c 256,35,36
 324 1285 324 1285 302.5 1275 c 128,-1,37
 281 1265 281 1265 265 1247.5 c 128,-1,38
 249 1230 249 1230 239.5 1206.5 c 128,-1,39
 230 1183 230 1183 230 1156 c 256,20,21
482 443 m 2,40,41
 482 491 482 491 443 522 c 128,-1,42
 404 553 404 553 325 553 c 0,43,44
 301 553 301 553 268.5 538 c 128,-1,45
 236 523 236 523 206 492 c 128,-1,46
 176 461 176 461 155.5 413 c 128,-1,47
 135 365 135 365 135 299 c 0,48,49
 135 190 135 190 176 128.5 c 128,-1,50
 217 67 217 67 296 67 c 0,51,52
 329 67 329 67 360 78.5 c 128,-1,53
 391 90 391 90 416 110 c 128,-1,54
 441 130 441 130 458.5 156 c 128,-1,55
 476 182 476 182 482 212 c 1,56,-1
 482 443 l 2,40,41
335 654 m 1,57,58
 419 648 419 648 482 616 c 1,59,-1
 482 654 l 2,60,61
 482 684 482 684 473 711 c 128,-1,62
 464 738 464 738 447.5 758.5 c 128,-1,63
 431 779 431 779 407.5 791.5 c 128,-1,64
 384 804 384 804 354 804 c 0,65,66
 303 804 303 804 261 767.5 c 128,-1,67
 219 731 219 731 190 668 c 0,68,69
 175 637 175 637 150 637 c 0,70,71
 124 637 124 637 108 653 c 128,-1,72
 92 669 92 669 92 684 c 256,73,74
 92 699 92 699 99 712 c 0,75,76
 141 803 141 803 206.5 854 c 128,-1,77
 272 905 272 905 353 905 c 0,78,79
 402 905 402 905 444.5 885 c 128,-1,80
 487 865 487 865 518 831 c 128,-1,81
 549 797 549 797 566.5 751 c 128,-1,82
 584 705 584 705 584 654 c 2,83,-1
 584 293 l 1,84,85
 588 270 588 270 588 245 c 0,86,87
 588 221 588 221 584 201 c 1,88,-1
 584 103 l 1,89,-1
 617 103 l 2,90,91
 668 103 668 103 668 53 c 0,92,93
 668 2 668 2 617 2 c 2,94,-1
 533 2 l 2,95,96
 495 2 495 2 485 36 c 1,97,98
 395 -33 395 -33 294 -33 c 0,99,100
 243 -33 243 -33 196 -13.5 c 128,-1,101
 149 6 149 6 113 48 c 128,-1,102
 77 90 77 90 55.5 155 c 128,-1,103
 34 220 34 220 34 311 c 0,104,105
 34 376 34 376 50.5 427 c 128,-1,106
 67 478 67 478 93.5 516 c 128,-1,107
 120 554 120 554 153 580.5 c 128,-1,108
 186 607 186 607 219 623.5 c 128,-1,109
 252 640 252 640 281 647.5 c 128,-1,110
 310 655 310 655 329 655 c 0,111,112
 330 655 330 655 331 654.5 c 128,-1,113
 332 654 332 654 333 654 c 2,114,-1
 335 654 l 1,57,58
EndSplineSet
EndChar

StartChar: igrave
Encoding: 236 236 128
Width: 361
GlyphClass: 1
Flags: W
LayerCount: 2
Fore
SplineSet
69 781 m 2,0,1
 18 781 18 781 18 831 c 0,2,3
 18 882 18 882 69 882 c 2,4,-1
 174 882 l 2,5,6
 225 882 225 882 225 831 c 2,7,-1
 225 103 l 1,8,-1
 265 103 l 2,9,10
 316 103 316 103 316 53 c 0,11,12
 316 2 316 2 265 2 c 2,13,-1
 98 2 l 2,14,15
 48 2 48 2 48 53 c 0,16,17
 48 103 48 103 98 103 c 2,18,-1
 123 103 l 1,19,-1
 123 781 l 1,20,-1
 69 781 l 2,0,1
68 1326 m 0,21,22
 71 1321 71 1321 79 1301 c 128,-1,23
 87 1281 87 1281 97.5 1253 c 128,-1,24
 108 1225 108 1225 120 1192.5 c 128,-1,25
 132 1160 132 1160 141.5 1129.5 c 128,-1,26
 151 1099 151 1099 157.5 1073.5 c 128,-1,27
 164 1048 164 1048 164 1035 c 0,28,29
 164 1013 164 1013 151 1013 c 0,30,31
 126 1013 126 1013 64 1123 c 0,32,33
 14 1211 14 1211 -8 1253 c 128,-1,34
 -30 1295 -30 1295 -30 1311 c 256,35,36
 -30 1327 -30 1327 -13 1342.5 c 128,-1,37
 4 1358 4 1358 29 1358 c 256,38,39
 54 1358 54 1358 68 1326 c 0,21,22
EndSplineSet
EndChar

StartChar: iacute
Encoding: 237 237 129
Width: 361
GlyphClass: 1
Flags: W
LayerCount: 2
Fore
SplineSet
69 781 m 2,0,1
 18 781 18 781 18 831 c 0,2,3
 18 882 18 882 69 882 c 2,4,-1
 174 882 l 2,5,6
 225 882 225 882 225 831 c 2,7,-1
 225 103 l 1,8,-1
 265 103 l 2,9,10
 316 103 316 103 316 53 c 0,11,12
 316 2 316 2 265 2 c 2,13,-1
 98 2 l 2,14,15
 48 2 48 2 48 53 c 0,16,17
 48 103 48 103 98 103 c 2,18,-1
 123 103 l 1,19,-1
 123 781 l 1,20,-1
 69 781 l 2,0,1
247 1337 m 0,21,22
 261 1369 261 1369 286 1369 c 256,23,24
 311 1369 311 1369 328 1353.5 c 128,-1,25
 345 1338 345 1338 345 1322 c 0,26,27
 345 1314 345 1314 339.5 1300 c 128,-1,28
 334 1286 334 1286 322.5 1264 c 128,-1,29
 311 1242 311 1242 293 1210.5 c 128,-1,30
 275 1179 275 1179 250 1134 c 0,31,32
 188 1024 188 1024 163 1024 c 0,33,34
 151 1024 151 1024 151 1047 c 0,35,36
 151 1061 151 1061 157.5 1086.5 c 128,-1,37
 164 1112 164 1112 173.5 1142.5 c 128,-1,38
 183 1173 183 1173 195 1205 c 128,-1,39
 207 1237 207 1237 217.5 1264.5 c 128,-1,40
 228 1292 228 1292 236 1311.5 c 128,-1,41
 244 1331 244 1331 247 1337 c 0,21,22
EndSplineSet
EndChar

StartChar: icircumflex
Encoding: 238 238 130
Width: 361
GlyphClass: 1
Flags: W
LayerCount: 2
Fore
SplineSet
69 781 m 2,0,1
 18 781 18 781 18 831 c 0,2,3
 18 882 18 882 69 882 c 2,4,-1
 174 882 l 2,5,6
 225 882 225 882 225 831 c 2,7,-1
 225 103 l 1,8,-1
 265 103 l 2,9,10
 316 103 316 103 316 53 c 0,11,12
 316 2 316 2 265 2 c 2,13,-1
 98 2 l 2,14,15
 48 2 48 2 48 53 c 0,16,17
 48 103 48 103 98 103 c 2,18,-1
 123 103 l 1,19,-1
 123 781 l 1,20,-1
 69 781 l 2,0,1
2 1013 m 2,21,22
 -4 1004 -4 1004 -13 997.5 c 128,-1,23
 -22 991 -22 991 -31 991 c 0,24,25
 -38 991 -38 991 -46 995 c 128,-1,26
 -54 999 -54 999 -61 1005 c 128,-1,27
 -68 1011 -68 1011 -72.5 1018.5 c 128,-1,28
 -77 1026 -77 1026 -77 1033 c 0,29,30
 -77 1045 -77 1045 -68 1060 c 0,31,32
 64 1260 64 1260 74 1278 c 1,33,34
 94 1297 94 1297 112 1297 c 0,35,36
 127 1297 127 1297 139 1283 c 2,37,-1
 298 1083 l 2,38,39
 310 1068 310 1068 310 1056 c 0,40,41
 310 1049 310 1049 306 1041.5 c 128,-1,42
 302 1034 302 1034 295 1028 c 128,-1,43
 288 1022 288 1022 280 1018 c 128,-1,44
 272 1014 272 1014 264 1014 c 0,45,46
 247 1014 247 1014 232 1032 c 2,47,-1
 114 1179 l 1,48,-1
 2 1013 l 2,21,22
EndSplineSet
EndChar

StartChar: idieresis
Encoding: 239 239 131
Width: 361
GlyphClass: 1
Flags: W
LayerCount: 2
Fore
SplineSet
69 781 m 2,0,1
 18 781 18 781 18 831 c 0,2,3
 18 882 18 882 69 882 c 2,4,-1
 174 882 l 2,5,6
 225 882 225 882 225 831 c 2,7,-1
 225 103 l 1,8,-1
 265 103 l 2,9,10
 316 103 316 103 316 53 c 0,11,12
 316 2 316 2 265 2 c 2,13,-1
 98 2 l 2,14,15
 48 2 48 2 48 53 c 0,16,17
 48 103 48 103 98 103 c 2,18,-1
 123 103 l 1,19,-1
 123 781 l 1,20,-1
 69 781 l 2,0,1
113 1332 m 0,21,22
 127 1364 127 1364 153 1364 c 0,23,24
 177 1364 177 1364 194 1349 c 128,-1,25
 211 1334 211 1334 211 1316 c 0,26,27
 211 1300 211 1300 189 1257.5 c 128,-1,28
 167 1215 167 1215 117 1129 c 0,29,30
 52 1019 52 1019 29 1019 c 0,31,32
 18 1019 18 1019 18 1040 c 0,33,34
 18 1053 18 1053 24.5 1078 c 128,-1,35
 31 1103 31 1103 40.5 1133.5 c 128,-1,36
 50 1164 50 1164 62 1197 c 128,-1,37
 74 1230 74 1230 84.5 1258 c 128,-1,38
 95 1286 95 1286 103 1306 c 128,-1,39
 111 1326 111 1326 113 1332 c 0,21,22
246 1332 m 0,40,41
 260 1364 260 1364 285 1364 c 256,42,43
 310 1364 310 1364 327 1348.5 c 128,-1,44
 344 1333 344 1333 344 1317 c 0,45,46
 344 1309 344 1309 338.5 1295 c 128,-1,47
 333 1281 333 1281 321.5 1259 c 128,-1,48
 310 1237 310 1237 292 1205.5 c 128,-1,49
 274 1174 274 1174 249 1129 c 0,50,51
 187 1019 187 1019 162 1019 c 0,52,53
 150 1019 150 1019 150 1042 c 0,54,55
 150 1056 150 1056 156.5 1081.5 c 128,-1,56
 163 1107 163 1107 172.5 1137.5 c 128,-1,57
 182 1168 182 1168 194 1200 c 128,-1,58
 206 1232 206 1232 216.5 1259.5 c 128,-1,59
 227 1287 227 1287 235 1306.5 c 128,-1,60
 243 1326 243 1326 246 1332 c 0,40,41
EndSplineSet
EndChar

StartChar: germandbls
Encoding: 223 223 132
Width: 822
GlyphClass: 1
Flags: W
LayerCount: 2
Fore
SplineSet
315 -184 m 0,0,1
 315 -269 315 -269 232 -286 c 0,2,3
 220 -289 220 -289 220 -305 c 0,4,5
 220 -322 220 -322 221.5 -335.5 c 128,-1,6
 223 -349 223 -349 230 -364.5 c 128,-1,7
 237 -380 237 -380 250.5 -400 c 128,-1,8
 264 -420 264 -420 287 -451 c 0,9,10
 321 -496 321 -496 368 -520 c 128,-1,11
 415 -544 415 -544 472 -544 c 2,12,-1
 478 -544 l 2,13,14
 598 -541 598 -541 656 -437.5 c 128,-1,15
 714 -334 714 -334 714 -141 c 2,16,-1
 714 -115 l 2,17,18
 712 -61 712 -61 706.5 -6.5 c 128,-1,19
 701 48 701 48 676 92.5 c 128,-1,20
 651 137 651 137 598.5 165 c 128,-1,21
 546 193 546 193 451 193 c 0,22,23
 442 193 442 193 433 192.5 c 128,-1,24
 424 192 424 192 415 192 c 0,25,26
 392 192 392 192 378.5 204 c 128,-1,27
 365 216 365 216 365 240 c 0,28,29
 365 261 365 261 379 278 c 1,30,-1
 638 771 l 1,31,-1
 243 771 l 1,32,-1
 243 103 l 1,33,-1
 300 103 l 2,34,35
 350 103 350 103 350 53 c 0,36,37
 350 2 350 2 300 2 c 2,38,-1
 92 2 l 2,39,40
 41 2 41 2 41 53 c 0,41,42
 41 103 41 103 92 103 c 2,43,-1
 141 103 l 1,44,-1
 141 1000 l 2,45,46
 141 1072 141 1072 163 1134 c 128,-1,47
 185 1196 185 1196 227.5 1243 c 128,-1,48
 270 1290 270 1290 331.5 1321 c 128,-1,49
 393 1352 393 1352 473 1362 c 0,50,51
 481 1363 481 1363 488.5 1363.5 c 128,-1,52
 496 1364 496 1364 504 1364 c 0,53,54
 584 1364 584 1364 652 1317 c 1,55,56
 654 1337 654 1337 668 1350 c 128,-1,57
 682 1363 682 1363 708 1363 c 0,58,59
 742 1363 742 1363 751 1322 c 2,60,-1
 792 1123 l 2,61,62
 793 1118 793 1118 793.5 1114.5 c 128,-1,63
 794 1111 794 1111 794 1107 c 0,64,65
 794 1088 794 1088 780.5 1075 c 128,-1,66
 767 1062 767 1062 740 1062 c 0,67,68
 711 1062 711 1062 697 1091 c 0,69,70
 673 1139 673 1139 651 1171.5 c 128,-1,71
 629 1204 629 1204 606.5 1224 c 128,-1,72
 584 1244 584 1244 559 1253 c 128,-1,73
 534 1262 534 1262 505 1262 c 0,74,75
 442 1262 442 1262 393.5 1241.5 c 128,-1,76
 345 1221 345 1221 311.5 1185.5 c 128,-1,77
 278 1150 278 1150 260.5 1102.5 c 128,-1,78
 243 1055 243 1055 243 1000 c 2,79,-1
 243 872 l 1,80,-1
 746 872 l 2,81,82
 797 872 797 872 797 821 c 0,83,84
 797 800 797 800 782 785 c 1,85,-1
 522 290 l 1,86,87
 679 271 679 271 751 162 c 0,88,89
 771 132 771 132 783 98 c 128,-1,90
 795 64 795 64 801.5 28.5 c 128,-1,91
 808 -7 808 -7 810.5 -43 c 128,-1,92
 813 -79 813 -79 815 -113 c 2,93,-1
 815 -141 l 2,94,95
 815 -386 815 -386 728.5 -512.5 c 128,-1,96
 642 -639 642 -639 480 -644 c 1,97,-1
 472 -644 l 2,98,99
 391 -644 391 -644 326.5 -611.5 c 128,-1,100
 262 -579 262 -579 214 -521 c 0,101,102
 184 -484 184 -484 166 -451.5 c 128,-1,103
 148 -419 148 -419 138.5 -390.5 c 128,-1,104
 129 -362 129 -362 126.5 -338 c 128,-1,105
 124 -314 124 -314 124 -294 c 0,106,107
 124 -258 124 -258 130.5 -220.5 c 128,-1,108
 137 -183 137 -183 149.5 -152.5 c 128,-1,109
 162 -122 162 -122 181 -102 c 128,-1,110
 200 -82 200 -82 225 -82 c 0,111,112
 244 -82 244 -82 260.5 -90 c 128,-1,113
 277 -98 277 -98 289 -112 c 128,-1,114
 301 -126 301 -126 308 -144.5 c 128,-1,115
 315 -163 315 -163 315 -184 c 0,0,1
EndSplineSet
EndChar

StartChar: dollar
Encoding: 36 36 137
Width: 1055
GlyphClass: 1
Flags: W
LayerCount: 2
Fore
SplineSet
421 1435 m 2,0,1
 370 1435 370 1435 370 1485 c 0,2,3
 370 1536 370 1536 421 1536 c 2,4,-1
 619 1536 l 2,5,6
 670 1536 670 1536 670 1485 c 0,7,8
 670 1435 670 1435 619 1435 c 2,9,-1
 571 1435 l 1,10,-1
 571 1352 l 1,11,12
 617 1343 617 1343 657.5 1328 c 128,-1,13
 698 1313 698 1313 731 1294 c 1,14,-1
 730 1298 l 2,15,16
 726 1307 726 1307 726 1318 c 0,17,18
 726 1335 726 1335 741 1349 c 128,-1,19
 756 1363 756 1363 785 1363 c 0,20,21
 816 1363 816 1363 827 1325 c 2,22,-1
 897 1081 l 2,23,24
 900 1069 900 1069 900 1061 c 0,25,26
 900 1042 900 1042 885 1028 c 128,-1,27
 870 1014 870 1014 842 1014 c 0,28,29
 825 1014 825 1014 815.5 1023.5 c 128,-1,30
 806 1033 806 1033 800 1053 c 0,31,32
 778 1125 778 1125 720 1178 c 128,-1,33
 662 1231 662 1231 571 1250 c 1,34,-1
 571 778 l 1,35,36
 785 707 785 707 897 600.5 c 128,-1,37
 1009 494 1009 494 1009 342 c 0,38,39
 1009 256 1009 256 979.5 189 c 128,-1,40
 950 122 950 122 897.5 76.5 c 128,-1,41
 845 31 845 31 772.5 7 c 128,-1,42
 700 -17 700 -17 615 -17 c 0,43,44
 604 -17 604 -17 593 -16 c 128,-1,45
 582 -15 582 -15 571 -15 c 1,46,-1
 571 -79 l 1,47,-1
 619 -79 l 2,48,49
 670 -79 670 -79 670 -129 c 0,50,51
 670 -180 670 -180 619 -180 c 2,52,-1
 421 -180 l 2,53,54
 370 -180 370 -180 370 -129 c 0,55,56
 370 -79 370 -79 421 -79 c 2,57,-1
 469 -79 l 1,58,-1
 469 0 l 1,59,60
 403 14 403 14 343 45.5 c 128,-1,61
 283 77 283 77 226 122 c 1,62,-1
 230 111 l 2,63,64
 233 99 233 99 233 90 c 0,65,66
 233 72 233 72 218 57.5 c 128,-1,67
 203 43 203 43 175 43 c 0,68,69
 145 43 145 43 133 80 c 2,70,-1
 45 353 l 2,71,72
 42 363 42 363 42 372 c 0,73,74
 42 392 42 392 59 407 c 128,-1,75
 76 422 76 422 97 422 c 0,76,77
 121 422 121 422 137 394 c 0,78,79
 197 289 197 289 277 214.5 c 128,-1,80
 357 140 357 140 469 105 c 1,81,-1
 469 707 l 1,82,83
 384 740 384 740 315 774.5 c 128,-1,84
 246 809 246 809 197.5 849.5 c 128,-1,85
 149 890 149 890 123 937 c 128,-1,86
 97 984 97 984 97 1041 c 0,87,88
 97 1113 97 1113 123.5 1172.5 c 128,-1,89
 150 1232 150 1232 196.5 1274.5 c 128,-1,90
 243 1317 243 1317 306 1340.5 c 128,-1,91
 369 1364 369 1364 442 1364 c 0,92,93
 449 1364 449 1364 455.5 1364 c 128,-1,94
 462 1364 462 1364 469 1363 c 1,95,-1
 469 1435 l 1,96,-1
 421 1435 l 2,0,1
632 83 m 0,97,98
 692 83 692 83 742 100 c 128,-1,99
 792 117 792 117 829 150 c 128,-1,100
 866 183 866 183 886.5 230.5 c 128,-1,101
 907 278 907 278 907 340 c 0,102,103
 907 449 907 449 822 532.5 c 128,-1,104
 737 616 737 616 571 672 c 1,105,-1
 571 85 l 1,106,107
 585 84 585 84 600.5 83.5 c 128,-1,108
 616 83 616 83 632 83 c 0,97,98
444 1263 m 0,109,110
 391 1263 391 1263 346 1247.5 c 128,-1,111
 301 1232 301 1232 268 1203.5 c 128,-1,112
 235 1175 235 1175 216.5 1134 c 128,-1,113
 198 1093 198 1093 198 1042 c 0,114,115
 198 1009 198 1009 217.5 978 c 128,-1,116
 237 947 237 947 272.5 918 c 128,-1,117
 308 889 308 889 358 863 c 128,-1,118
 408 837 408 837 469 815 c 1,119,-1
 469 1262 l 1,120,121
 463 1263 463 1263 457 1263 c 128,-1,122
 451 1263 451 1263 444 1263 c 0,109,110
EndSplineSet
EndChar

StartChar: florin
Encoding: 402 402 138
Width: 465
GlyphClass: 1
Flags: W
LayerCount: 2
Fore
SplineSet
661 1317 m 1,0,1
 663 1337 663 1337 677 1350 c 128,-1,2
 691 1363 691 1363 717 1363 c 0,3,4
 751 1363 751 1363 760 1322 c 2,5,-1
 801 1123 l 2,6,7
 802 1118 802 1118 802.5 1114.5 c 128,-1,8
 803 1111 803 1111 803 1107 c 0,9,10
 803 1088 803 1088 789.5 1075 c 128,-1,11
 776 1062 776 1062 749 1062 c 0,12,13
 720 1062 720 1062 706 1091 c 0,14,15
 682 1139 682 1139 660 1171.5 c 128,-1,16
 638 1204 638 1204 615.5 1224 c 128,-1,17
 593 1244 593 1244 568 1253 c 128,-1,18
 543 1262 543 1262 514 1262 c 0,19,20
 451 1262 451 1262 402.5 1241.5 c 128,-1,21
 354 1221 354 1221 320.5 1185.5 c 128,-1,22
 287 1150 287 1150 269.5 1102.5 c 128,-1,23
 252 1055 252 1055 252 1000 c 2,24,-1
 252 898 l 1,25,-1
 337 897 l 2,26,27
 387 895 387 895 387 846 c 0,28,29
 387 794 387 794 336 796 c 2,30,-1
 252 797 l 1,31,-1
 253 -73 l 2,32,33
 253 -268 253 -268 191.5 -355.5 c 128,-1,34
 130 -443 130 -443 11 -443 c 0,35,36
 -33 -443 -33 -443 -71 -429.5 c 128,-1,37
 -109 -416 -109 -416 -137.5 -390.5 c 128,-1,38
 -166 -365 -166 -365 -182.5 -328.5 c 128,-1,39
 -199 -292 -199 -292 -199 -247 c 0,40,41
 -198 -231 -198 -231 -195.5 -214 c 128,-1,42
 -193 -197 -193 -197 -187 -183 c 128,-1,43
 -181 -169 -181 -169 -171.5 -160 c 128,-1,44
 -162 -151 -162 -151 -147 -151 c 0,45,46
 -119 -151 -119 -151 -104 -164.5 c 128,-1,47
 -89 -178 -89 -178 -89 -197 c 0,48,49
 -89 -202 -89 -202 -90.5 -207 c 128,-1,50
 -92 -212 -92 -212 -93.5 -218 c 128,-1,51
 -95 -224 -95 -224 -96.5 -233 c 128,-1,52
 -98 -242 -98 -242 -98 -256 c 0,53,54
 -98 -300 -98 -300 -65.5 -320.5 c 128,-1,55
 -33 -341 -33 -341 12 -341 c 0,56,57
 53 -341 53 -341 80 -324 c 128,-1,58
 107 -307 107 -307 123 -274 c 128,-1,59
 139 -241 139 -241 145.5 -192 c 128,-1,60
 152 -143 152 -143 152 -80 c 2,61,-1
 150 798 l 1,62,-1
 80 799 l 2,63,64
 30 799 30 799 30 849 c 256,65,66
 30 899 30 899 81 899 c 2,67,-1
 150 899 l 1,68,-1
 150 1000 l 2,69,70
 150 1072 150 1072 172 1134 c 128,-1,71
 194 1196 194 1196 236.5 1243 c 128,-1,72
 279 1290 279 1290 340.5 1321 c 128,-1,73
 402 1352 402 1352 482 1362 c 0,74,75
 490 1363 490 1363 497.5 1363.5 c 128,-1,76
 505 1364 505 1364 513 1364 c 0,77,78
 593 1364 593 1364 661 1317 c 1,0,1
EndSplineSet
EndChar

StartChar: equal
Encoding: 61 61 139
Width: 456
GlyphClass: 1
Flags: W
LayerCount: 2
Fore
SplineSet
329 724 m 2,0,1
 354 724 354 724 366.5 710.5 c 128,-1,2
 379 697 379 697 379 673 c 0,3,4
 379 646 379 646 366.5 634.5 c 128,-1,5
 354 623 354 623 328 623 c 2,6,-1
 76 625 l 2,7,8
 22 625 22 625 22 676 c 0,9,10
 22 726 22 726 73 726 c 2,11,-1
 329 724 l 2,0,1
328 897 m 2,12,13
 353 897 353 897 365.5 883.5 c 128,-1,14
 378 870 378 870 378 846 c 0,15,16
 378 819 378 819 365.5 807.5 c 128,-1,17
 353 796 353 796 327 796 c 2,18,-1
 75 798 l 2,19,20
 21 798 21 798 21 849 c 0,21,22
 21 899 21 899 72 899 c 2,23,-1
 328 897 l 2,12,13
EndSplineSet
EndChar

StartChar: Euro
Encoding: 8364 8364 140
Width: 984
GlyphClass: 1
Flags: W
LayerCount: 2
Fore
SplineSet
705 894 m 2,0,1
 755 892 755 892 755 843 c 0,2,3
 755 816 755 816 742.5 804.5 c 128,-1,4
 730 793 730 793 704 793 c 2,5,-1
 140 794 l 1,6,7
 138 777 138 777 137 759 c 128,-1,8
 136 741 136 741 136 722 c 1,9,-1
 562 721 l 2,10,11
 612 719 612 719 612 670 c 0,12,13
 612 643 612 643 599.5 631.5 c 128,-1,14
 587 620 587 620 561 620 c 2,15,-1
 138 621 l 1,16,17
 148 491 148 491 180.5 388.5 c 128,-1,18
 213 286 213 286 264.5 215.5 c 128,-1,19
 316 145 316 145 383.5 107.5 c 128,-1,20
 451 70 451 70 531 70 c 0,21,22
 604 70 604 70 662 94.5 c 128,-1,23
 720 119 720 119 761 166.5 c 128,-1,24
 802 214 802 214 824.5 282.5 c 128,-1,25
 847 351 847 351 849 439 c 0,26,27
 851 489 851 489 900 489 c 0,28,29
 926 489 926 489 938 475 c 128,-1,30
 950 461 950 461 950 437 c 0,31,32
 948 331 948 331 918.5 245 c 128,-1,33
 889 159 889 159 834.5 98 c 128,-1,34
 780 37 780 37 703 3.5 c 128,-1,35
 626 -30 626 -30 529 -30 c 0,36,37
 428 -30 428 -30 342 15.5 c 128,-1,38
 256 61 256 61 191.5 146 c 128,-1,39
 127 231 127 231 86.5 351.5 c 128,-1,40
 46 472 46 472 37 622 c 1,41,-1
 2 622 l 2,42,43
 -25 622 -25 622 -38.5 635.5 c 128,-1,44
 -52 649 -52 649 -52 673 c 0,45,46
 -52 723 -52 723 -1 723 c 2,47,-1
 35 723 l 1,48,49
 35 760 35 760 38 795 c 1,50,-1
 1 795 l 2,51,52
 -26 795 -26 795 -39.5 808.5 c 128,-1,53
 -53 822 -53 822 -53 846 c 0,54,55
 -53 896 -53 896 -2 896 c 2,56,-1
 53 896 l 1,57,58
 77 1006 77 1006 122.5 1096.5 c 128,-1,59
 168 1187 168 1187 228 1252.5 c 128,-1,60
 288 1318 288 1318 359 1355.5 c 128,-1,61
 430 1393 430 1393 505 1397 c 1,62,-1
 534 1397 l 1,63,64
 635 1390 635 1390 710 1339 c 1,65,66
 712 1359 712 1359 725.5 1372.5 c 128,-1,67
 739 1386 739 1386 765 1386 c 0,68,69
 798 1386 798 1386 810 1347 c 2,70,-1
 872 1095 l 2,71,72
 873 1090 873 1090 873.5 1086.5 c 128,-1,73
 874 1083 874 1083 874 1079 c 0,74,75
 874 1059 874 1059 859 1045 c 128,-1,76
 844 1031 844 1031 815 1031 c 0,77,78
 798 1031 798 1031 788.5 1040.5 c 128,-1,79
 779 1050 779 1050 774 1069 c 0,80,81
 741 1181 741 1181 679.5 1236 c 128,-1,82
 618 1291 618 1291 530 1296 c 1,83,-1
 510 1296 l 1,84,85
 453 1292 453 1292 400.5 1263 c 128,-1,86
 348 1234 348 1234 303.5 1184.5 c 128,-1,87
 259 1135 259 1135 223.5 1069 c 128,-1,88
 188 1003 188 1003 166 926 c 0,89,90
 164 918 164 918 162 910.5 c 128,-1,91
 160 903 160 903 158 895 c 1,92,-1
 705 894 l 2,0,1
EndSplineSet
EndChar

StartChar: section
Encoding: 167 167 141
Width: 587
GlyphClass: 1
Flags: W
LayerCount: 2
Fore
SplineSet
204 37 m 1,0,1
 193 1 193 1 151 1 c 0,2,3
 118 1 118 1 108 40 c 2,4,-1
 56 236 l 2,5,6
 55 241 55 241 54.5 245.5 c 128,-1,7
 54 250 54 250 54 254 c 0,8,9
 54 273 54 273 68.5 286.5 c 128,-1,10
 83 300 83 300 111 300 c 0,11,12
 143 300 143 300 154 262 c 0,13,14
 174 193 174 193 207.5 157 c 128,-1,15
 241 121 241 121 292 121 c 0,16,17
 318 121 318 121 339.5 128.5 c 128,-1,18
 361 136 361 136 376 148.5 c 128,-1,19
 391 161 391 161 399.5 177 c 128,-1,20
 408 193 408 193 408 210 c 0,21,22
 408 237 408 237 401 258 c 128,-1,23
 394 279 394 279 377.5 296 c 128,-1,24
 361 313 361 313 334.5 327.5 c 128,-1,25
 308 342 308 342 269 356 c 0,26,27
 160 395 160 395 98.5 482 c 128,-1,28
 37 569 37 569 37 692 c 0,29,30
 37 759 37 759 65.5 810.5 c 128,-1,31
 94 862 94 862 139 891 c 1,32,33
 93 925 93 925 70.5 968 c 128,-1,34
 48 1011 48 1011 48 1073 c 0,35,36
 48 1110 48 1110 63.5 1145 c 128,-1,37
 79 1180 79 1180 108 1206.5 c 128,-1,38
 137 1233 137 1233 177.5 1249 c 128,-1,39
 218 1265 218 1265 268 1265 c 0,40,41
 290 1265 290 1265 311.5 1261 c 128,-1,42
 333 1257 333 1257 353 1248 c 1,43,44
 364 1284 364 1284 406 1284 c 0,45,46
 438 1284 438 1284 449 1245 c 2,47,-1
 501 1049 l 2,48,49
 502 1044 502 1044 502.5 1039.5 c 128,-1,50
 503 1035 503 1035 503 1031 c 0,51,52
 503 1012 503 1012 488.5 998.5 c 128,-1,53
 474 985 474 985 446 985 c 0,54,55
 414 985 414 985 403 1023 c 0,56,57
 383 1092 383 1092 349.5 1128 c 128,-1,58
 316 1164 316 1164 265 1164 c 0,59,60
 239 1164 239 1164 217.5 1156.5 c 128,-1,61
 196 1149 196 1149 181 1136.5 c 128,-1,62
 166 1124 166 1124 157.5 1108 c 128,-1,63
 149 1092 149 1092 149 1075 c 0,64,65
 149 1048 149 1048 156 1027 c 128,-1,66
 163 1006 163 1006 179.5 989 c 128,-1,67
 196 972 196 972 222.5 957.5 c 128,-1,68
 249 943 249 943 288 929 c 0,69,70
 397 890 397 890 458.5 803 c 128,-1,71
 520 716 520 716 520 593 c 0,72,73
 520 528 520 528 491.5 474 c 128,-1,74
 463 420 463 420 418 394 c 1,75,76
 463 361 463 361 486 317.5 c 128,-1,77
 509 274 509 274 509 212 c 0,78,79
 509 174 509 174 493.5 139.5 c 128,-1,80
 478 105 478 105 449 78.5 c 128,-1,81
 420 52 420 52 379.5 36 c 128,-1,82
 339 20 339 20 289 20 c 0,83,84
 267 20 267 20 245.5 24 c 128,-1,85
 224 28 224 28 204 37 c 1,0,1
308 467 m 2,86,-1
 323 467 l 2,87,88
 349 468 349 468 367 480.5 c 128,-1,89
 385 493 385 493 396.5 512.5 c 128,-1,90
 408 532 408 532 413 557.5 c 128,-1,91
 418 583 418 583 418 611 c 0,92,93
 416 651 416 651 403.5 687.5 c 128,-1,94
 391 724 391 724 369.5 752 c 128,-1,95
 348 780 348 780 317.5 797.5 c 128,-1,96
 287 815 287 815 249 818 c 2,97,-1
 234 818 l 2,98,99
 208 817 208 817 190 804.5 c 128,-1,100
 172 792 172 792 160.5 772.5 c 128,-1,101
 149 753 149 753 144 727.5 c 128,-1,102
 139 702 139 702 139 674 c 0,103,104
 141 634 141 634 153.5 597.5 c 128,-1,105
 166 561 166 561 187.5 532.5 c 128,-1,106
 209 504 209 504 239 486 c 128,-1,107
 269 468 269 468 308 467 c 2,86,-1
EndSplineSet
EndChar

StartChar: bracketright
Encoding: 93 93 142
Width: 328
GlyphClass: 1
Flags: W
LayerCount: 2
Fore
SplineSet
83 1447 m 2,0,1
 32 1447 32 1447 32 1497 c 0,2,3
 32 1548 32 1548 83 1548 c 2,4,-1
 167 1548 l 2,5,6
 218 1548 218 1548 218 1497 c 2,7,-1
 218 -105 l 2,8,9
 218 -156 218 -156 167 -156 c 2,10,-1
 83 -156 l 2,11,12
 32 -156 32 -156 32 -105 c 0,13,14
 32 -55 32 -55 83 -55 c 2,15,-1
 114 -55 l 1,16,-1
 114 1447 l 1,17,-1
 83 1447 l 2,0,1
EndSplineSet
EndChar

StartChar: bracketleft
Encoding: 91 91 143
Width: 328
GlyphClass: 1
Flags: W
LayerCount: 2
Fore
SplineSet
136 1447 m 1,0,-1
 136 -55 l 1,1,-1
 167 -55 l 2,2,3
 218 -55 218 -55 218 -105 c 0,4,5
 218 -156 218 -156 167 -156 c 2,6,-1
 83 -156 l 2,7,8
 32 -156 32 -156 32 -105 c 2,9,-1
 32 1497 l 2,10,11
 32 1548 32 1548 83 1548 c 2,12,-1
 167 1548 l 2,13,14
 218 1548 218 1548 218 1497 c 0,15,16
 218 1447 218 1447 167 1447 c 2,17,-1
 136 1447 l 1,0,-1
EndSplineSet
EndChar

StartChar: sterling
Encoding: 163 163 144
Width: 930
GlyphClass: 1
Flags: W
LayerCount: 2
Fore
SplineSet
663 103 m 1,0,-1
 814 266 l 2,1,2
 829 283 829 283 850 283 c 0,3,4
 873 283 873 283 888.5 265.5 c 128,-1,5
 904 248 904 248 904 233 c 0,6,7
 904 220 904 220 894 204 c 2,8,-1
 755 -9 l 1,9,10
 741 -23 741 -23 731.5 -29 c 128,-1,11
 722 -35 722 -35 710 -35 c 0,12,13
 690 -36 690 -36 673 -13 c 2,14,-1
 661 2 l 1,15,-1
 101 2 l 2,16,17
 50 2 50 2 50 53 c 0,18,19
 50 103 50 103 101 103 c 2,20,-1
 150 103 l 1,21,-1
 150 448 l 1,22,-1
 80 449 l 2,23,24
 30 449 30 449 30 499 c 256,25,26
 30 549 30 549 81 549 c 2,27,-1
 150 549 l 1,28,-1
 150 1000 l 2,29,30
 150 1072 150 1072 172 1134 c 128,-1,31
 194 1196 194 1196 236.5 1243 c 128,-1,32
 279 1290 279 1290 340.5 1321 c 128,-1,33
 402 1352 402 1352 482 1362 c 0,34,35
 490 1363 490 1363 497.5 1363.5 c 128,-1,36
 505 1364 505 1364 513 1364 c 0,37,38
 593 1364 593 1364 661 1317 c 1,39,40
 663 1337 663 1337 677 1350 c 128,-1,41
 691 1363 691 1363 717 1363 c 0,42,43
 751 1363 751 1363 760 1322 c 2,44,-1
 801 1123 l 2,45,46
 802 1118 802 1118 802.5 1114.5 c 128,-1,47
 803 1111 803 1111 803 1107 c 0,48,49
 803 1088 803 1088 789.5 1075 c 128,-1,50
 776 1062 776 1062 749 1062 c 0,51,52
 720 1062 720 1062 706 1091 c 0,53,54
 682 1139 682 1139 660 1171.5 c 128,-1,55
 638 1204 638 1204 615.5 1224 c 128,-1,56
 593 1244 593 1244 568 1253 c 128,-1,57
 543 1262 543 1262 514 1262 c 0,58,59
 451 1262 451 1262 402.5 1241.5 c 128,-1,60
 354 1221 354 1221 320.5 1185.5 c 128,-1,61
 287 1150 287 1150 269.5 1102.5 c 128,-1,62
 252 1055 252 1055 252 1000 c 2,63,-1
 252 548 l 1,64,-1
 337 547 l 2,65,66
 387 545 387 545 387 496 c 0,67,68
 387 444 387 444 336 446 c 2,69,-1
 252 447 l 1,70,-1
 252 103 l 1,71,-1
 663 103 l 1,0,-1
EndSplineSet
EndChar

StartChar: ellipsis
Encoding: 8230 8230 145
Width: 774
GlyphClass: 1
Flags: W
LayerCount: 2
Fore
SplineSet
299 68 m 2,0,1
 299 118 299 118 350 118 c 0,2,3
 400 118 400 118 400 68 c 2,4,-1
 400 53 l 2,5,6
 400 2 400 2 350 2 c 0,7,8
 299 2 299 2 299 53 c 2,9,-1
 299 68 l 2,0,1
559 68 m 2,10,11
 559 118 559 118 610 118 c 0,12,13
 660 118 660 118 660 68 c 2,14,-1
 660 53 l 2,15,16
 660 2 660 2 610 2 c 0,17,18
 559 2 559 2 559 53 c 2,19,-1
 559 68 l 2,10,11
33 68 m 2,20,21
 33 118 33 118 84 118 c 0,22,23
 134 118 134 118 134 68 c 2,24,-1
 134 53 l 2,25,26
 134 2 134 2 84 2 c 0,27,28
 33 2 33 2 33 53 c 2,29,-1
 33 68 l 2,20,21
EndSplineSet
EndChar

StartChar: paragraph
Encoding: 182 182 151
Width: 967
GlyphClass: 1
Flags: W
LayerCount: 2
Fore
SplineSet
331 1362 m 2,0,-1
 869 1362 l 2,1,2
 920 1362 920 1362 920 1311 c 0,3,4
 920 1261 920 1261 869 1261 c 2,5,-1
 821 1261 l 1,6,-1
 821 103 l 1,7,-1
 869 103 l 2,8,9
 920 103 920 103 920 53 c 0,10,11
 920 2 920 2 869 2 c 2,12,-1
 671 2 l 2,13,14
 620 2 620 2 620 53 c 0,15,16
 620 103 620 103 671 103 c 2,17,-1
 719 103 l 1,18,-1
 719 1261 l 1,19,-1
 447 1261 l 1,20,-1
 447 641 l 1,21,22
 453 656 453 656 457.5 671 c 128,-1,23
 462 686 462 686 468 698 c 128,-1,24
 474 710 474 710 482.5 718 c 128,-1,25
 491 726 491 726 506 726 c 0,26,27
 535 726 535 726 549 713 c 128,-1,28
 563 700 563 700 563 681 c 0,29,30
 563 677 563 677 562.5 672.5 c 128,-1,31
 562 668 562 668 561 663 c 0,32,33
 545 600 545 600 516.5 554.5 c 128,-1,34
 488 509 488 509 447 477 c 1,35,-1
 447 103 l 1,36,-1
 495 103 l 2,37,38
 546 103 546 103 546 53 c 0,39,40
 546 2 546 2 495 2 c 2,41,-1
 297 2 l 2,42,43
 246 2 246 2 246 53 c 0,44,45
 246 103 246 103 297 103 c 2,46,-1
 345 103 l 1,47,-1
 345 434 l 1,48,49
 340 433 340 433 334.5 433 c 128,-1,50
 329 433 329 433 324 432 c 2,51,-1
 307 432 l 2,52,53
 247 432 247 432 195 470.5 c 128,-1,54
 143 509 143 509 104.5 573.5 c 128,-1,55
 66 638 66 638 44 722.5 c 128,-1,56
 22 807 22 807 22 899 c 2,57,-1
 22 904 l 1,58,59
 28 1011 28 1011 51 1096 c 128,-1,60
 74 1181 74 1181 113 1240 c 128,-1,61
 152 1299 152 1299 207 1330.5 c 128,-1,62
 262 1362 262 1362 331 1362 c 2,0,-1
345 1261 m 1,63,-1
 338 1261 l 2,64,65
 335 1260 335 1260 327 1260 c 0,66,67
 282 1260 282 1260 247 1236 c 128,-1,68
 212 1212 212 1212 186.5 1165.5 c 128,-1,69
 161 1119 161 1119 145 1051.5 c 128,-1,70
 129 984 129 984 123 898 c 1,71,-1
 123 897 l 2,72,73
 123 829 123 829 138 764 c 128,-1,74
 153 699 153 699 178.5 648 c 128,-1,75
 204 597 204 597 237.5 565 c 128,-1,76
 271 533 271 533 309 532 c 2,77,-1
 317 532 l 2,78,79
 324 533 324 533 331 534 c 128,-1,80
 338 535 338 535 345 537 c 1,81,-1
 345 1261 l 1,63,-1
394 1352 m 1,82,83
 394 1357 394 1357 393 1357 c 256,84,85
 392 1357 392 1357 392 1356 c 256,86,87
 392 1355 392 1355 391.5 1354.5 c 128,-1,88
 391 1354 391 1354 391 1353 c 0,89,90
 392 1352 392 1352 394 1352 c 1,82,83
EndSplineSet
EndChar

StartChar: perthousand
Encoding: 8240 8240 152
Width: 1316
GlyphClass: 1
Flags: W
LayerCount: 2
Fore
SplineSet
621 1486 m 2,0,1
 633 1512 633 1512 655 1512 c 256,2,3
 677 1512 677 1512 690 1498.5 c 128,-1,4
 703 1485 703 1485 703 1472 c 0,5,6
 703 1466 703 1466 698 1451 c 2,7,-1
 210 -70 l 1,8,9
 196 -97 196 -97 176 -97 c 256,10,11
 156 -97 156 -97 142 -84.5 c 128,-1,12
 128 -72 128 -72 128 -58 c 0,13,14
 128 -50 128 -50 133 -35 c 2,15,-1
 621 1486 l 2,0,1
879 298 m 256,16,17
 879 360 879 360 894.5 415 c 128,-1,18
 910 470 910 470 937 510.5 c 128,-1,19
 964 551 964 551 1000.5 574.5 c 128,-1,20
 1037 598 1037 598 1079 598 c 256,21,22
 1121 598 1121 598 1157.5 574.5 c 128,-1,23
 1194 551 1194 551 1221 510.5 c 128,-1,24
 1248 470 1248 470 1264 415 c 128,-1,25
 1280 360 1280 360 1280 298 c 256,26,27
 1280 236 1280 236 1264 181 c 128,-1,28
 1248 126 1248 126 1221 85.5 c 128,-1,29
 1194 45 1194 45 1157.5 21.5 c 128,-1,30
 1121 -2 1121 -2 1079 -2 c 256,31,32
 1037 -2 1037 -2 1000.5 21.5 c 128,-1,33
 964 45 964 45 937 85.5 c 128,-1,34
 910 126 910 126 894.5 181 c 128,-1,35
 879 236 879 236 879 298 c 256,16,17
952 297 m 256,36,37
 952 254 952 254 962 216.5 c 128,-1,38
 972 179 972 179 989.5 151 c 128,-1,39
 1007 123 1007 123 1030 107 c 128,-1,40
 1053 91 1053 91 1080 91 c 256,41,42
 1107 91 1107 91 1130 107 c 128,-1,43
 1153 123 1153 123 1170.5 151 c 128,-1,44
 1188 179 1188 179 1198 216.5 c 128,-1,45
 1208 254 1208 254 1208 297 c 256,46,47
 1208 340 1208 340 1198 377.5 c 128,-1,48
 1188 415 1188 415 1170.5 443 c 128,-1,49
 1153 471 1153 471 1130 487.5 c 128,-1,50
 1107 504 1107 504 1080 504 c 256,51,52
 1053 504 1053 504 1030 487.5 c 128,-1,53
 1007 471 1007 471 989.5 443 c 128,-1,54
 972 415 972 415 962 377.5 c 128,-1,55
 952 340 952 340 952 297 c 256,36,37
9 1117 m 256,56,57
 9 1179 9 1179 24.5 1234 c 128,-1,58
 40 1289 40 1289 67 1329.5 c 128,-1,59
 94 1370 94 1370 130.5 1393.5 c 128,-1,60
 167 1417 167 1417 209 1417 c 256,61,62
 251 1417 251 1417 287.5 1393.5 c 128,-1,63
 324 1370 324 1370 351 1329.5 c 128,-1,64
 378 1289 378 1289 394 1234 c 128,-1,65
 410 1179 410 1179 410 1117 c 256,66,67
 410 1055 410 1055 394 1000 c 128,-1,68
 378 945 378 945 351 904.5 c 128,-1,69
 324 864 324 864 287.5 840.5 c 128,-1,70
 251 817 251 817 209 817 c 256,71,72
 167 817 167 817 130.5 840.5 c 128,-1,73
 94 864 94 864 67 904.5 c 128,-1,74
 40 945 40 945 24.5 1000 c 128,-1,75
 9 1055 9 1055 9 1117 c 256,56,57
82 1116 m 256,76,77
 82 1073 82 1073 92 1035.5 c 128,-1,78
 102 998 102 998 119.5 970 c 128,-1,79
 137 942 137 942 160 926 c 128,-1,80
 183 910 183 910 210 910 c 256,81,82
 237 910 237 910 260 926 c 128,-1,83
 283 942 283 942 300.5 970 c 128,-1,84
 318 998 318 998 328 1035.5 c 128,-1,85
 338 1073 338 1073 338 1116 c 256,86,87
 338 1159 338 1159 328 1196.5 c 128,-1,88
 318 1234 318 1234 300.5 1262 c 128,-1,89
 283 1290 283 1290 260 1306.5 c 128,-1,90
 237 1323 237 1323 210 1323 c 256,91,92
 183 1323 183 1323 160 1306.5 c 128,-1,93
 137 1290 137 1290 119.5 1262 c 128,-1,94
 102 1234 102 1234 92 1196.5 c 128,-1,95
 82 1159 82 1159 82 1116 c 256,76,77
426 298 m 256,96,97
 426 360 426 360 441.5 415 c 128,-1,98
 457 470 457 470 484 510.5 c 128,-1,99
 511 551 511 551 547.5 574.5 c 128,-1,100
 584 598 584 598 626 598 c 256,101,102
 668 598 668 598 704.5 574.5 c 128,-1,103
 741 551 741 551 768 510.5 c 128,-1,104
 795 470 795 470 811 415 c 128,-1,105
 827 360 827 360 827 298 c 256,106,107
 827 236 827 236 811 181 c 128,-1,108
 795 126 795 126 768 85.5 c 128,-1,109
 741 45 741 45 704.5 21.5 c 128,-1,110
 668 -2 668 -2 626 -2 c 256,111,112
 584 -2 584 -2 547.5 21.5 c 128,-1,113
 511 45 511 45 484 85.5 c 128,-1,114
 457 126 457 126 441.5 181 c 128,-1,115
 426 236 426 236 426 298 c 256,96,97
499 297 m 256,116,117
 499 254 499 254 509 216.5 c 128,-1,118
 519 179 519 179 536.5 151 c 128,-1,119
 554 123 554 123 577 107 c 128,-1,120
 600 91 600 91 627 91 c 256,121,122
 654 91 654 91 677 107 c 128,-1,123
 700 123 700 123 717.5 151 c 128,-1,124
 735 179 735 179 745 216.5 c 128,-1,125
 755 254 755 254 755 297 c 256,126,127
 755 340 755 340 745 377.5 c 128,-1,128
 735 415 735 415 717.5 443 c 128,-1,129
 700 471 700 471 677 487.5 c 128,-1,130
 654 504 654 504 627 504 c 256,131,132
 600 504 600 504 577 487.5 c 128,-1,133
 554 471 554 471 536.5 443 c 128,-1,134
 519 415 519 415 509 377.5 c 128,-1,135
 499 340 499 340 499 297 c 256,116,117
EndSplineSet
EndChar

StartChar: OE
Encoding: 338 338 153
Width: 1359
GlyphClass: 1
Flags: W
LayerCount: 2
Fore
SplineSet
1007 1261 m 1,0,-1
 776 1261 l 1,1,-1
 776 882 l 1,2,-1
 829 882 l 1,3,4
 824 897 824 897 824 904 c 0,5,6
 824 914 824 914 829.5 923.5 c 128,-1,7
 835 933 835 933 842.5 940 c 128,-1,8
 850 947 850 947 859 951 c 128,-1,9
 868 955 868 955 876 955 c 0,10,11
 894 955 894 955 912 937 c 2,12,-1
 978 870 l 2,13,14
 979 865 979 865 984 864 c 2,15,-1
 1079 768 l 2,16,17
 1088 759 1088 759 1091.5 750 c 128,-1,18
 1095 741 1095 741 1096 732 c 0,19,20
 1096 723 1096 723 1091 714 c 128,-1,21
 1086 705 1086 705 1078 697 c 128,-1,22
 1070 689 1070 689 1060.5 684 c 128,-1,23
 1051 679 1051 679 1042 679 c 0,24,25
 1024 679 1024 679 1006 697 c 2,26,-1
 924 781 l 1,27,-1
 776 781 l 1,28,-1
 776 103 l 1,29,-1
 1087 103 l 1,30,-1
 1238 266 l 2,31,32
 1253 283 1253 283 1274 283 c 0,33,34
 1297 283 1297 283 1312.5 265.5 c 128,-1,35
 1328 248 1328 248 1328 233 c 0,36,37
 1328 220 1328 220 1318 204 c 2,38,-1
 1179 -9 l 1,39,40
 1165 -23 1165 -23 1155.5 -29 c 128,-1,41
 1146 -35 1146 -35 1134 -35 c 0,42,43
 1114 -36 1114 -36 1097 -13 c 2,44,-1
 1085 2 l 1,45,-1
 602 2 l 1,46,-1
 602 -2 l 1,47,-1
 590 -2 l 2,48,49
 528 -2 528 -2 464 17.5 c 128,-1,50
 400 37 400 37 339.5 75 c 128,-1,51
 279 113 279 113 226.5 169.5 c 128,-1,52
 174 226 174 226 134.5 299 c 128,-1,53
 95 372 95 372 72 462 c 128,-1,54
 49 552 49 552 49 658 c 0,55,56
 49 808 49 808 90 933.5 c 128,-1,57
 131 1059 131 1059 204 1151 c 128,-1,58
 277 1243 277 1243 378 1297.5 c 128,-1,59
 479 1352 479 1352 598 1361 c 0,60,61
 602 1362 602 1362 612 1362 c 2,62,-1
 636 1362 l 1,63,-1
 991 1362 l 1,64,-1
 998 1380 l 2,65,66
 1005 1397 1005 1397 1014.5 1406 c 128,-1,67
 1024 1415 1024 1415 1039 1415 c 0,68,69
 1051 1415 1051 1415 1064 1408.5 c 128,-1,70
 1077 1402 1077 1402 1085 1393 c 2,71,-1
 1245 1184 l 2,72,73
 1258 1168 1258 1168 1258 1150 c 0,74,75
 1258 1142 1258 1142 1253.5 1133.5 c 128,-1,76
 1249 1125 1249 1125 1241.5 1117.5 c 128,-1,77
 1234 1110 1234 1110 1224.5 1105.5 c 128,-1,78
 1215 1101 1215 1101 1205 1101 c 0,79,80
 1187 1101 1187 1101 1172 1116 c 1,81,-1
 1171 1115 l 1,82,-1
 1007 1261 l 1,0,-1
610 103 m 2,83,-1
 674 103 l 1,84,-1
 674 1261 l 1,85,-1
 612 1261 l 2,86,87
 606 1261 606 1261 601 1261.5 c 128,-1,88
 596 1262 596 1262 591 1263 c 0,89,90
 493 1254 493 1254 412 1206 c 128,-1,91
 331 1158 331 1158 273.5 1079.5 c 128,-1,92
 216 1001 216 1001 184 896.5 c 128,-1,93
 152 792 152 792 152 670 c 0,94,95
 152 536 152 536 190.5 430.5 c 128,-1,96
 229 325 229 325 289.5 251 c 128,-1,97
 350 177 350 177 425 136.5 c 128,-1,98
 500 96 500 96 574 93 c 1,99,100
 587 103 587 103 610 103 c 2,83,-1
EndSplineSet
EndChar

StartChar: oe
Encoding: 339 339 154
Width: 1252
GlyphClass: 1
Flags: W
LayerCount: 2
Fore
SplineSet
1117 639 m 2,0,-1
 734 631 l 1,1,2
 724 610 724 610 718 585 c 128,-1,3
 712 560 712 560 708.5 534 c 128,-1,4
 705 508 705 508 703.5 482.5 c 128,-1,5
 702 457 702 457 702 436 c 0,6,7
 702 375 702 375 715 325 c 128,-1,8
 728 275 728 275 749.5 236 c 128,-1,9
 771 197 771 197 798 168.5 c 128,-1,10
 825 140 825 140 852.5 121 c 128,-1,11
 880 102 880 102 905.5 93 c 128,-1,12
 931 84 931 84 949 84 c 0,13,14
 988 84 988 84 1029 112 c 128,-1,15
 1070 140 1070 140 1112 200 c 0,16,17
 1128 224 1128 224 1150 224 c 0,18,19
 1160 224 1160 224 1170 219 c 128,-1,20
 1180 214 1180 214 1188 206.5 c 128,-1,21
 1196 199 1196 199 1201 190 c 128,-1,22
 1206 181 1206 181 1206 173 c 0,23,24
 1206 156 1206 156 1193 136 c 128,-1,25
 1180 116 1180 116 1161.5 96 c 128,-1,26
 1143 76 1143 76 1123.5 59 c 128,-1,27
 1104 42 1104 42 1091 33 c 0,28,29
 1023 -16 1023 -16 949 -16 c 0,30,31
 910 -16 910 -16 869.5 -1.5 c 128,-1,32
 829 13 829 13 789.5 41.5 c 128,-1,33
 750 70 750 70 713.5 112.5 c 128,-1,34
 677 155 677 155 647 212 c 1,35,36
 625 158 625 158 592.5 112.5 c 128,-1,37
 560 67 560 67 521 35 c 128,-1,38
 482 3 482 3 437.5 -15 c 128,-1,39
 393 -33 393 -33 346 -33 c 0,40,41
 277 -33 277 -33 217.5 3 c 128,-1,42
 158 39 158 39 114.5 101.5 c 128,-1,43
 71 164 71 164 46 247.5 c 128,-1,44
 21 331 21 331 21 426 c 2,45,-1
 21 447 l 2,46,47
 24 545 24 545 53 632 c 128,-1,48
 82 719 82 719 129.5 784 c 128,-1,49
 177 849 177 849 239.5 886.5 c 128,-1,50
 302 924 302 924 372 924 c 2,51,-1
 379 924 l 2,52,53
 424 922 424 922 464.5 905.5 c 128,-1,54
 505 889 505 889 540 859 c 128,-1,55
 575 829 575 829 604 787.5 c 128,-1,56
 633 746 633 746 654 695 c 1,57,58
 673 740 673 740 700 778.5 c 128,-1,59
 727 817 727 817 761.5 845.5 c 128,-1,60
 796 874 796 874 838 890.5 c 128,-1,61
 880 907 880 907 930 907 c 0,62,63
 1015 907 1015 907 1072.5 860.5 c 128,-1,64
 1130 814 1130 814 1165 706 c 1,65,-1
 1164 706 l 1,66,67
 1167 697 1167 697 1167 688 c 0,68,69
 1167 641 1167 641 1117 639 c 2,0,-1
377 823 m 2,70,-1
 372 823 l 2,71,72
 320 823 320 823 274.5 789.5 c 128,-1,73
 229 756 229 756 195 700.5 c 128,-1,74
 161 645 161 645 141.5 573.5 c 128,-1,75
 122 502 122 502 122 426 c 0,76,77
 122 354 122 354 139.5 289.5 c 128,-1,78
 157 225 157 225 187 176 c 128,-1,79
 217 127 217 127 257 98 c 128,-1,80
 297 69 297 69 342 68 c 2,81,-1
 346 68 l 2,82,83
 395 68 395 68 439.5 98.5 c 128,-1,84
 484 129 484 129 518 181 c 128,-1,85
 552 233 552 233 573 301.5 c 128,-1,86
 594 370 594 370 596 447 c 2,87,-1
 596 465 l 2,88,89
 596 536 596 536 579 599.5 c 128,-1,90
 562 663 562 663 533 712 c 128,-1,91
 504 761 504 761 463.5 790.5 c 128,-1,92
 423 820 423 820 377 823 c 2,70,-1
791 733 m 1,93,-1
 1041 739 l 1,94,95
 1023 773 1023 773 998 789.5 c 128,-1,96
 973 806 973 806 935 806 c 0,97,98
 852 806 852 806 791 733 c 1,93,-1
EndSplineSet
EndChar

StartChar: asciicircum
Encoding: 94 94 155
Width: 979
GlyphClass: 1
Flags: W
LayerCount: 2
Fore
SplineSet
912 304 m 2,0,1
 963 304 963 304 963 254 c 0,2,3
 963 203 963 203 912 203 c 2,4,-1
 678 203 l 2,5,6
 628 203 628 203 628 254 c 0,7,8
 628 304 628 304 678 304 c 2,9,-1
 723 304 l 1,10,-1
 502 736 l 1,11,-1
 262 304 l 1,12,-1
 292 304 l 2,13,14
 343 304 343 304 343 254 c 0,15,16
 343 203 343 203 292 203 c 2,17,-1
 81 203 l 2,18,19
 31 203 31 203 31 254 c 0,20,21
 31 304 31 304 81 304 c 2,22,-1
 153 304 l 1,23,-1
 454 845 l 2,24,25
 462 865 462 865 475.5 872.5 c 128,-1,26
 489 880 489 880 508 880 c 0,27,28
 538 880 538 880 550 846 c 1,29,-1
 831 304 l 1,30,-1
 912 304 l 2,0,1
EndSplineSet
EndChar

StartChar: numbersign
Encoding: 35 35 157
Width: 629
GlyphClass: 1
Flags: W
LayerCount: 2
Fore
SplineSet
503 897 m 2,0,1
 528 897 528 897 540.5 883.5 c 128,-1,2
 553 870 553 870 553 846 c 0,3,4
 553 819 553 819 540.5 807.5 c 128,-1,5
 528 796 528 796 502 796 c 2,6,-1
 431 796 l 1,7,-1
 408 724 l 1,8,-1
 504 724 l 2,9,10
 529 724 529 724 541.5 710.5 c 128,-1,11
 554 697 554 697 554 673 c 0,12,13
 554 646 554 646 541.5 634.5 c 128,-1,14
 529 623 529 623 503 623 c 2,15,-1
 375 623 l 1,16,-1
 283 335 l 1,17,18
 269 308 269 308 249 308 c 256,19,20
 229 308 229 308 215 320.5 c 128,-1,21
 201 333 201 333 201 347 c 0,22,23
 201 355 201 355 206 370 c 2,24,-1
 287 624 l 1,25,-1
 200 624 l 1,26,-1
 107 335 l 1,27,28
 93 308 93 308 73 308 c 256,29,30
 53 308 53 308 39 320.5 c 128,-1,31
 25 333 25 333 25 347 c 0,32,33
 25 355 25 355 30 370 c 2,34,-1
 111 625 l 1,35,-1
 76 625 l 2,36,37
 49 625 49 625 35.5 638.5 c 128,-1,38
 22 652 22 652 22 676 c 0,39,40
 22 726 22 726 73 726 c 2,41,-1
 144 725 l 1,42,-1
 167 797 l 1,43,-1
 75 798 l 2,44,45
 21 798 21 798 21 849 c 0,46,47
 21 899 21 899 72 899 c 2,48,-1
 199 898 l 1,49,-1
 287 1172 l 2,50,51
 299 1198 299 1198 321 1198 c 256,52,53
 343 1198 343 1198 356 1184.5 c 128,-1,54
 369 1171 369 1171 369 1158 c 0,55,56
 369 1152 369 1152 364 1137 c 2,57,-1
 287 898 l 1,58,-1
 375 898 l 1,59,-1
 463 1172 l 2,60,61
 475 1198 475 1198 497 1198 c 256,62,63
 519 1198 519 1198 532 1184.5 c 128,-1,64
 545 1171 545 1171 545 1158 c 0,65,66
 545 1152 545 1152 540 1137 c 2,67,-1
 463 897 l 1,68,-1
 503 897 l 2,0,1
232 725 m 1,69,-1
 320 725 l 1,70,-1
 343 796 l 1,71,-1
 255 796 l 1,72,-1
 232 725 l 1,69,-1
EndSplineSet
EndChar

StartChar: ampersand
Encoding: 38 38 158
Width: 1009
GlyphClass: 1
Flags: W
LayerCount: 2
Fore
SplineSet
931 71 m 2,0,1
 944 54 944 54 944 37 c 0,2,3
 944 28 944 28 939 19.5 c 128,-1,4
 934 11 934 11 925.5 4 c 128,-1,5
 917 -3 917 -3 907 -7.5 c 128,-1,6
 897 -12 897 -12 888 -12 c 0,7,8
 866 -12 866 -12 850 10 c 2,9,-1
 740 155 l 1,10,11
 707 118 707 118 668 86 c 128,-1,12
 629 54 629 54 582.5 31 c 128,-1,13
 536 8 536 8 481.5 -5.5 c 128,-1,14
 427 -19 427 -19 363 -19 c 0,15,16
 294 -19 294 -19 236 4 c 128,-1,17
 178 27 178 27 135.5 70 c 128,-1,18
 93 113 93 113 69 174.5 c 128,-1,19
 45 236 45 236 45 314 c 0,20,21
 45 438 45 438 102 534 c 128,-1,22
 159 630 159 630 256 684 c 0,23,24
 259 685 259 685 264.5 688.5 c 128,-1,25
 270 692 270 692 276 696.5 c 128,-1,26
 282 701 282 701 287.5 704.5 c 128,-1,27
 293 708 293 708 296 710 c 2,28,-1
 311 721 l 1,29,-1
 257 793 l 2,30,31
 203 864 203 864 203 951 c 0,32,33
 203 997 203 997 219 1042 c 128,-1,34
 235 1087 235 1087 265 1122 c 128,-1,35
 295 1157 295 1157 338.5 1179.5 c 128,-1,36
 382 1202 382 1202 437 1203 c 0,37,38
 489 1203 489 1203 534 1186 c 128,-1,39
 579 1169 579 1169 612 1139 c 128,-1,40
 645 1109 645 1109 664 1068 c 128,-1,41
 683 1027 683 1027 683 979 c 0,42,43
 683 919 683 919 655 870 c 128,-1,44
 627 821 627 821 573 783 c 2,45,-1
 455 699 l 1,46,-1
 739 325 l 1,47,48
 772 379 772 379 799 432.5 c 128,-1,49
 826 486 826 486 853 538 c 0,50,51
 868 568 868 568 893 568 c 0,52,53
 917 568 917 568 934 552 c 128,-1,54
 951 536 951 536 951 519 c 0,55,56
 951 505 951 505 940 484.5 c 128,-1,57
 929 464 929 464 921 448 c 0,58,59
 895 397 895 397 866 343.5 c 128,-1,60
 837 290 837 290 804 239 c 1,61,-1
 931 71 l 2,0,1
676 239 m 1,62,-1
 373 640 l 1,63,-1
 355 628 l 2,64,65
 351 625 351 625 347 622 c 0,66,67
 343 620 343 620 339 617 c 128,-1,68
 335 614 335 614 330 611 c 0,69,70
 319 604 319 604 305 595 c 0,71,72
 269 575 269 575 239.5 546.5 c 128,-1,73
 210 518 210 518 189 482 c 128,-1,74
 168 446 168 446 156.5 404 c 128,-1,75
 145 362 145 362 145 315 c 0,76,77
 145 261 145 261 161 218 c 128,-1,78
 177 175 177 175 205.5 144.5 c 128,-1,79
 234 114 234 114 274 98 c 128,-1,80
 314 82 314 82 363 82 c 0,81,82
 415 82 415 82 460 93.5 c 128,-1,83
 505 105 505 105 543.5 126 c 128,-1,84
 582 147 582 147 614.5 176 c 128,-1,85
 647 205 647 205 676 239 c 1,62,-1
338 854 m 2,86,-1
 394 780 l 1,87,-1
 514 866 l 2,88,89
 547 889 547 889 565 918 c 128,-1,90
 583 947 583 947 583 979 c 0,91,92
 583 1004 583 1004 572.5 1026 c 128,-1,93
 562 1048 562 1048 543 1065 c 128,-1,94
 524 1082 524 1082 497 1092 c 128,-1,95
 470 1102 470 1102 438 1102 c 0,96,97
 409 1101 409 1101 384.5 1088.5 c 128,-1,98
 360 1076 360 1076 342.5 1056.5 c 128,-1,99
 325 1037 325 1037 315 1011.5 c 128,-1,100
 305 986 305 986 305 958 c 0,101,102
 305 928 305 928 312.5 902.5 c 128,-1,103
 320 877 320 877 338 854 c 2,86,-1
EndSplineSet
EndChar

StartChar: braceleft
Encoding: 123 123 159
Width: 400
GlyphClass: 1
Flags: W
LayerCount: 2
Fore
SplineSet
330 1504 m 0,0,1
 381 1504 381 1504 381 1453 c 0,2,3
 381 1403 381 1403 330 1403 c 0,4,5
 306 1403 306 1403 293 1379.5 c 128,-1,6
 280 1356 280 1356 273.5 1318 c 128,-1,7
 267 1280 267 1280 264.5 1231 c 128,-1,8
 262 1182 262 1182 260 1130 c 0,9,10
 257 1064 257 1064 250.5 998.5 c 128,-1,11
 244 933 244 933 235 867 c 0,12,13
 217 737 217 737 134 660 c 1,14,15
 215 585 215 585 235 452 c 0,16,17
 243 393 243 393 248 331.5 c 128,-1,18
 253 270 253 270 257 211 c 128,-1,19
 261 152 261 152 264.5 97.5 c 128,-1,20
 268 43 268 43 274 0 c 0,21,22
 284 -82 284 -82 330 -82 c 0,23,24
 381 -82 381 -82 381 -132 c 0,25,26
 381 -183 381 -183 330 -183 c 0,27,28
 213 -183 213 -183 189 -72 c 0,29,30
 178 -21 178 -21 171.5 41.5 c 128,-1,31
 165 104 165 104 160 172 c 128,-1,32
 155 240 155 240 149 310.5 c 128,-1,33
 143 381 143 381 133 447 c 0,34,35
 113 575 113 575 21 613 c 0,36,37
 4 619 4 619 -4 635.5 c 128,-1,38
 -12 652 -12 652 -12 666 c 0,39,40
 -12 693 -12 693 21 707 c 0,41,42
 114 745 114 745 133 872 c 0,43,44
 143 938 143 938 149 1008.5 c 128,-1,45
 155 1079 155 1079 160 1147 c 128,-1,46
 165 1215 165 1215 171.5 1277.5 c 128,-1,47
 178 1340 178 1340 189 1392 c 0,48,49
 213 1504 213 1504 330 1504 c 0,0,1
EndSplineSet
EndChar

StartChar: braceright
Encoding: 125 125 160
Width: 400
GlyphClass: 1
Flags: W
LayerCount: 2
Fore
SplineSet
26 -183 m 0,0,1
 -25 -183 -25 -183 -25 -132 c 0,2,3
 -25 -82 -25 -82 26 -82 c 0,4,5
 49 -82 49 -82 62 -59 c 128,-1,6
 75 -36 75 -36 81.5 2.5 c 128,-1,7
 88 41 88 41 91 90 c 128,-1,8
 94 139 94 139 96 191 c 0,9,10
 102 323 102 323 120 453 c 256,11,12
 138 583 138 583 222 661 c 1,13,14
 180 700 180 700 156.5 754 c 128,-1,15
 133 808 133 808 120 870.5 c 128,-1,16
 107 933 107 933 103 999.5 c 128,-1,17
 99 1066 99 1066 96 1130 c 0,18,19
 94 1183 94 1183 91 1232.5 c 128,-1,20
 88 1282 88 1282 81.5 1320 c 128,-1,21
 75 1358 75 1358 62 1380.5 c 128,-1,22
 49 1403 49 1403 26 1403 c 0,23,24
 -25 1403 -25 1403 -25 1453 c 0,25,26
 -25 1504 -25 1504 26 1504 c 0,27,28
 143 1504 143 1504 167 1393 c 0,29,30
 178 1342 178 1342 184 1279.5 c 128,-1,31
 190 1217 190 1217 195.5 1149 c 128,-1,32
 201 1081 201 1081 207 1010.5 c 128,-1,33
 213 940 213 940 223 874 c 0,34,35
 243 744 243 744 335 708 c 0,36,37
 351 701 351 701 359.5 685 c 128,-1,38
 368 669 368 669 368 655 c 0,39,40
 368 627 368 627 335 614 c 0,41,42
 242 576 242 576 223 448 c 0,43,44
 213 382 213 382 207 312 c 128,-1,45
 201 242 201 242 196 174 c 128,-1,46
 191 106 191 106 184.5 43 c 128,-1,47
 178 -20 178 -20 167 -71 c 0,48,49
 143 -183 143 -183 26 -183 c 0,0,1
EndSplineSet
EndChar

StartChar: asciitilde
Encoding: 126 126 161
Width: 614
GlyphClass: 1
Flags: W
LayerCount: 2
Fore
SplineSet
180 593 m 0,0,1
 188 577 188 577 188 565 c 0,2,3
 188 556 188 556 183 547.5 c 128,-1,4
 178 539 178 539 170 532 c 128,-1,5
 162 525 162 525 151.5 520.5 c 128,-1,6
 141 516 141 516 130 516 c 0,7,8
 117 516 117 516 107 525 c 128,-1,9
 97 534 97 534 90 547.5 c 128,-1,10
 83 561 83 561 79 576.5 c 128,-1,11
 75 592 75 592 75 606 c 0,12,13
 75 631 75 631 84.5 651.5 c 128,-1,14
 94 672 94 672 110.5 687 c 128,-1,15
 127 702 127 702 149 710 c 128,-1,16
 171 718 171 718 195 718 c 0,17,18
 213 718 213 718 227 714.5 c 128,-1,19
 241 711 241 711 254.5 703 c 128,-1,20
 268 695 268 695 283 680.5 c 128,-1,21
 298 666 298 666 318 645 c 0,22,23
 340 618 340 618 352 609.5 c 128,-1,24
 364 601 364 601 377 601 c 0,25,26
 387 601 387 601 397.5 604.5 c 128,-1,27
 408 608 408 608 408 619 c 0,28,29
 408 627 408 627 403.5 638 c 128,-1,30
 399 649 399 649 399 657 c 0,31,32
 399 673 399 673 414.5 689.5 c 128,-1,33
 430 706 430 706 456 706 c 0,34,35
 468 706 468 706 478 698 c 128,-1,36
 488 690 488 690 495 677.5 c 128,-1,37
 502 665 502 665 506 650 c 128,-1,38
 510 635 510 635 510 620 c 0,39,40
 510 593 510 593 499 571 c 128,-1,41
 488 549 488 549 469.5 533 c 128,-1,42
 451 517 451 517 427 508.5 c 128,-1,43
 403 500 403 500 378 500 c 0,44,45
 338 500 338 500 307.5 518 c 128,-1,46
 277 536 277 536 240 580 c 0,47,48
 221 602 221 602 213 609.5 c 128,-1,49
 205 617 205 617 194 617 c 0,50,51
 178 617 178 617 176.5 611 c 128,-1,52
 175 605 175 605 175 606 c 1,53,54
 175 599 175 599 180 593 c 0,0,1
EndSplineSet
EndChar

StartChar: tilde
Encoding: 732 732 162
Width: 446
GlyphClass: 1
Flags: W
LayerCount: 2
Fore
SplineSet
85 1033 m 0,0,1
 93 1017 93 1017 93 1005 c 0,2,3
 93 996 93 996 88 987.5 c 128,-1,4
 83 979 83 979 75 972 c 128,-1,5
 67 965 67 965 56.5 960.5 c 128,-1,6
 46 956 46 956 35 956 c 0,7,8
 22 956 22 956 12 965 c 128,-1,9
 2 974 2 974 -5 987.5 c 128,-1,10
 -12 1001 -12 1001 -16 1016.5 c 128,-1,11
 -20 1032 -20 1032 -20 1046 c 0,12,13
 -20 1071 -20 1071 -10.5 1091.5 c 128,-1,14
 -1 1112 -1 1112 15.5 1127 c 128,-1,15
 32 1142 32 1142 54 1150 c 128,-1,16
 76 1158 76 1158 100 1158 c 0,17,18
 118 1158 118 1158 132 1154.5 c 128,-1,19
 146 1151 146 1151 159.5 1143 c 128,-1,20
 173 1135 173 1135 188 1120.5 c 128,-1,21
 203 1106 203 1106 223 1085 c 0,22,23
 245 1058 245 1058 257 1049.5 c 128,-1,24
 269 1041 269 1041 282 1041 c 0,25,26
 292 1041 292 1041 302.5 1044.5 c 128,-1,27
 313 1048 313 1048 313 1059 c 0,28,29
 313 1067 313 1067 308.5 1078 c 128,-1,30
 304 1089 304 1089 304 1097 c 0,31,32
 304 1113 304 1113 319.5 1129.5 c 128,-1,33
 335 1146 335 1146 361 1146 c 0,34,35
 373 1146 373 1146 383 1138 c 128,-1,36
 393 1130 393 1130 400 1117.5 c 128,-1,37
 407 1105 407 1105 411 1090 c 128,-1,38
 415 1075 415 1075 415 1060 c 0,39,40
 415 1033 415 1033 404 1011 c 128,-1,41
 393 989 393 989 374.5 973 c 128,-1,42
 356 957 356 957 332 948.5 c 128,-1,43
 308 940 308 940 283 940 c 0,44,45
 243 940 243 940 212.5 958 c 128,-1,46
 182 976 182 976 145 1020 c 0,47,48
 126 1042 126 1042 118 1049.5 c 128,-1,49
 110 1057 110 1057 99 1057 c 0,50,51
 83 1057 83 1057 81.5 1051 c 128,-1,52
 80 1045 80 1045 80 1046 c 1,53,54
 80 1039 80 1039 85 1033 c 0,0,1
EndSplineSet
EndChar

StartChar: exclamdown
Encoding: 161 161 170
Width: 181
GlyphClass: 1
Flags: W
LayerCount: 2
Fore
SplineSet
33 1303 m 2,0,1
 33 1354 33 1354 84 1354 c 0,2,3
 134 1354 134 1354 134 1303 c 2,4,-1
 134 1288 l 2,5,6
 134 1238 134 1238 84 1238 c 0,7,8
 33 1238 33 1238 33 1288 c 2,9,-1
 33 1303 l 2,0,1
91 6 m 1,10,11
 83 2 83 2 74 2 c 0,12,13
 31 3 31 3 33 45 c 2,14,-1
 51 999 l 2,15,16
 51 1040 51 1040 93 1040 c 0,17,18
 133 1040 133 1040 135 998 c 2,19,-1
 149 45 l 2,20,21
 149 4 149 4 108 2 c 0,22,23
 99 2 99 2 91 6 c 1,10,11
EndSplineSet
EndChar

StartChar: questiondown
Encoding: 191 191 171
Width: 880
GlyphClass: 1
Flags: W
LayerCount: 2
Fore
SplineSet
757 249 m 0,0,1
 773 277 773 277 796 277 c 0,2,3
 818 277 818 277 835 260.5 c 128,-1,4
 852 244 852 244 852 226 c 0,5,6
 852 215 852 215 844 197 c 0,7,8
 780 89 780 89 683.5 36.5 c 128,-1,9
 587 -16 587 -16 469 -16 c 0,10,11
 373 -16 373 -16 294 14.5 c 128,-1,12
 215 45 215 45 158.5 100.5 c 128,-1,13
 102 156 102 156 70.5 233 c 128,-1,14
 39 310 39 310 39 404 c 0,15,16
 39 541 39 541 103.5 637 c 128,-1,17
 168 733 168 733 294 788 c 0,18,19
 395 832 395 832 441.5 897.5 c 128,-1,20
 488 963 488 963 488 1058 c 0,21,22
 488 1068 488 1068 487.5 1078.5 c 128,-1,23
 487 1089 487 1089 487 1099 c 0,24,25
 487 1145 487 1145 541 1145 c 0,26,27
 558 1145 558 1145 568 1139 c 128,-1,28
 578 1133 578 1133 583 1121.5 c 128,-1,29
 588 1110 588 1110 589 1093.5 c 128,-1,30
 590 1077 590 1077 590 1057 c 0,31,32
 590 932 590 932 528.5 842 c 128,-1,33
 467 752 467 752 335 695 c 0,34,35
 233 653 233 653 186.5 579 c 128,-1,36
 140 505 140 505 140 390 c 0,37,38
 142 319 142 319 167 263 c 128,-1,39
 192 207 192 207 235.5 167 c 128,-1,40
 279 127 279 127 338.5 106 c 128,-1,41
 398 85 398 85 469 85 c 0,42,43
 563 85 563 85 634.5 125 c 128,-1,44
 706 165 706 165 757 249 c 0,0,1
533 1195 m 256,45,46
 442 1195 442 1195 442 1279 c 0,47,48
 442 1362 442 1362 533 1362 c 256,49,50
 624 1362 624 1362 624 1279 c 0,51,52
 624 1195 624 1195 533 1195 c 256,45,46
EndSplineSet
EndChar

StartChar: endash
Encoding: 8211 8211 172
Width: 456
GlyphClass: 1
Flags: W
LayerCount: 2
Fore
SplineSet
328 897 m 2,0,1
 353 897 353 897 365.5 883.5 c 128,-1,2
 378 870 378 870 378 846 c 0,3,4
 378 819 378 819 365.5 807.5 c 128,-1,5
 353 796 353 796 327 796 c 2,6,-1
 75 798 l 2,7,8
 21 798 21 798 21 849 c 0,9,10
 21 899 21 899 72 899 c 2,11,-1
 328 897 l 2,0,1
EndSplineSet
EndChar

StartChar: emdash
Encoding: 8212 8212 173
Width: 842
GlyphClass: 1
Flags: W
LayerCount: 2
Fore
SplineSet
698 897 m 2,0,1
 748 895 748 895 748 846 c 0,2,3
 748 819 748 819 735.5 807.5 c 128,-1,4
 723 796 723 796 697 796 c 2,5,-1
 149 798 l 2,6,7
 95 799 95 799 95 849 c 256,8,9
 95 899 95 899 146 899 c 2,10,-1
 698 897 l 2,0,1
EndSplineSet
EndChar

StartChar: underscore
Encoding: 95 95 174
Width: 561
GlyphClass: 1
Flags: W
LayerCount: 2
Fore
SplineSet
555 -157 m 2,0,1
 605 -159 605 -159 605 -208 c 0,2,3
 605 -235 605 -235 592.5 -246.5 c 128,-1,4
 580 -258 580 -258 554 -258 c 2,5,-1
 6 -256 l 2,6,7
 -48 -255 -48 -255 -48 -205 c 256,8,9
 -48 -155 -48 -155 3 -155 c 2,10,-1
 555 -157 l 2,0,1
EndSplineSet
EndChar

StartChar: less
Encoding: 60 60 175
Width: 809
GlyphClass: 1
Flags: W
LayerCount: 2
Fore
SplineSet
690 859 m 2,0,1
 703 865 703 865 716 865 c 0,2,3
 732 865 732 865 747 849.5 c 128,-1,4
 762 834 762 834 762 808 c 0,5,6
 760 779 760 779 730 766 c 2,7,-1
 208 538 l 1,8,-1
 729 317 l 2,9,10
 762 303 762 303 762 275 c 0,11,12
 762 249 762 249 746.5 233 c 128,-1,13
 731 217 731 217 715 217 c 0,14,15
 703 217 703 217 690 223 c 2,16,-1
 61 491 l 2,17,18
 46 497 46 497 37 513 c 128,-1,19
 28 529 28 529 28 543 c 0,20,21
 28 569 28 569 61 584 c 2,22,-1
 690 859 l 2,0,1
EndSplineSet
EndChar

StartChar: guilsinglleft
Encoding: 8249 8249 176
Width: 818
GlyphClass: 1
Flags: W
LayerCount: 2
Fore
SplineSet
699 859 m 2,0,1
 712 865 712 865 725 865 c 0,2,3
 741 865 741 865 756 849.5 c 128,-1,4
 771 834 771 834 771 808 c 0,5,6
 769 779 769 779 739 766 c 2,7,-1
 217 538 l 1,8,-1
 738 317 l 2,9,10
 771 303 771 303 771 275 c 0,11,12
 771 249 771 249 755.5 233 c 128,-1,13
 740 217 740 217 724 217 c 0,14,15
 712 217 712 217 699 223 c 2,16,-1
 70 491 l 2,17,18
 55 497 55 497 46 513 c 128,-1,19
 37 529 37 529 37 543 c 0,20,21
 37 569 37 569 70 584 c 2,22,-1
 699 859 l 2,0,1
EndSplineSet
EndChar

StartChar: guillemotleft
Encoding: 171 171 177
Width: 1238
GlyphClass: 1
Flags: W
LayerCount: 2
Fore
SplineSet
1138 859 m 2,0,1
 1151 865 1151 865 1164 865 c 0,2,3
 1180 865 1180 865 1195 849.5 c 128,-1,4
 1210 834 1210 834 1210 808 c 0,5,6
 1208 779 1208 779 1178 766 c 2,7,-1
 656 538 l 1,8,-1
 1177 317 l 2,9,10
 1210 303 1210 303 1210 275 c 0,11,12
 1210 249 1210 249 1194.5 233 c 128,-1,13
 1179 217 1179 217 1163 217 c 0,14,15
 1151 217 1151 217 1138 223 c 2,16,-1
 509 491 l 2,17,18
 494 497 494 497 485 513 c 128,-1,19
 476 529 476 529 476 543 c 0,20,21
 476 569 476 569 509 584 c 2,22,-1
 1138 859 l 2,0,1
686 859 m 2,23,24
 699 865 699 865 712 865 c 0,25,26
 728 865 728 865 743 849.5 c 128,-1,27
 758 834 758 834 758 808 c 0,28,29
 756 779 756 779 726 766 c 2,30,-1
 204 538 l 1,31,-1
 725 317 l 2,32,33
 758 303 758 303 758 275 c 0,34,35
 758 249 758 249 742.5 233 c 128,-1,36
 727 217 727 217 711 217 c 0,37,38
 699 217 699 217 686 223 c 2,39,-1
 57 491 l 2,40,41
 42 497 42 497 33 513 c 128,-1,42
 24 529 24 529 24 543 c 0,43,44
 24 569 24 569 57 584 c 2,45,-1
 686 859 l 2,23,24
EndSplineSet
EndChar

StartChar: guillemotright
Encoding: 187 187 178
Width: 1238
GlyphClass: 1
Flags: W
LayerCount: 2
Fore
SplineSet
724 584 m 2,0,1
 756 569 756 569 756 543 c 0,2,3
 756 529 756 529 747.5 513 c 128,-1,4
 739 497 739 497 724 491 c 2,5,-1
 95 223 l 2,6,7
 81 217 81 217 70 217 c 0,8,9
 54 217 54 217 38.5 233 c 128,-1,10
 23 249 23 249 23 275 c 0,11,12
 23 303 23 303 56 317 c 2,13,-1
 577 538 l 1,14,-1
 55 766 l 2,15,16
 23 780 23 780 23 808 c 0,17,18
 23 834 23 834 38 849.5 c 128,-1,19
 53 865 53 865 69 865 c 0,20,21
 80 865 80 865 95 859 c 2,22,-1
 724 584 l 2,0,1
1176 584 m 2,23,24
 1208 569 1208 569 1208 543 c 0,25,26
 1208 529 1208 529 1199.5 513 c 128,-1,27
 1191 497 1191 497 1176 491 c 2,28,-1
 547 223 l 2,29,30
 533 217 533 217 522 217 c 0,31,32
 506 217 506 217 490.5 233 c 128,-1,33
 475 249 475 249 475 275 c 0,34,35
 475 303 475 303 508 317 c 2,36,-1
 1029 538 l 1,37,-1
 507 766 l 2,38,39
 475 780 475 780 475 808 c 0,40,41
 475 834 475 834 490 849.5 c 128,-1,42
 505 865 505 865 521 865 c 0,43,44
 532 865 532 865 547 859 c 2,45,-1
 1176 584 l 2,23,24
EndSplineSet
EndChar

StartChar: greater
Encoding: 62 62 179
Width: 809
GlyphClass: 1
Flags: W
LayerCount: 2
Fore
SplineSet
728 584 m 2,0,1
 760 569 760 569 760 543 c 0,2,3
 760 529 760 529 751.5 513 c 128,-1,4
 743 497 743 497 728 491 c 2,5,-1
 99 223 l 2,6,7
 85 217 85 217 74 217 c 0,8,9
 58 217 58 217 42.5 233 c 128,-1,10
 27 249 27 249 27 275 c 0,11,12
 27 303 27 303 60 317 c 2,13,-1
 581 538 l 1,14,-1
 59 766 l 2,15,16
 27 780 27 780 27 808 c 0,17,18
 27 834 27 834 42 849.5 c 128,-1,19
 57 865 57 865 73 865 c 0,20,21
 84 865 84 865 99 859 c 2,22,-1
 728 584 l 2,0,1
EndSplineSet
EndChar

StartChar: guilsinglright
Encoding: 8250 8250 180
Width: 809
GlyphClass: 1
Flags: W
LayerCount: 2
Fore
SplineSet
728 584 m 2,0,1
 760 569 760 569 760 543 c 0,2,3
 760 529 760 529 751.5 513 c 128,-1,4
 743 497 743 497 728 491 c 2,5,-1
 99 223 l 2,6,7
 85 217 85 217 74 217 c 0,8,9
 58 217 58 217 42.5 233 c 128,-1,10
 27 249 27 249 27 275 c 0,11,12
 27 303 27 303 60 317 c 2,13,-1
 581 538 l 1,14,-1
 59 766 l 2,15,16
 27 780 27 780 27 808 c 0,17,18
 27 834 27 834 42 849.5 c 128,-1,19
 57 865 57 865 73 865 c 0,20,21
 84 865 84 865 99 859 c 2,22,-1
 728 584 l 2,0,1
EndSplineSet
EndChar

StartChar: Eth
Encoding: 208 208 181
Width: 1022
GlyphClass: 1
Flags: W
LayerCount: 2
Fore
SplineSet
98 1261 m 0,0,1
 95 1260 95 1260 87 1260 c 0,2,3
 42 1260 42 1260 42 1315 c 0,4,5
 42 1331 42 1331 52 1341.5 c 128,-1,6
 62 1352 62 1352 77.5 1358 c 128,-1,7
 93 1364 93 1364 112.5 1366.5 c 128,-1,8
 132 1369 132 1369 151 1369 c 2,9,-1
 238 1369 l 2,10,11
 421 1369 421 1369 561 1320 c 128,-1,12
 701 1271 701 1271 795.5 1175 c 128,-1,13
 890 1079 890 1079 938.5 937.5 c 128,-1,14
 987 796 987 796 987 612 c 0,15,16
 987 452 987 452 945.5 336.5 c 128,-1,17
 904 221 904 221 829.5 147 c 128,-1,18
 755 73 755 73 651 37.5 c 128,-1,19
 547 2 547 2 422 2 c 2,20,-1
 91 2 l 2,21,22
 40 2 40 2 40 53 c 0,23,24
 40 103 40 103 91 103 c 2,25,-1
 147 103 l 1,26,-1
 147 802 l 1,27,-1
 110 802 l 2,28,29
 83 802 83 802 69.5 815.5 c 128,-1,30
 56 829 56 829 56 853 c 0,31,32
 56 903 56 903 107 903 c 2,33,-1
 147 903 l 1,34,-1
 147 1265 l 1,35,36
 131 1264 131 1264 118.5 1263 c 128,-1,37
 106 1262 106 1262 98 1261 c 0,0,1
659 902 m 2,38,39
 709 899 709 899 709 850 c 0,40,41
 709 823 709 823 696.5 811.5 c 128,-1,42
 684 800 684 800 658 800 c 2,43,-1
 249 801 l 1,44,-1
 249 103 l 1,45,-1
 422 103 l 2,46,47
 655 103 655 103 770.5 228 c 128,-1,48
 886 353 886 353 886 612 c 0,49,50
 886 934 886 934 729 1098.5 c 128,-1,51
 572 1263 572 1263 249 1268 c 1,52,-1
 249 902 l 1,53,-1
 659 902 l 2,38,39
EndSplineSet
EndChar

StartChar: eth
Encoding: 240 240 182
Width: 716
GlyphClass: 1
Flags: W
LayerCount: 2
Fore
SplineSet
505 1351 m 0,0,1
 535 1334 535 1334 535 1310 c 256,2,3
 535 1286 535 1286 518 1269.5 c 128,-1,4
 501 1253 501 1253 486 1253 c 0,5,6
 475 1253 475 1253 467 1257 c 128,-1,7
 459 1261 459 1261 440 1269 c 0,8,9
 435 1270 435 1270 427 1270 c 0,10,11
 404 1270 404 1270 393 1254 c 128,-1,12
 382 1238 382 1238 364 1208 c 1,13,14
 480 1112 480 1112 556 963 c 128,-1,15
 632 814 632 814 667 606 c 0,16,17
 682 538 682 538 682 464 c 0,18,19
 682 366 682 366 655.5 280.5 c 128,-1,20
 629 195 629 195 583 131.5 c 128,-1,21
 537 68 537 68 476 31 c 128,-1,22
 415 -6 415 -6 345 -6 c 0,23,24
 274 -6 274 -6 212.5 31 c 128,-1,25
 151 68 151 68 105.5 132 c 128,-1,26
 60 196 60 196 34 281.5 c 128,-1,27
 8 367 8 367 8 464 c 0,28,29
 8 562 8 562 34.5 648 c 128,-1,30
 61 734 61 734 106.5 797.5 c 128,-1,31
 152 861 152 861 213.5 898 c 128,-1,32
 275 935 275 935 345 935 c 0,33,34
 412 935 412 935 475 899 c 1,35,36
 443 963 443 963 407.5 1014 c 128,-1,37
 372 1065 372 1065 321 1111 c 1,38,39
 292 1072 292 1072 253.5 1053 c 128,-1,40
 215 1034 215 1034 177 1034 c 0,41,42
 161 1034 161 1034 141 1038 c 128,-1,43
 121 1042 121 1042 103.5 1049.5 c 128,-1,44
 86 1057 86 1057 74 1068.5 c 128,-1,45
 62 1080 62 1080 62 1095 c 0,46,47
 62 1118 62 1118 77.5 1136 c 128,-1,48
 93 1154 93 1154 109 1154 c 0,49,50
 121 1154 121 1154 128 1150 c 128,-1,51
 135 1146 135 1146 156 1138 c 0,52,53
 166 1135 166 1135 176 1135 c 0,54,55
 193 1135 193 1135 209.5 1145 c 128,-1,56
 226 1155 226 1155 240 1172 c 1,57,58
 159 1222 159 1222 63 1249 c 0,59,60
 24 1259 24 1259 24 1292 c 0,61,62
 24 1321 24 1321 38 1335.5 c 128,-1,63
 52 1350 52 1350 70 1350 c 0,64,65
 79 1350 79 1350 90 1347 c 0,66,67
 141 1332 141 1332 188 1312 c 128,-1,68
 235 1292 235 1292 280 1267 c 1,69,70
 280 1268 280 1268 281 1269.5 c 128,-1,71
 282 1271 282 1271 283 1273 c 0,72,73
 308 1321 308 1321 344 1346.5 c 128,-1,74
 380 1372 380 1372 424 1372 c 0,75,76
 443 1372 443 1372 463 1367 c 128,-1,77
 483 1362 483 1362 505 1351 c 0,0,1
506 733 m 0,78,79
 436 833 436 833 345 833 c 0,80,81
 296 833 296 833 253 803 c 128,-1,82
 210 773 210 773 178.5 722.5 c 128,-1,83
 147 672 147 672 128.5 605 c 128,-1,84
 110 538 110 538 110 464 c 0,85,86
 110 389 110 389 128.5 322 c 128,-1,87
 147 255 147 255 179 204.5 c 128,-1,88
 211 154 211 154 254 124.5 c 128,-1,89
 297 95 297 95 345 95 c 0,90,91
 394 95 394 95 437 125 c 128,-1,92
 480 155 480 155 512 205.5 c 128,-1,93
 544 256 544 256 562.5 323 c 128,-1,94
 581 390 581 390 581 464 c 0,95,96
 581 622 581 622 506 733 c 0,78,79
EndSplineSet
EndChar

StartChar: thorn
Encoding: 254 254 183
Width: 793
GlyphClass: 1
Flags: W
LayerCount: 2
Fore
SplineSet
131 1252 m 2,0,1
 80 1252 80 1252 80 1302 c 0,2,3
 80 1353 80 1353 131 1353 c 2,4,-1
 215 1353 l 2,5,6
 266 1353 266 1353 266 1302 c 2,7,-1
 265 785 l 1,8,9
 349 910 349 910 458 910 c 0,10,11
 513 910 513 910 567.5 871.5 c 128,-1,12
 622 833 622 833 665.5 768.5 c 128,-1,13
 709 704 709 704 736.5 621 c 128,-1,14
 764 538 764 538 764 448 c 0,15,16
 764 350 764 350 740 266 c 128,-1,17
 716 182 716 182 674.5 120 c 128,-1,18
 633 58 633 58 577 22.5 c 128,-1,19
 521 -13 521 -13 458 -13 c 0,20,21
 343 -13 343 -13 265 86 c 1,22,-1
 265 -160 l 1,23,-1
 326 -160 l 2,24,25
 377 -160 377 -160 377 -211 c 256,26,27
 377 -262 377 -262 326 -262 c 2,28,-1
 107 -262 l 2,29,30
 57 -262 57 -262 57 -211 c 256,31,32
 57 -160 57 -160 107 -160 c 2,33,-1
 163 -160 l 1,34,-1
 163 1252 l 1,35,-1
 131 1252 l 2,0,1
593 697 m 0,36,37
 524 808 524 808 458 808 c 0,38,39
 422 808 422 808 387 775 c 128,-1,40
 352 742 352 742 325 688.5 c 128,-1,41
 298 635 298 635 281.5 567.5 c 128,-1,42
 265 500 265 500 265 431 c 0,43,44
 265 359 265 359 279.5 296 c 128,-1,45
 294 233 294 233 319.5 186.5 c 128,-1,46
 345 140 345 140 380.5 113.5 c 128,-1,47
 416 87 416 87 458 87 c 256,48,49
 500 87 500 87 537 116 c 128,-1,50
 574 145 574 145 602 194.5 c 128,-1,51
 630 244 630 244 646.5 309.5 c 128,-1,52
 663 375 663 375 663 448 c 0,53,54
 663 585 663 585 593 697 c 0,36,37
EndSplineSet
EndChar

StartChar: asterisk
Encoding: 42 42 184
Width: 579
GlyphClass: 1
Flags: W
LayerCount: 2
Fore
SplineSet
330 1286 m 1,0,-1
 368 1168 l 1,1,-1
 494 1195 l 2,2,3
 498 1196 498 1196 505 1196 c 0,4,5
 517 1196 517 1196 527 1186.5 c 128,-1,6
 537 1177 537 1177 537 1160 c 0,7,8
 537 1145 537 1145 526 1134 c 2,9,-1
 442 1045 l 1,10,-1
 527 955 l 2,11,12
 539 941 539 941 539 929 c 0,13,14
 539 918 539 918 528 905.5 c 128,-1,15
 517 893 517 893 503 893 c 0,16,17
 497 893 497 893 494 894 c 2,18,-1
 368 921 l 1,19,-1
 330 804 l 2,20,21
 319 777 319 777 298 777 c 0,22,23
 269 777 269 777 260 804 c 2,24,-1
 222 921 l 1,25,-1
 96 894 l 2,26,27
 92 893 92 893 84 893 c 0,28,29
 71 893 71 893 61.5 902 c 128,-1,30
 52 911 52 911 52 931 c 0,31,32
 52 945 52 945 63 956 c 2,33,-1
 148 1045 l 1,34,-1
 62 1135 l 2,35,36
 50 1147 50 1147 50 1159 c 0,37,38
 50 1169 50 1169 60.5 1182 c 128,-1,39
 71 1195 71 1195 88 1195 c 2,40,-1
 96 1195 l 1,41,-1
 222 1168 l 1,42,-1
 260 1286 l 2,43,44
 267 1311 267 1311 290 1311 c 0,45,46
 317 1311 317 1311 330 1286 c 1,0,-1
EndSplineSet
EndChar

StartChar: cent
Encoding: 162 162 185
Width: 617
GlyphClass: 1
Flags: W
LayerCount: 2
Fore
SplineSet
263 1307 m 2,0,1
 263 1332 263 1332 276.5 1344.5 c 128,-1,2
 290 1357 290 1357 314 1357 c 0,3,4
 364 1357 364 1357 364 1306 c 2,5,-1
 363 1150 l 1,6,7
 376 1149 376 1149 387.5 1147.5 c 128,-1,8
 399 1146 399 1146 410 1142 c 1,9,10
 411 1162 411 1162 425.5 1177 c 128,-1,11
 440 1192 440 1192 467 1192 c 0,12,13
 497 1192 497 1192 509 1157 c 2,14,-1
 573 969 l 2,15,16
 577 960 577 960 577 947 c 0,17,18
 577 930 577 930 561.5 915.5 c 128,-1,19
 546 901 546 901 519 901 c 0,20,21
 490 901 490 901 478 935 c 0,22,23
 458 987 458 987 428 1015 c 128,-1,24
 398 1043 398 1043 363 1048 c 1,25,-1
 362 327 l 1,26,27
 403 339 403 339 432.5 378.5 c 128,-1,28
 462 418 462 418 479 478 c 0,29,30
 490 516 490 516 522 516 c 0,31,32
 551 516 551 516 565 503 c 128,-1,33
 579 490 579 490 579 471 c 0,34,35
 579 467 579 467 578.5 462.5 c 128,-1,36
 578 458 578 458 577 453 c 0,37,38
 553 356 553 356 496.5 297 c 128,-1,39
 440 238 440 238 362 224 c 1,40,-1
 362 79 l 2,41,42
 360 25 360 25 311 25 c 0,43,44
 261 25 261 25 261 76 c 2,45,-1
 261 233 l 1,46,47
 213 253 213 253 172 296 c 128,-1,48
 131 339 131 339 101 399.5 c 128,-1,49
 71 460 71 460 54.5 534 c 128,-1,50
 38 608 38 608 38 689 c 2,51,-1
 38 694 l 1,52,53
 49 876 49 876 105.5 990 c 128,-1,54
 162 1104 162 1104 262 1138 c 1,55,-1
 263 1307 l 2,0,1
202 955 m 0,56,57
 177 909 177 909 161 842 c 128,-1,58
 145 775 145 775 139 688 c 1,59,-1
 139 687 l 2,60,61
 139 636 139 636 147.5 586 c 128,-1,62
 156 536 156 536 171.5 492.5 c 128,-1,63
 187 449 187 449 208 413.5 c 128,-1,64
 229 378 229 378 254 354 c 0,65,66
 258 351 258 351 261 347 c 1,67,-1
 262 1026 l 1,68,69
 228 1002 228 1002 202 955 c 0,56,57
EndSplineSet
EndChar

StartChar: plus
Encoding: 43 43 186
Width: 736
GlyphClass: 1
Flags: W
LayerCount: 2
Fore
SplineSet
652 622 m 2,0,1
 702 620 702 620 702 571 c 0,2,3
 702 544 702 544 689.5 532.5 c 128,-1,4
 677 521 677 521 651 521 c 2,5,-1
 424 521 l 1,6,-1
 423 299 l 2,7,8
 423 272 423 272 409.5 258.5 c 128,-1,9
 396 245 396 245 372 245 c 0,10,11
 322 245 322 245 322 296 c 2,12,-1
 323 522 l 1,13,-1
 103 523 l 2,14,15
 76 523 76 523 62.5 536.5 c 128,-1,16
 49 550 49 550 49 574 c 0,17,18
 49 624 49 624 100 624 c 2,19,-1
 323 623 l 1,20,-1
 324 848 l 2,21,22
 324 873 324 873 337.5 885.5 c 128,-1,23
 351 898 351 898 375 898 c 0,24,25
 402 898 402 898 413.5 885.5 c 128,-1,26
 425 873 425 873 425 847 c 2,27,-1
 424 622 l 1,28,-1
 652 622 l 2,0,1
EndSplineSet
EndChar

StartChar: multiply
Encoding: 215 215 187
Width: 736
GlyphClass: 1
Flags: W
LayerCount: 2
Fore
SplineSet
535 803 m 2,0,1
 544 812 544 812 553 815.5 c 128,-1,2
 562 819 562 819 570 820 c 0,3,4
 579 820 579 820 589 814.5 c 128,-1,5
 599 809 599 809 607 801 c 128,-1,6
 615 793 615 793 620 783.5 c 128,-1,7
 625 774 625 774 625 766 c 0,8,9
 625 756 625 756 620 748 c 128,-1,10
 615 740 615 740 606 731 c 2,11,-1
 445 570 l 1,12,-1
 601 413 l 2,13,14
 620 394 620 394 620 373 c 0,15,16
 620 364 620 364 615 355 c 128,-1,17
 610 346 610 346 602.5 338.5 c 128,-1,18
 595 331 595 331 586 326 c 128,-1,19
 577 321 577 321 568 321 c 0,20,21
 550 321 550 321 532 339 c 2,22,-1
 373 500 l 1,23,-1
 217 345 l 2,24,25
 197 325 197 325 177 325 c 0,26,27
 168 325 168 325 159 330 c 128,-1,28
 150 335 150 335 142.5 342.5 c 128,-1,29
 135 350 135 350 130 359.5 c 128,-1,30
 125 369 125 369 125 378 c 0,31,32
 125 396 125 396 143 414 c 2,33,-1
 301 571 l 1,34,-1
 143 731 l 2,35,36
 126 748 126 748 126 766 c 0,37,38
 126 775 126 775 131.5 785 c 128,-1,39
 137 795 137 795 145 803 c 128,-1,40
 153 811 153 811 162.5 816 c 128,-1,41
 172 821 172 821 180 821 c 0,42,43
 196 821 196 821 215 802 c 2,44,-1
 374 642 l 1,45,-1
 535 803 l 2,0,1
EndSplineSet
EndChar

StartChar: cedilla
Encoding: 184 184 188
Width: 408
GlyphClass: 1
Flags: W
LayerCount: 2
Fore
SplineSet
161 -1 m 0,0,1
 171 29 171 29 214 29 c 0,2,3
 236 29 236 29 246.5 21.5 c 128,-1,4
 257 14 257 14 257 -7 c 0,5,6
 257 -32 257 -32 242 -71 c 1,7,8
 313 -71 313 -71 346 -109.5 c 128,-1,9
 379 -148 379 -148 379 -206 c 0,10,11
 379 -236 379 -236 368 -268 c 128,-1,12
 357 -300 357 -300 336.5 -325.5 c 128,-1,13
 316 -351 316 -351 287.5 -367.5 c 128,-1,14
 259 -384 259 -384 223 -384 c 0,15,16
 188 -384 188 -384 161 -376 c 128,-1,17
 134 -368 134 -368 115.5 -356 c 128,-1,18
 97 -344 97 -344 87.5 -330.5 c 128,-1,19
 78 -317 78 -317 78 -306 c 0,20,21
 78 -292 78 -292 84 -280.5 c 128,-1,22
 90 -269 90 -269 98 -260.5 c 128,-1,23
 106 -252 106 -252 115 -247.5 c 128,-1,24
 124 -243 124 -243 130 -243 c 0,25,26
 139 -243 139 -243 150.5 -250 c 128,-1,27
 162 -257 162 -257 174 -266 c 128,-1,28
 186 -275 186 -275 197.5 -282 c 128,-1,29
 209 -289 209 -289 218 -289 c 0,30,31
 228 -289 228 -289 239 -280.5 c 128,-1,32
 250 -272 250 -272 259.5 -258.5 c 128,-1,33
 269 -245 269 -245 275.5 -228 c 128,-1,34
 282 -211 282 -211 282 -194 c 0,35,36
 282 -170 282 -170 257 -170 c 0,37,38
 238 -170 238 -170 213 -177 c 128,-1,39
 188 -184 188 -184 173 -184 c 0,40,41
 126 -184 126 -184 126 -145 c 0,42,43
 126 -108 126 -108 137.5 -69.5 c 128,-1,44
 149 -31 149 -31 161 -1 c 0,0,1
EndSplineSet
EndChar

StartChar: plusminus
Encoding: 177 177 191
Width: 736
GlyphClass: 1
Flags: W
LayerCount: 2
Fore
SplineSet
652 622 m 2,0,1
 702 620 702 620 702 571 c 0,2,3
 702 544 702 544 689.5 532.5 c 128,-1,4
 677 521 677 521 651 521 c 2,5,-1
 424 521 l 1,6,-1
 423 299 l 2,7,8
 423 272 423 272 409.5 258.5 c 128,-1,9
 396 245 396 245 372 245 c 0,10,11
 322 245 322 245 322 296 c 2,12,-1
 323 522 l 1,13,-1
 103 523 l 2,14,15
 76 523 76 523 62.5 536.5 c 128,-1,16
 49 550 49 550 49 574 c 0,17,18
 49 624 49 624 100 624 c 2,19,-1
 323 623 l 1,20,-1
 324 848 l 2,21,22
 324 873 324 873 337.5 885.5 c 128,-1,23
 351 898 351 898 375 898 c 0,24,25
 402 898 402 898 413.5 885.5 c 128,-1,26
 425 873 425 873 425 847 c 2,27,-1
 424 622 l 1,28,-1
 652 622 l 2,0,1
649 184 m 2,29,30
 699 182 699 182 699 133 c 0,31,32
 699 106 699 106 686.5 94.5 c 128,-1,33
 674 83 674 83 648 83 c 2,34,-1
 100 85 l 2,35,36
 46 86 46 86 46 136 c 256,37,38
 46 186 46 186 97 186 c 2,39,-1
 649 184 l 2,29,30
EndSplineSet
EndChar

